<svg xmlns="http://www.w3.org/2000/svg" viewBox="0 0 498.55 526.37"><defs><style>.cls-1{fill:#4c9b2f;}.cls-2{fill:#5dba3e;}.cls-3{fill:#449935;}.cls-4{fill:#bcbcbc;}.cls-5{fill:#d5d5d5;}.cls-6{fill:#d4d4d4;}.cls-7{fill:#eaeaea;}.cls-8{fill:#d8d8df;}.cls-9{fill:#e6e6e6;}.cls-10{fill:#f0f6f7;}.cls-11{fill:#c0d4d8;}.cls-12{fill:#ebebeb;}.cls-13{fill:#4fae48;}.cls-14{fill:#f05a28;}.cls-15{fill:#f8b3a0;}.cls-16{fill:#121e20;}.cls-17{fill:#424143;}.cls-18{fill:#22393d;}.cls-19{fill:#fbb040;}.cls-20{fill:#e29334;}.cls-21{fill:#e0a4ab;}.cls-22{fill:#ffcdc2;}.cls-23{fill:#4358eb;}.cls-24{fill:#2c43b5;}.cls-25{fill:#7b7b7d;}.cls-26{fill:#ea7185;}.cls-27{fill:#545254;}.cls-28{fill:#221f1f;}.cls-29{fill:#414042;}.cls-30{fill:#c8c8c8;}.cls-31{fill:#f37b53;}</style></defs><g id="Layer_2" data-name="Layer 2"><g id="Layer_1-2" data-name="Layer 1"><path class="cls-1" d="M435.88,450.17s-3.16-35.7,14.37-44.09,1.13-25.76,17.77-34.85-.31-26.85,19.37-34.41c0,0,22.23,14.33,3.93,27.88s13.18,23-15.27,38.34C444.79,419.88,478.42,439.14,435.88,450.17Z"/><path class="cls-1" d="M436,449.54c-1.66,2.51-28.32-7.81-21.48-28.41s-22-11.48-11.37-34.68-13-15-3-34.4c0,0,22.67-4.73,18.23,15.22s24.41,13.17,14.42,36.78S454.37,421.92,436,449.54Z"/><path class="cls-2" d="M435.91,450.07s-20.41-17.38-9.12-33.66-12.7-26.12,1-39.75-3.25-31.21,7.65-43.65-12-17.33,6.47-41.95c0,0,21.69,10.87,14,29s13.79,15.35,1.25,37.84,14.12,32.9,1.8,42.9S463.57,435.08,435.91,450.07Z"/><path class="cls-3" d="M443.82,301.71c.37,5.76.71,11.52.9,17.29s.4,11.53.48,17.3c.17,11.53.13,23.07-.34,34.59s-1.29,23-2.5,34.48c-.75,5.71-1.37,11.45-2.44,17.12-.78,5.72-2.17,11.32-3.28,17,1.45-5.59,3-11.17,4-16.86,1.22-5.65,2-11.39,2.87-17.1.37-2.87.68-5.75,1-8.62.15-1.44.34-2.87.45-4.32l.34-4.32.34-4.32c.12-1.44.23-2.89.29-4.33l.45-8.66c.34-11.56.41-23.13,0-34.68-.23-5.77-.52-11.55-.92-17.31-.21-2.88-.46-5.76-.72-8.64S444.19,304.57,443.82,301.71Z"/><path class="cls-4" d="M22.56,350.14a58.21,58.21,0,0,1-1.87,8.73c-.57,1.93-1.14,3.5-1.57,4.6h3.21c.37-1,.8-2.3,1.24-3.76A63.14,63.14,0,0,0,25.33,352a7.05,7.05,0,0,1-1.7-.32,1.49,1.49,0,0,1-1.07-1.53m0-21.19a8.1,8.1,0,0,1-.84.89,1.5,1.5,0,0,1-2.11-.11,1.18,1.18,0,0,1-.17-.22,24.8,24.8,0,0,1,2.07,4.71,32.73,32.73,0,0,1,1.48,10,46,46,0,0,1-.37,5.69l0-.16a1.5,1.5,0,0,1,1.44-1.06,1.59,1.59,0,0,1,.43.06,4.87,4.87,0,0,0,1.22.21,46,46,0,0,0,.25-4.74,35.54,35.54,0,0,0-1.62-11A29.64,29.64,0,0,0,22.53,329m-9.82-12.8a25.75,25.75,0,0,0,1.11,3.63c.6,1.52,1.13,3,1.61,4.5.22.25.45.49.68.74a24.29,24.29,0,0,1,3.26,4.4,1.49,1.49,0,0,1,.32-1.81h0l.07-.07c.08-.07.18-.19.32-.34a9.18,9.18,0,0,0,.77-1A27,27,0,0,0,18.31,323a61.91,61.91,0,0,1-5.6-6.83m-2.53-19.34c-.63.66-1.21,1.24-1.72,1.73A10.43,10.43,0,0,0,5.29,306a10.21,10.21,0,0,0,.3,2.45,29,29,0,0,0,4.33,9,26.51,26.51,0,0,1-.71-4.6c-.07-1-.11-2-.11-3.22a18.16,18.16,0,0,1-.6-1.88A7.15,7.15,0,0,1,8.29,306a7.42,7.42,0,0,1,1.21-4c.17-1.59.39-3.31.68-5.16m5.71-7.16c-.3.46-.6.91-.91,1.35s-.62.87-.94,1.28c-.43,2.11-.77,4.07-1,5.9a53.91,53.91,0,0,0,4.43-5.45c.18-.25.35-.51.52-.76-.32,0-.65-.07-1-.13a1.5,1.5,0,0,1-1.24-1.72,1.45,1.45,0,0,1,.16-.47m3.45-28.28a1.43,1.43,0,0,0-.5.09,1.5,1.5,0,0,0-.92,1.91h0a41.88,41.88,0,0,1,1.85,12.48,39.77,39.77,0,0,1-.33,5.11,21.65,21.65,0,0,1-3.44,8.5,1.51,1.51,0,0,1,1.21-.61l.24,0a10,10,0,0,0,1.65.14q.34,0,.66,0a22.2,22.2,0,0,0,2.66-7.63,42.54,42.54,0,0,0,.35-5.5,44.7,44.7,0,0,0-2-13.48,1.51,1.51,0,0,0-1.41-1"/><path class="cls-5" d="M11.72,288.78c-.66,2.91-1.16,5.58-1.54,8-.29,1.85-.51,3.57-.68,5.16a73.58,73.58,0,0,0-.4,7.41v.19c0,1.19,0,2.27.11,3.22A26.72,26.72,0,0,0,11,320.87,68.59,68.59,0,0,1,16,345.94c0,.86,0,1.69-.05,2.5a10.68,10.68,0,0,0,1.84,1h0a1.5,1.5,0,0,1-.55,2.9,1.59,1.59,0,0,1-.56-.11s-.4-.16-1-.46a54,54,0,0,1-2,10.23c-.15.51-.31,1-.46,1.44h3.16A58.91,58.91,0,0,0,19,345.94a70.08,70.08,0,0,0-3.54-21.66c-.48-1.47-1-3-1.61-4.5a25.75,25.75,0,0,1-1.11-3.63,23.67,23.67,0,0,1-.51-3.56c-.06-.94-.1-2-.1-3.21a76.54,76.54,0,0,1,.9-11.2c.27-1.83.61-3.79,1-5.9.2-1,.42-2,.66-3.07a1.49,1.49,0,0,1-1.26,1.1h-.19a1.49,1.49,0,0,1-1.49-1.3h0v0l0-.19h0M14,267a1.47,1.47,0,0,1-.1.68,1.49,1.49,0,0,1-1.4,1,1.46,1.46,0,0,1-.53-.1q-.42-.15-.81-.33c.1.56.22,1.12.34,1.68a67.86,67.86,0,0,1,1.25,6.87,29.73,29.73,0,0,1,.21,3.53,27.19,27.19,0,0,1-.14,2.85c.17.3.33.6.47.89a15.74,15.74,0,0,1,1.48,4.55h0a1.55,1.55,0,0,1,0,.48c.11-.48.22-1,.34-1.46a31.14,31.14,0,0,0,.86-7.31,31.65,31.65,0,0,0-.24-3.9,70.65,70.65,0,0,0-1.29-7.18c-.17-.74-.32-1.48-.43-2.22m-.39-17.55a1.51,1.51,0,0,0-1.21.6,10.13,10.13,0,0,0-1.54,4.36,34.46,34.46,0,0,0-.35,5.23c0,1.79.09,3.53.2,4.94A12.06,12.06,0,0,0,13,265.79a1.5,1.5,0,0,1,.93,1.1c-.1-.7-.19-1.41-.24-2.11-.12-1.42-.22-3.25-.22-5.1a31,31,0,0,1,.31-4.76,7.44,7.44,0,0,1,1-3,1.51,1.51,0,0,0-.31-2.1,1.48,1.48,0,0,0-.89-.29"/><path class="cls-5" d="M4.4,251a1.49,1.49,0,0,0-1.48,1.25h0a14.84,14.84,0,0,0-.16,2.32,16.89,16.89,0,0,0,1.54,7.21,13.07,13.07,0,0,0,2.8,3.88,14.09,14.09,0,0,0,4,2.64q.39.18.81.33a1.46,1.46,0,0,0,.53.1,1.49,1.49,0,0,0,1.4-1A1.47,1.47,0,0,0,14,267l0-.15a1.5,1.5,0,0,0-.93-1.1,12.06,12.06,0,0,1-2.33-1.17,10.16,10.16,0,0,1-1.5-1.18,10.58,10.58,0,0,1-2.79-4.59,15,15,0,0,1-.62-4.32c0-.57,0-1.05.06-1.37,0-.16,0-.28,0-.36l0-.08h0A1.5,1.5,0,0,0,4.65,251a1.1,1.1,0,0,0-.25,0"/><path class="cls-5" d="M1.81,266.86A1.5,1.5,0,0,0,.36,268a11.92,11.92,0,0,0-.36,3,10.27,10.27,0,0,0,.85,4.22,8.37,8.37,0,0,0,3.75,4,14,14,0,0,1,6,6.26,14.61,14.61,0,0,1,1,2.64c.09.32.15.58.18.75h0l0,.19v0h0a1.49,1.49,0,0,0,1.49,1.3h.19a1.49,1.49,0,0,0,1.26-1.1s0-.07,0-.1a1.55,1.55,0,0,0,0-.48h0a15.74,15.74,0,0,0-1.48-4.55c-.14-.29-.3-.59-.47-.89A16.9,16.9,0,0,0,6,276.49a5.27,5.27,0,0,1-2.44-2.56,7.24,7.24,0,0,1-.59-3,10.73,10.73,0,0,1,.13-1.6l.09-.45,0-.11v0h0a1.49,1.49,0,0,0-1-1.84,1.39,1.39,0,0,0-.4-.06"/><path class="cls-5" d="M9.12,336.37a1.49,1.49,0,0,0-1.49,1.43c0,.27,0,.54,0,.81A14.44,14.44,0,0,0,9,345a15.25,15.25,0,0,0,4.74,5.6,17.75,17.75,0,0,0,1.92,1.22c.57.3.93.44,1,.46a1.59,1.59,0,0,0,.56.11,1.5,1.5,0,0,0,.55-2.9h0a10.68,10.68,0,0,1-1.84-1,13,13,0,0,1-1.9-1.56,11.74,11.74,0,0,1-2.36-3.32,11.58,11.58,0,0,1-1.05-4.95c0-.22,0-.44,0-.67a1.5,1.5,0,0,0-1.42-1.57H9.12"/><path class="cls-4" d="M27.41,279.82a1.5,1.5,0,0,0-1.49,1.43h0a12,12,0,0,1-1.09,4.11,6.6,6.6,0,0,1-2,2.54,5.61,5.61,0,0,1-3,1.08q-.32,0-.66,0a10,10,0,0,1-1.65-.14l-.24,0a1.51,1.51,0,0,0-1.21.61.78.78,0,0,0-.11.18,1.45,1.45,0,0,0-.16.47A1.5,1.5,0,0,0,17,291.84c.33.06.66.1,1,.13s.78,0,1.15,0h0a9,9,0,0,0,5.51-1.74,10.75,10.75,0,0,0,3.67-5.62,14.07,14.07,0,0,0,.6-3.28,1.48,1.48,0,0,0-1.43-1.56h-.07"/><path class="cls-4" d="M22.66,313.46a1.35,1.35,0,0,0-.64.14,1.52,1.52,0,0,0-.71,2,11.47,11.47,0,0,1,1.25,5.06,9.85,9.85,0,0,1-1.47,5.14c-.07.12-.15.25-.23.36a9.18,9.18,0,0,1-.77,1c-.14.15-.24.27-.32.34l-.07.07h0a1.49,1.49,0,0,0-.32,1.81l0,.09a1.18,1.18,0,0,0,.17.22,1.5,1.5,0,0,0,2.11.11,8.1,8.1,0,0,0,.84-.89,14.1,14.1,0,0,0,1.13-1.58,12.93,12.93,0,0,0,1.9-6.7A14.75,14.75,0,0,0,24,314.3a1.51,1.51,0,0,0-1.36-.84"/><path class="cls-4" d="M31.22,340.94a1.49,1.49,0,0,0-1.49,1.42h0a14.47,14.47,0,0,1-.82,3.75,6.06,6.06,0,0,1-1.29,2.12,2.59,2.59,0,0,1-.83.56,2.47,2.47,0,0,1-1,.21h0a4.87,4.87,0,0,1-1.22-.21,1.59,1.59,0,0,0-.43-.06,1.5,1.5,0,0,0-1.44,1.06l0,.16a1.13,1.13,0,0,0,0,.18,1.49,1.49,0,0,0,1.07,1.53,7.05,7.05,0,0,0,1.7.32l.42,0h0a5.68,5.68,0,0,0,2.29-.48,6.34,6.34,0,0,0,2.69-2.41,12.83,12.83,0,0,0,1.67-4.34,15.58,15.58,0,0,0,.31-2.26A1.49,1.49,0,0,0,31.31,341h-.09"/><path class="cls-6" d="M13.51,363.48H12.07a3.21,3.21,0,0,0-3.21,3.21v78A4.38,4.38,0,0,0,13.24,449h.27V363.48"/><path class="cls-7" d="M25,363.48H13.51V449H23.86a4.39,4.39,0,0,0,4.39-4.38v-78A3.22,3.22,0,0,0,25,363.48"/><path class="cls-8" d="M229.1,431.27h7.52l-1.29-9.49h50.3l1.29,9.49h7.52L277.08,304c-.79-5.77-5.16-10.3-9.94-10.3H220a7.59,7.59,0,0,0-6,2.95,11.13,11.13,0,0,0-2.09,8.51Zm55.44-17.47h-50.3l-3-22.05h50.3Zm-7.11-52.09,3,22.05h-50.3l-3-22.05Zm-1.09-8H226l-3-22.06h50.3Zm-56.72-51.87a.39.39,0,0,1,.35-.18h47.17c.84,0,2.29,1.38,2.58,3.47l2.53,18.54H222L219.26,304A2.93,2.93,0,0,1,219.62,301.86Z"/><path class="cls-9" d="M197.43,431.27l1.3-9.49H249l-1.3,9.49h7.52l17.2-126.12a11.17,11.17,0,0,0-2.08-8.51,7.59,7.59,0,0,0-6-2.95H217.22c-4.79,0-9.16,4.53-9.94,10.3L189.92,431.27Zm17.21-126.12c.28-2.09,1.74-3.47,2.58-3.47h47.17a.4.4,0,0,1,.35.18,2.94,2.94,0,0,1,.35,2.13l-2.68,19.7h-50.3ZM211,331.67h50.3l-3,22.06H208Zm-4.1,30h50.3l-3,22.05h-50.3Zm-4.09,30h50.29l-3,22.05h-50.3Z"/><path class="cls-10" d="M29.47,83.63h75.32a4.91,4.91,0,0,1,4.91,4.91v24.19a4.9,4.9,0,0,1-4.91,4.9H86.47l-5.35,6.84-5.68-6.84h-46a4.9,4.9,0,0,1-4.91-4.9V88.54A4.91,4.91,0,0,1,29.47,83.63Z"/><path class="cls-11" d="M33.62,93.72h66.5a1.06,1.06,0,0,0,0-2.11H33.62a1.06,1.06,0,0,0,0,2.11Z"/><path class="cls-11" d="M33.62,100.49h66.5a1,1,0,0,0,0-2.1H33.62a1,1,0,0,0,0,2.1Z"/><path class="cls-11" d="M47.08,107.27h53a1,1,0,0,0,0-2.1h-53a1,1,0,0,0,0,2.1Z"/><path class="cls-10" d="M438.72,112.19c-13.65,5.3-20.23,21.17-14.69,35.43a28.34,28.34,0,0,0,2.07,4.25l-.54,7.84,8.09.56a26.23,26.23,0,0,0,25.13,3.58c13.66-5.3,20.23-21.16,14.69-35.43S452.37,106.89,438.72,112.19Z"/><path class="cls-11" d="M447.14,142.64a2.64,2.64,0,0,1-2.59-3.24,9.32,9.32,0,0,1,2-4c1.27-1.51,2.3-2.78,2.3-4.13s-.91-2.3-2.9-2.38a7.35,7.35,0,0,0-1.87.27,2.28,2.28,0,0,1-2.81-1.49h0a2.25,2.25,0,0,1,1.43-2.81,14.63,14.63,0,0,1,4.6-.74c5.24,0,7.62,2.9,7.62,6.2,0,3-1.8,5.06-3.37,6.67a7.28,7.28,0,0,0-1.83,3.6,2.62,2.62,0,0,1-2.58,2.07Zm-3.93,5.48a3.56,3.56,0,1,1,3.54,3.61A3.44,3.44,0,0,1,443.21,148.12Z"/><path class="cls-12" d="M245.21,449.72c-127,0-229.95,17.16-229.95,38.32s103,38.33,230,38.33,230-17.16,230-38.33-103-38.32-230-38.32"/><rect class="cls-10" x="150.16" y="83.63" width="218.79" height="121.76" rx="4.86"/><path class="cls-11" d="M155.12,83.83H364a5,5,0,0,1,5,5V94a0,0,0,0,1,0,0H150.16a0,0,0,0,1,0,0V88.78A5,5,0,0,1,155.12,83.83Z"/><rect class="cls-13" x="173.61" y="148.57" width="4.91" height="22.88"/><rect class="cls-13" x="184.63" y="125.01" width="4.91" height="46.44"/><rect class="cls-13" x="195.65" y="141.43" width="4.91" height="30.01"/><rect class="cls-13" x="206.66" y="130.46" width="4.91" height="40.99"/><rect class="cls-13" x="217.68" y="139.54" width="4.91" height="31.91"/><rect class="cls-13" x="228.7" y="117.55" width="4.91" height="53.9" rx="0.12"/><rect class="cls-13" x="239.72" y="131.75" width="4.91" height="39.7" rx="0.21"/><rect class="cls-13" x="250.74" y="143.34" width="4.91" height="28.11" rx="0.21"/><rect class="cls-13" x="261.76" y="130.46" width="4.91" height="40.99" rx="0.21"/><rect class="cls-13" x="272.78" y="121.86" width="4.91" height="49.59"/><path class="cls-14" d="M317.78,128.34V151h22.65a22.65,22.65,0,1,1-22.65-22.65Z"/><path class="cls-15" d="M323.67,122.45a22.65,22.65,0,0,1,22.65,22.65H323.67Z"/><path class="cls-16" d="M124.45,455.37s4.16,9.13,11,10.86,16.4,8.9,12.24,16.53-16.17,5.66-24.84,2.42c-5.11-1.91-12.52-3.05-17.74-3.66a6.2,6.2,0,0,1-5.44-6.9l2.16-18a1.25,1.25,0,0,1,1.53-1.22C107.55,456.37,119.28,458.94,124.45,455.37Z"/><path class="cls-16" d="M90.41,458.91s4.16,9.13,11,10.86,16.4,8.9,12.24,16.52S97.46,492,88.79,488.72c-5.11-1.91-12.52-3.05-17.75-3.66a6.2,6.2,0,0,1-5.44-6.9l2.16-18a1.26,1.26,0,0,1,1.54-1.23C73.5,459.9,85.24,462.48,90.41,458.91Z"/><path class="cls-16" d="M125.54,371l5.07-.74a1.8,1.8,0,0,1,2.06,1.79v8.54l-1.42.78.36,14.83a1.8,1.8,0,0,1-1.13,1.71l-8.18,3.32Z"/><path class="cls-16" d="M74.63,306s-5.69,4-18.23,4.83a2.84,2.84,0,0,0-2.59,2.16c-.61,2.53-1.16,6.83,1.18,9.62,0,0,2.69,18.29,4.82,18.29s16.28,1.35,20.2-7.41S74.63,306,74.63,306Z"/><path class="cls-17" d="M55,322.56s15.93.67,20.65-9.88C75.64,312.68,72.94,320.09,55,322.56Z"/><path class="cls-18" d="M72.83,315.26s-4,77-5.39,97.87S62.51,451.73,64.3,460c0,0,8.31,7.41,33.9,4.26l2.69-37-1.18,33s16.81,7,30.05,0c0,0-3.51-55.29-3.06-77.52s-.22-78.11-.22-78.11S73.35,305.56,72.83,315.26Z"/><polygon class="cls-16" points="110.54 311.22 110.54 328.28 113.08 327.08 113.08 311.22 110.54 311.22"/><path class="cls-17" d="M99.7,221.32l19-3.14.3,95.32s-9.72,3.59-18.7,0Z"/><path class="cls-19" d="M118.65,213.13s12.09,3.37,13.22,20.2c.39,5.86,3.57,15,3,23.57-1.09,16-6.59,31.65-6.59,31.65v26A9.18,9.18,0,0,1,119,318s-1.61-54.61-3.26-66.73-1.65-35.47-1.65-35.47Z"/><path class="cls-20" d="M108.45,201.07s4.93,6.6,10.62,8.25l-1.5,13.46-3.44-1.57S105.15,209.29,108.45,201.07Z"/><path class="cls-19" d="M80.91,208.72s-17.95.74-22.14,17.5,0,58.81,0,58.81l14.93,5.84s-2,23.79-1.86,23.79,16.47,11.14,34.66,5.09c0,0,1.2-42.2,1.8-46.24s3.2-40.69-2.81-50C105.49,223.46,97.82,199.14,80.91,208.72Z"/><polygon class="cls-17" points="86.62 197.94 93.48 197.94 88.35 204.21 86.62 197.94"/><path class="cls-20" d="M86.62,197.94l14.91,17.36s-3.71,2.4-6.25,9.58L80.91,208.72S81,201.23,86.62,197.94Z"/><path class="cls-21" d="M89.44,198.84v3.07s12.12,13.35,16,21.55c0,0,7.07,1.23,8.64-2.25,0,0-5.72-10.88-3.7-19.53,0,0-15.89-20.53-19.39-16.38S89.44,198.84,89.44,198.84Z"/><path class="cls-22" d="M93,187.92s5.39,15.56,17.36,15.86S121.17,177,121.17,177s-20.8-11.82-26.34-6.58S80.46,185.67,93,187.92Z"/><path class="cls-23" d="M188.65,236.25l-40.1-10c-11.37,9.13-23,35.92-23,35.92l-25.29,16.31a50.68,50.68,0,0,0,39.5,14c33-2.79,69-53.36,67.79-61.14C206.19,240.62,188.65,236.25,188.65,236.25Z"/><path class="cls-24" d="M207.51,231.31c-1.2-7.78-16.46-6.43-16.46-6.43l-2.4,11.37S206.19,240.62,207.51,231.31Z"/><path class="cls-17" d="M79.42,177s1.49,13.62,10,21.85c0,0,1.65-9.88,3.59-10.92,0,0-7.41-3-4.68-7.64s4.68.45,5.73,3.15,5.24,4.49,5.24,4.49-4.19-8.92,2.32-16.51S81.51,167.42,79.42,177Z"/><path class="cls-18" d="M112.45,259.71a1.56,1.56,0,0,1,.67-2.36l25,11.81-.56,1.66Z"/><path class="cls-20" d="M97.3,172.52,79.42,177s-.3-12,3-14.81S97.3,172.52,97.3,172.52Z"/><path class="cls-20" d="M126,171.45l4,7.24s-25.08,7.42-37-5.66C93,173,118.42,165.63,126,171.45Z"/><path class="cls-22" d="M81.81,273.36s24.09-3.14,29.78-6.13,7.48-7.64,14.81-6.59,8.46,5.84,8.46,5.84,0,1.79-3.59-.23c0,0,1.19,3.82-1.87,4,0,0,.89,3.74-2.17,3.82,0,0,.67,3.59-2.7,3.07s-10.55,0-17.88,3.89-26.27,12.26-34.81,11.22C71.84,292.29,68.87,271.49,81.81,273.36Z"/><path class="cls-19" d="M77.32,167.27s5.09-22.15,25.59-22.75,23,26.64,23,26.64S97.37,177.14,77.32,167.27Z"/><path class="cls-20" d="M81.81,273.73s-7.49-1.16-9.39,17c-.28,2.65-2.32,4.12-5.45,3.68-4.53-.63-10.06-4.4-10.15-12.34C56.67,269.09,76.72,266,81.81,273.73Z"/><polygon class="cls-25" points="138.15 269.16 139.8 270.82 137.59 270.82 138.15 269.16"/><path class="cls-21" d="M116.44,184.45l1.9,7-2.19,2S117.48,190.66,116.44,184.45Z"/><path class="cls-17" d="M107.72,183.61a2.81,2.81,0,0,1,.58-1.54,3,3,0,0,1,1.41-1,2.46,2.46,0,0,1,3,1.23,9.79,9.79,0,0,0-1.46-.17,2.84,2.84,0,0,0-1.14.17A12.91,12.91,0,0,0,107.72,183.61Z"/><path class="cls-17" d="M121.13,182.27a8,8,0,0,1-.87.12l-.59.05h-.5c-.21,0-.45.06-.83.11a1.13,1.13,0,0,1,.29-1,1.4,1.4,0,0,1,1-.44,1.51,1.51,0,0,1,1,.29A1.34,1.34,0,0,1,121.13,182.27Z"/><path class="cls-26" d="M109.37,196.3s1.83,1.62,6.41.95C115.78,197.25,111.57,200.45,109.37,196.3Z"/><ellipse class="cls-17" cx="110.63" cy="186.42" rx="1.26" ry="1.68"/><ellipse class="cls-17" cx="119.46" cy="186.6" rx="1.12" ry="1.5"/><path class="cls-20" d="M81.81,273.36q-.47-5.48-.62-11t-.1-11c.06-3.66.15-7.33.42-11,.06-.91.13-1.83.23-2.74s.17-1.83.3-2.74.25-1.82.43-2.73c.1-.45.15-.91.28-1.35l.39-1.32c-.14.91-.28,1.8-.33,2.72s-.11,1.82-.14,2.73-.07,1.82-.08,2.74-.06,1.82-.06,2.74l-.14,11c-.06,3.65-.09,7.31-.19,11S82,269.7,81.81,273.36Z"/><path class="cls-20" d="M126.4,260.64c-.38-2.11-.64-4.23-.86-6.35s-.39-4.25-.55-6.38-.25-4.25-.31-6.38-.1-4.26-.15-6.4a42.57,42.57,0,0,1,1.16,6.32c.27,2.12.45,4.25.6,6.38s.23,4.26.26,6.4S126.56,258.5,126.4,260.64Z"/><path class="cls-21" d="M131.27,266.25a29.62,29.62,0,0,1-4.46-.6c-.72-.13-1.43-.28-2.15-.39s-1.43-.23-2.22-.33a5.07,5.07,0,0,1,2.26-.7,8.8,8.8,0,0,1,2.35.14,10.34,10.34,0,0,1,2.22.68A8.05,8.05,0,0,1,131.27,266.25Z"/><path class="cls-21" d="M129.4,270.29c-.59-.08-1.1-.17-1.62-.28s-1-.24-1.49-.38-1-.31-1.48-.51a8,8,0,0,1-1.47-.77,4.66,4.66,0,0,1,1.68-.24,6.47,6.47,0,0,1,1.64.27,5.79,5.79,0,0,1,1.52.69A3.65,3.65,0,0,1,129.4,270.29Z"/><path class="cls-21" d="M127.23,274.11a3.14,3.14,0,0,1-1.13.17,3.76,3.76,0,0,1-1-.19,3.33,3.33,0,0,1-.93-.45,2.92,2.92,0,0,1-.81-.8,2.71,2.71,0,0,1,1.13-.17,3.41,3.41,0,0,1,1,.19,3.33,3.33,0,0,1,.93.45A3,3,0,0,1,127.23,274.11Z"/><path class="cls-16" d="M109.37,339.05c1.45-.77,2.89-1.47,4.29-2.25a18.84,18.84,0,0,0,2-1.26,4.92,4.92,0,0,0,1.61-1.72,3.65,3.65,0,0,1-1.28,2.11,10.93,10.93,0,0,1-2,1.44A15.3,15.3,0,0,1,109.37,339.05Z"/><path class="cls-16" d="M102.24,420.31c.79-6.93,1.65-13.85,2.52-20.77l2.7-20.75,2.84-20.73,1.48-10.36,1.54-10.35-1.22,10.39-1.3,10.39-2.7,20.74-2.84,20.73C104.28,406.51,103.29,413.41,102.24,420.31Z"/><path class="cls-16" d="M78.62,368.62c3.79,1.47,11,3.38,21.83,2.74A2.32,2.32,0,0,1,102.9,374l-1.1,7.66a2.32,2.32,0,0,1-1.45,1.84l-1.08.42L97.1,398.59a2.31,2.31,0,0,1-1.45,1.83c-2.58,1-9.16,2.36-20.49-2.23a2.35,2.35,0,0,1-1.44-2.49l2.22-15.56-.29-.09a2.32,2.32,0,0,1-1.54-2.83,42.73,42.73,0,0,0,1.39-6.66A2.31,2.31,0,0,1,78.62,368.62Z"/><path class="cls-18" d="M75.65,380.05s6.81,6.73,23.62,3.87C99.27,383.92,79.53,383.47,75.65,380.05Z"/><polygon class="cls-18" points="79.07 385.27 77.51 394.6 82.98 395.91 84.41 386.13 79.07 385.27"/><polygon class="cls-18" points="89.87 387.62 88.31 396.95 93.78 398.25 95.22 388.48 89.87 387.62"/><ellipse class="cls-18" cx="87.21" cy="379.16" rx="1.89" ry="2.28"/><path class="cls-18" d="M130.74,381.93l-4,.89S128.5,383.83,130.74,381.93Z"/><path class="cls-21" d="M93.25,184.9a.94.94,0,0,1-.43.72,1.1,1.1,0,0,1-.87.07,4.49,4.49,0,0,1-1.48-.86,3.86,3.86,0,0,1-1-1.4,3,3,0,0,1-.19-1.8,1.92,1.92,0,0,1,.45-.84,1.1,1.1,0,0,1,.94-.36,1.62,1.62,0,0,1,.85.44,3.61,3.61,0,0,1,.57.67,3.92,3.92,0,0,1,.63,1.62,1.06,1.06,0,0,1-.18.87.41.41,0,0,1-.45,0,1.61,1.61,0,0,1-.34-.24,1.76,1.76,0,0,0,.37.17.32.32,0,0,0,.32-.06.91.91,0,0,0,0-.73,3.57,3.57,0,0,0-.7-1.42c-.32-.39-.74-.82-1.15-.85s-.74.36-.84.83a3.07,3.07,0,0,0,1,2.76,4.25,4.25,0,0,0,1.29.92.93.93,0,0,0,.73.05A1,1,0,0,0,93.25,184.9Z"/><path class="cls-21" d="M92.53,182.89c-.23-.28-.6-.59-.8-.38a.79.79,0,0,0-.17.84,2.08,2.08,0,0,0,.6.82,1.39,1.39,0,0,0,1,.41.85.85,0,0,1-.59.08,1.7,1.7,0,0,1-.56-.23,1.83,1.83,0,0,1-.78-1,1,1,0,0,1,.38-1.21.45.45,0,0,1,.36,0,.6.6,0,0,1,.28.17A1.3,1.3,0,0,1,92.53,182.89Z"/><path class="cls-27" d="M405.54,204.69a20,20,0,0,1,5.61,17.4l-10.38-3.2S388.33,214.92,405.54,204.69Z"/><path class="cls-16" d="M367.92,460.79s-1.64,10.57-8.21,14.69-14.5,7.94-9.77,15.88,25.65,2.44,25.65,2.44l20.15-28.7-7.1-12.32Z"/><path class="cls-18" d="M353.49,308.64s-12.25,70.3-12.36,75.56-3,15,1.14,23.24,25.65,53.35,25.65,53.35,12.59,4.58,20.72-8c0,0-20.95-51.29-20.95-52.32S381.2,371.15,381.2,362c0,0,4.46,31.6,5.15,49.34s3.78,58.16,3.78,58.16,12.7,8.93,21.29,0c0,0,2.48-96.28,2.18-113.83s-.48-43.05-.48-43.05Z"/><path class="cls-16" d="M352.37,329s10.4-6.65,7.08-16.84l-6-.65S353,323.79,352.37,329Z"/><polygon class="cls-16" points="372.27 314.43 372.27 332.23 376.73 332.23 376.73 313.68 372.27 314.43"/><path class="cls-16" d="M400,313.68s-1.57,13.28,13.3,16.37l-.13-15.45Z"/><path class="cls-19" d="M348.6,228.05a173,173,0,0,0-16.29,28.85l23.36,17.63s-.23,15.8-2.75,22.44-4.81,18,12.36,18.94,42.82,2.12,47.86-1.31c0,0-.43-19.37,2.29-20.84,0,0,9.61,1.11,10.3-33,.41-20.21,1.65-29.21-14.58-38.7C411.15,222.09,366.8,202.84,348.6,228.05Z"/><path class="cls-20" d="M379.5,213.43a35.76,35.76,0,0,0-14.44,5.29l12.21,19.51,31.45-11.63c1.38-5.45-4-7.57-9.66-10Z"/><path class="cls-20" d="M419.66,293.42s4.93-1.76,5.38-9.64c0,0-2.83-8.11-21.11-10.86l-.87,11.68Z"/><path class="cls-21" d="M380.62,207.52s-.91,5.57-2.36,6.64-3,5.34-1,24a123.82,123.82,0,0,1,22.21-16.67,2.21,2.21,0,0,0,.47-3.48,3.13,3.13,0,0,1-1-2.47c.15-3.21.85-10.28.85-10.28s9.6-11.75-.17-8.85S380.62,207.52,380.62,207.52Z"/><path class="cls-22" d="M374,178.82s-.7,9.34-1,14.11c-.38,5.5.05,15,6.81,17s15.75-2.38,20.37-9.24c0,0,11.07.92,8.09-11.33S374,178.82,374,178.82Z"/><path class="cls-17" d="M399.09,185.15,398.37,196s4.08-6.18,6.37-2.17-4.62,6.86-4.62,6.86l-.72,10.42s11.75-8.32,14.42-17.28C413.82,193.82,410.39,184.85,399.09,185.15Z"/><path class="cls-20" d="M374,174.81s-8.35,1.95-1.48,5.61,29.76,6.18,29.76,6.18l11.56,7.22a44.23,44.23,0,0,0,2.7-7.44S387.49,167.49,374,174.81Z"/><path class="cls-19" d="M374,174.81s2.41-14.19,17.41-16,31,10.66,26.5,28.85C417.89,187.63,380.51,181,374,174.81Z"/><path class="cls-20" d="M357,240c-.54,1.83-1.2,3.61-1.91,5.36s-1.45,3.49-2.23,5.22-1.61,3.41-2.5,5.09-1.79,3.33-2.82,4.94c.55-1.83,1.21-3.61,1.91-5.36s1.46-3.49,2.24-5.21,1.61-3.42,2.49-5.09S355.93,241.56,357,240Z"/><path class="cls-25" d="M319.88,227a1.42,1.42,0,0,1,2.24-.9l4,11.22h-2.4Z"/><polygon class="cls-28" points="358.81 272.98 335.8 233.6 298.37 233.6 319.78 275.38 358.81 272.98"/><path class="cls-20" d="M377.27,238.2c-1,6.48-1.91,13-2.76,19.47s-1.58,13-2.16,19.52-1,13.05-1.09,19.58c0,3.27,0,6.54.22,9.8a65.32,65.32,0,0,0,1.22,9.74c-1.83-6.33-2.29-13-2.44-19.53-.07-3.29,0-6.58.15-9.87s.39-6.56.66-9.83q.9-9.82,2.45-19.55C374.54,251,375.77,244.59,377.27,238.2Z"/><polygon class="cls-18" points="358.19 273.61 335.18 234.23 297.74 234.23 319.15 276.01 358.19 273.61"/><path class="cls-22" d="M403.06,282.69s-14.77.42-24.27-3.47-12.93-8.24-17.17-8.13c-3.56.1-10.18-1.1-12.21-1.48a.64.64,0,0,0-.76.54c-.16,1.07,0,3.08,2.78,3.58,0,0-1.72,3.09,1.38,3.43,0,0-1.66,2.93.83,4.2a2.88,2.88,0,0,0,2.26,3.58,79,79,0,0,0,11.22,2.52c4.35.46,21.29,8.36,32.39,9.51s17.06,2.51,20.15-3.55C419.66,293.42,407.76,284.45,403.06,282.69Z"/><path class="cls-20" d="M403.06,282.69a87.41,87.41,0,0,1,.2-9c.2-3,.52-6,.94-9s1-5.94,1.7-8.87a54.74,54.74,0,0,1,2.82-8.57c-.7,2.93-1.29,5.85-1.83,8.78-.24,1.48-.53,2.94-.74,4.42s-.46,2.95-.67,4.42c-.45,3-.82,5.92-1.22,8.88S403.49,279.72,403.06,282.69Z"/><polygon class="cls-20" points="386.31 250.01 397.75 248.71 398.37 257.56 393.94 263.97 386.31 259.24 386.31 250.01"/><polygon class="cls-20" points="358.88 246.42 369.16 247.66 367.86 255.53 362.66 260.22 356.96 254.5 358.88 246.42"/><path class="cls-16" d="M390.13,469.49s-4.12,9.05-10.88,10.76-16.26,8.82-12.13,16.37,16,5.61,24.61,2.41,20.84-3.32,20.84-3.32v-25a1.25,1.25,0,0,0-1.53-1.22C406.88,470.47,395.25,473,390.13,469.49Z"/><path class="cls-21" d="M351.43,273.73a19.69,19.69,0,0,1,3.08.4l1.43.25c.48.08,1,.13,1.56.22a3,3,0,0,1-1.52.79,4.68,4.68,0,0,1-1.71,0,5.47,5.47,0,0,1-1.57-.57A3.92,3.92,0,0,1,351.43,273.73Z"/><path class="cls-21" d="M352.75,277.24a6.51,6.51,0,0,1,1.25,0,9.06,9.06,0,0,1,1.08.15c.35.06.69.13,1,.22s.71.16,1.18.29a2.06,2.06,0,0,1-1.14.72,3.05,3.05,0,0,1-1.31,0,3.41,3.41,0,0,1-1.19-.47A2.45,2.45,0,0,1,352.75,277.24Z"/><path class="cls-21" d="M353.64,281.36a5,5,0,0,1,1.09,0,6,6,0,0,1,.91.15c.29.06.56.13.85.22l1,.29a1.64,1.64,0,0,1-1,.72,2.44,2.44,0,0,1-1.17,0,2.74,2.74,0,0,1-1-.48A2,2,0,0,1,353.64,281.36Z"/><path class="cls-17" d="M337.33,237.82a.5.5,0,0,1-.34-.13.49.49,0,0,1,0-.7c.36-.4.81-1.15.66-1.51s-.8-.49-1.77-.49a.5.5,0,0,1,0-1h0c1.48,0,2.35.36,2.67,1.09.48,1.11-.7,2.44-.83,2.58A.5.5,0,0,1,337.33,237.82Z"/><path class="cls-17" d="M340,242a.56.56,0,0,1-.32-.11.52.52,0,0,1-.07-.71c.34-.41.75-1.18.57-1.54s-.82-.43-1.79-.38a.5.5,0,0,1-.06-1c1.48-.08,2.38.22,2.74.93.55,1.08-.56,2.47-.68,2.63A.51.51,0,0,1,340,242Z"/><path class="cls-17" d="M342.86,246.72a.47.47,0,0,1-.32-.12.51.51,0,0,1-.06-.71c.34-.4.77-1.17.6-1.53s-.81-.45-1.78-.42a.53.53,0,0,1-.52-.48.5.5,0,0,1,.48-.52c1.49,0,2.37.27,2.72,1,.52,1.08-.61,2.46-.74,2.61A.49.49,0,0,1,342.86,246.72Z"/><path class="cls-17" d="M346.09,251.87a.49.49,0,0,1-.28-.09.5.5,0,0,1-.13-.7c.3-.44.64-1.24.43-1.58s-.85-.37-1.81-.24a.5.5,0,0,1-.57-.42.51.51,0,0,1,.43-.57c1.47-.2,2.38,0,2.8.7.64,1-.34,2.51-.46,2.68A.49.49,0,0,1,346.09,251.87Z"/><path class="cls-17" d="M348.93,256.51a.5.5,0,0,1-.29-.09.49.49,0,0,1-.11-.7c.31-.43.68-1.22.48-1.57s-.85-.39-1.81-.29a.5.5,0,0,1-.55-.44.5.5,0,0,1,.44-.55c1.48-.17,2.39.09,2.79.78.6,1-.43,2.5-.55,2.66A.49.49,0,0,1,348.93,256.51Z"/><path class="cls-17" d="M351.76,261.18a.55.55,0,0,1-.3-.09.51.51,0,0,1-.11-.7c.32-.43.69-1.23.49-1.57s-.84-.4-1.81-.29a.5.5,0,0,1-.11-1c1.48-.17,2.39.09,2.78.78.61,1.05-.42,2.5-.54,2.66A.51.51,0,0,1,351.76,261.18Z"/><path class="cls-17" d="M354.31,265.83a.47.47,0,0,1-.3-.1.51.51,0,0,1-.1-.7c.33-.42.72-1.21.52-1.56s-.83-.42-1.79-.33a.51.51,0,0,1-.54-.46.49.49,0,0,1,.45-.54c1.48-.13,2.38.16,2.76.85.58,1.06-.48,2.49-.6,2.65A.5.5,0,0,1,354.31,265.83Z"/><path class="cls-17" d="M356.83,270.09a.54.54,0,0,1-.32-.11.51.51,0,0,1-.07-.71c.33-.41.73-1.19.55-1.54s-.82-.44-1.79-.38a.5.5,0,0,1-.53-.46.49.49,0,0,1,.47-.53c1.47-.1,2.37.2,2.74.91.55,1.07-.54,2.47-.67,2.63A.49.49,0,0,1,356.83,270.09Z"/><path class="cls-16" d="M381.2,362a28.06,28.06,0,0,1-1.07-4.41,28.35,28.35,0,0,1-.42-4.52A32.2,32.2,0,0,1,381.2,362Z"/><path class="cls-16" d="M369.86,345.74a7.51,7.51,0,0,0,1.21,1.7,10,10,0,0,0,.71.75l.78.69a18.4,18.4,0,0,0,3.5,2.2,32.5,32.5,0,0,0,3.85,1.6l2,.62c.68.19,1.36.35,2,.56-.7-.06-1.4-.17-2.1-.26s-1.38-.29-2.08-.45a21.31,21.31,0,0,1-4-1.49,14.68,14.68,0,0,1-3.54-2.41A8.62,8.62,0,0,1,369.86,345.74Z"/><path class="cls-29" d="M387.58,189.38a1.78,1.78,0,0,1,.69-1.34,1.94,1.94,0,0,1,1.67-.35,2.24,2.24,0,0,1,1.29.94,3.71,3.71,0,0,1,.3.68,3,3,0,0,1,.06.74,4.27,4.27,0,0,1-.66-.27c-.19-.1-.39-.17-.54-.26a6.38,6.38,0,0,0-.83-.32,2.42,2.42,0,0,0-.76-.07A10.19,10.19,0,0,0,387.58,189.38Z"/><path class="cls-29" d="M376.11,186.92a1.76,1.76,0,0,1,.69-1.34,1.94,1.94,0,0,1,1.67-.35,2.28,2.28,0,0,1,1.29.94,3.88,3.88,0,0,1,.29.67,2.69,2.69,0,0,1,.07.75,4.89,4.89,0,0,1-.67-.27c-.19-.1-.38-.17-.53-.26a6.38,6.38,0,0,0-.83-.32,2.42,2.42,0,0,0-.76-.07A9.81,9.81,0,0,0,376.11,186.92Z"/><ellipse class="cls-29" cx="388.75" cy="193.51" rx="1.38" ry="1.09" transform="matrix(0.34, -0.94, 0.94, 0.34, 73.34, 491.99)"/><ellipse class="cls-29" cx="377.07" cy="190.56" rx="1.38" ry="1.09" transform="translate(68.44 479.09) rotate(-69.88)"/><path class="cls-26" d="M385.69,203.19c-1-1.35-8.73-1.69-8.64-.76a5.77,5.77,0,0,0,4.08,3.42C383.48,206.13,386.28,204,385.69,203.19Z"/><path class="cls-21" d="M381.5,192.76A17.13,17.13,0,0,1,381,196a3.72,3.72,0,0,0-.09.61,1.47,1.47,0,0,0,0,.28l0,.31a4.21,4.21,0,0,0,.09.62l.25.85a1.68,1.68,0,0,1-1-.23,1.89,1.89,0,0,1-.72-.81,2.34,2.34,0,0,1-.16-.49,1.91,1.91,0,0,1-.07-.54,3.75,3.75,0,0,1,.2-1,6.88,6.88,0,0,1,.8-1.55A5.92,5.92,0,0,1,381.5,192.76Z"/><path class="cls-29" d="M388.49,192.3a2,2,0,0,1,1.26.1,1.92,1.92,0,0,1,1,.81,1.9,1.9,0,0,1-1.26-.09A2,2,0,0,1,388.49,192.3Z"/><path class="cls-29" d="M375.52,189.32a1.94,1.94,0,0,1,1.24-.23,1.91,1.91,0,0,1,1.15.54,2.06,2.06,0,0,1-2.39-.31Z"/><path class="cls-21" d="M399.79,198.05a1,1,0,0,0,.41.7,1.12,1.12,0,0,0,.84.07,4.43,4.43,0,0,0,1.44-.84,3.8,3.8,0,0,0,1-1.35,3,3,0,0,0,.18-1.74,1.86,1.86,0,0,0-.43-.82,1.05,1.05,0,0,0-.92-.34,1.5,1.5,0,0,0-.82.42,3.44,3.44,0,0,0-.55.65,3.83,3.83,0,0,0-.61,1.56,1,1,0,0,0,.17.85.4.4,0,0,0,.43,0,1.39,1.39,0,0,0,.34-.24,2,2,0,0,1-.36.17.3.3,0,0,1-.31-.06.87.87,0,0,1,0-.71,3.4,3.4,0,0,1,.68-1.37,2,2,0,0,1,1.11-.83c.39,0,.72.35.81.81a3,3,0,0,1-1,2.68,4.29,4.29,0,0,1-1.24.89.92.92,0,0,1-.71,0A.91.91,0,0,1,399.79,198.05Z"/><path class="cls-21" d="M400.48,196.1c.23-.26.59-.56.78-.37a.76.76,0,0,1,.16.82,1.85,1.85,0,0,1-.58.79,1.3,1.3,0,0,1-.93.4.83.83,0,0,0,.56.08,1.71,1.71,0,0,0,.54-.22,1.76,1.76,0,0,0,.76-.93,1,1,0,0,0-.36-1.18.53.53,0,0,0-.35-.05.7.7,0,0,0-.28.17A1.58,1.58,0,0,0,400.48,196.1Z"/><path class="cls-30" d="M450.45,55.73a6.15,6.15,0,1,1,6.15-6.15,6.15,6.15,0,0,1-6.15,6.15M452.23,33h-3.56a2,2,0,0,0-1.92,1.64l-.45,2.83a13,13,0,0,0-1.49.62l-2.32-1.69a1.94,1.94,0,0,0-2.51.2l-2.52,2.52a1.93,1.93,0,0,0-.2,2.51L439,43.94a13,13,0,0,0-.62,1.49l-2.83.45a2,2,0,0,0-1.64,1.92v3.56a2,2,0,0,0,1.64,1.92l2.83.44a13,13,0,0,0,.62,1.49l-1.69,2.32a2,2,0,0,0,.2,2.52L440,62.56a1.94,1.94,0,0,0,2.51.2l2.32-1.68a12.93,12.93,0,0,0,1.49.61l.45,2.83a1.94,1.94,0,0,0,1.92,1.64h3.56a1.93,1.93,0,0,0,1.91-1.64l.45-2.83a12.93,12.93,0,0,0,1.49-.61l2.32,1.68a1.92,1.92,0,0,0,1.14.37,2,2,0,0,0,1.38-.57l2.51-2.51a2,2,0,0,0,.2-2.52l-1.69-2.32a11.41,11.41,0,0,0,.62-1.49l2.83-.44A1.94,1.94,0,0,0,467,51.36V47.8a1.94,1.94,0,0,0-1.64-1.92l-2.83-.45a11.41,11.41,0,0,0-.62-1.49l1.69-2.32a1.93,1.93,0,0,0-.2-2.51l-2.51-2.52a2,2,0,0,0-1.38-.57,1.92,1.92,0,0,0-1.14.37l-2.32,1.69a13,13,0,0,0-1.49-.62l-.45-2.83A1.94,1.94,0,0,0,452.23,33"/><path class="cls-31" d="M408.87,89.24a5.61,5.61,0,1,1,5.2-3.5,5.58,5.58,0,0,1-5.2,3.5m3.52-20.37a1.76,1.76,0,0,0-1.52.86L409.52,72c-.22,0-.45,0-.67,0s-.54,0-.8,0l-1.38-2.22a1.78,1.78,0,0,0-1.51-.84,1.7,1.7,0,0,0-.69.14l-3,1.26a1.78,1.78,0,0,0-1,2.06l.63,2.54a12.76,12.76,0,0,0-1,1l-2.55-.59a1.37,1.37,0,0,0-.4,0,1.76,1.76,0,0,0-1.64,1.1l-1.22,3a1.78,1.78,0,0,0,.72,2.19L397.2,83a14.42,14.42,0,0,0,0,1.47L395,85.83A1.76,1.76,0,0,0,394.3,88l1.26,3a1.79,1.79,0,0,0,1.63,1.08,2.1,2.1,0,0,0,.43,0l2.54-.63a11.38,11.38,0,0,0,1,1l-.6,2.55a1.77,1.77,0,0,0,1.06,2l3,1.22a1.74,1.74,0,0,0,.67.13,1.78,1.78,0,0,0,1.52-.86l1.35-2.24c.22,0,.44,0,.66,0s.54,0,.81,0l1.38,2.22a1.76,1.76,0,0,0,1.5.84,1.85,1.85,0,0,0,.69-.14l3-1.26a1.77,1.77,0,0,0,1-2.06l-.63-2.54a12.88,12.88,0,0,0,1-1l2.54.59a1.44,1.44,0,0,0,.41.05,1.79,1.79,0,0,0,1.64-1.11l1.22-3a1.77,1.77,0,0,0-.73-2.19l-2.24-1.35a10.3,10.3,0,0,0,0-1.47l2.22-1.38a1.78,1.78,0,0,0,.7-2.2l-1.27-3a1.78,1.78,0,0,0-1.63-1.08,2.18,2.18,0,0,0-.43,0l-2.53.63a12.76,12.76,0,0,0-1.05-1l.59-2.55a1.76,1.76,0,0,0-1.06-2l-3-1.22a1.69,1.69,0,0,0-.66-.13"/><path class="cls-30" d="M370.2,40h0a10.33,10.33,0,1,1,7.31-3,10.34,10.34,0,0,1-7.31,3m0-21.66a11.33,11.33,0,1,0,0,22.66h0a11.33,11.33,0,0,0,0-22.66m-10-8.34.27-.13a20.7,20.7,0,0,1,2.57-1.06l.28-.1.84-5.28A2.91,2.91,0,0,1,367.07,1h6.27a2.91,2.91,0,0,1,2.88,2.47l.84,5.28.28.1a20.7,20.7,0,0,1,2.57,1.06l.27.13L384.5,6.9a2.9,2.9,0,0,1,1.72-.56,3,3,0,0,1,2.07.85l4.43,4.43a3,3,0,0,1,.85,2.07,2.9,2.9,0,0,1-.56,1.72l-3.14,4.32L390,20a20.7,20.7,0,0,1,1.06,2.57l.1.28,5.28.84h0a2.92,2.92,0,0,1,2.47,2.88v6.27a2.91,2.91,0,0,1-2.47,2.88l-5.28.84-.1.28A20.7,20.7,0,0,1,390,39.41l-.13.27L393,44a2.9,2.9,0,0,1,.56,1.72,3,3,0,0,1-.85,2.07l-4.43,4.43a3,3,0,0,1-3.79.3l-4.32-3.15-.27.13a20.7,20.7,0,0,1-2.57,1.06l-.28.1-.84,5.28a2.91,2.91,0,0,1-2.88,2.47h-6.27a2.91,2.91,0,0,1-2.88-2.47l-.84-5.28-.28-.1a20.7,20.7,0,0,1-2.57-1.06l-.27-.13-4.32,3.15a3,3,0,0,1-1.72.55,2.91,2.91,0,0,1-2.07-.85l-4.43-4.43a3,3,0,0,1-.3-3.79l3.15-4.32-.13-.27a20.7,20.7,0,0,1-1.06-2.57l-.1-.28L344,35.72a2.91,2.91,0,0,1-2.47-2.88V26.57A2.92,2.92,0,0,1,344,23.69l5.28-.84.1-.28A21.36,21.36,0,0,1,350.41,20l.13-.27-3.15-4.32a3,3,0,0,1,.3-3.79l4.43-4.43a3,3,0,0,1,2.07-.85,2.9,2.9,0,0,1,1.72.56L360.23,10M373.34,0h-6.27a3.91,3.91,0,0,0-3.87,3.31L362.46,8a22.15,22.15,0,0,0-2.13.88l-3.84-2.79a3.86,3.86,0,0,0-2.3-.75h0a3.89,3.89,0,0,0-2.77,1.15L347,10.92a3.93,3.93,0,0,0-.39,5.08l2.79,3.83A22.15,22.15,0,0,0,348.5,22l-4.69.74a3.91,3.91,0,0,0-3.31,3.87v6.27a3.91,3.91,0,0,0,3.31,3.87l4.69.74a22.15,22.15,0,0,0,.88,2.13l-2.79,3.84a3.86,3.86,0,0,0-.75,2.3A3.94,3.94,0,0,0,347,48.49l4.44,4.44a3.92,3.92,0,0,0,2.77,1.14h0a3.86,3.86,0,0,0,2.3-.75l3.84-2.79a22.15,22.15,0,0,0,2.13.88l.74,4.69a3.91,3.91,0,0,0,3.87,3.31h6.27a3.91,3.91,0,0,0,3.87-3.31l.74-4.69a22.15,22.15,0,0,0,2.13-.88l3.83,2.79a3.91,3.91,0,0,0,2.31.75h0A3.94,3.94,0,0,0,389,52.93l4.44-4.44a3.92,3.92,0,0,0,1.14-2.77,3.86,3.86,0,0,0-.75-2.3L391,39.58a22.15,22.15,0,0,0,.88-2.13l4.69-.74a3.91,3.91,0,0,0,3.31-3.87V26.57a3.91,3.91,0,0,0-3.31-3.87l-.08.49.08-.49L391.91,22a22.15,22.15,0,0,0-.88-2.13L393.82,16a3.92,3.92,0,0,0-.4-5.08L389,6.49a3.89,3.89,0,0,0-2.77-1.15h0a3.91,3.91,0,0,0-2.31.75l-3.83,2.79A22.15,22.15,0,0,0,378,8l-.74-4.69A3.91,3.91,0,0,0,373.34,0"/></g></g></svg>