<svg xmlns="http://www.w3.org/2000/svg" viewBox="0 0 964.36 678.57"><defs><style>.cls-1{fill:#f7a54c;}.cls-2{fill:#f77e29;}.cls-3{fill:#febd75;}.cls-36,.cls-4{fill:#fff;}.cls-5{fill:#f79737;}.cls-6{fill:#f48b2c;}.cls-7{fill:#f47d1c;}.cls-8{fill:#f9b067;}.cls-9{fill:#fcb97c;}.cls-10{fill:#f4722a;}.cls-11{fill:#ef6520;}.cls-12{fill:#ed5221;}.cls-13{fill:#fcad77;}.cls-14{fill:#f99c78;}.cls-15{fill:#f78d79;}.cls-16{fill:#b32c24;}.cls-17{fill:#ad1f1c;}.cls-18{fill:#a01c1c;}.cls-19{fill:#8e1a1a;}.cls-20{fill:#ee281d;}.cls-21{fill:#e21b17;}.cls-22{fill:#d31616;}.cls-23{fill:#c11010;}.cls-24{fill:#d61616;}.cls-25{fill:#c41616;}.cls-26{fill:#f57e77;}.cls-27{fill:#facd74;}.cls-28{fill:#f1534a;}.cls-29{fill:#ea433f;}.cls-30{fill:#dd3636;}.cls-31{fill:#cc2929;}.cls-32{fill:#f76e11;}.cls-33{fill:#f45914;}.cls-34{fill:#f24416;}.cls-35{fill:#fbd589;}.cls-36{opacity:0.4;}.cls-37{opacity:0.5;}.cls-38{fill:none;stroke:#fff;stroke-linecap:round;stroke-miterlimit:10;stroke-width:10px;}.cls-39{fill:#231f20;}.cls-40{fill:#fadea1;}.cls-41{fill:#f2642c;}.cls-42{fill:#ef522e;}.cls-43{fill:#f4944d;}.cls-44{fill:#f2854e;}.cls-45{fill:#ef7550;}.cls-46{fill:#fcb077;}.cls-47{fill:#f9a678;}.cls-48{fill:#f79479;}.cls-49{fill:#feca91;}.cls-50{fill:#f4b04d;}.cls-51{fill:#f2bf4e;}.cls-52{fill:#efc550;}.cls-53{fill:#fed7ac;}.cls-54{fill:#ffe5c8;}.cls-55{fill:#ca3413;}.cls-56{fill:#d55d42;}.cls-57{fill:#df8571;}.cls-58{fill:#98270e;}.cls-59{fill:#651a0a;}.cls-60{fill:#a11919;}.cls-61{fill:#ff635f;}</style></defs><g id="Layer_2" data-name="Layer 2"><g id="Layer_1-2" data-name="Layer 1"><path class="cls-1" d="M448.59,156.38l.08.12,2.21,3.49,1.43,2.24,1.4,2.2a21.46,21.46,0,0,1-8.51,3.95c-2.8.79-5.48,1.54-8.2,4h0a18.85,18.85,0,0,0-2.3,2.49,16.82,16.82,0,0,0-3,5.54,23.26,23.26,0,0,0-.78,6.22v.05a31.09,31.09,0,0,1-.42,4.9,18.48,18.48,0,0,1-3.9,8.32c-.54.69-1.08,1.3-1.61,1.86a17.3,17.3,0,0,1-5.11,3.74,29.42,29.42,0,0,1-5.11,1.79l-1,.3c-.5.15-1,.3-1.5.47a15.8,15.8,0,0,0-8,5.72c-.45.58-.84,1.13-1.19,1.68-.74.12-1.48.23-2.22.31l-1,.12-.34,0c-1.36.13-2.72.21-4.09.24h-1.69a48,48,0,0,1-19-4.09c-.9-.41-1.8-.84-2.68-1.31a45,45,0,0,1-4.2-2.53l13.83-8.88,5.65-3.63.17-.11,28.77-18.49,7-4.48,2.44-1.56,5.4-3.47L441.39,161Z"/><polygon class="cls-2" points="433.8 148.93 435.25 151.25 436.94 153.94 441.39 161 430.02 168.31 424.51 171.85 387.53 195.61 383.74 181.11 433.8 148.93"/><polygon class="cls-1" points="427.71 150.45 430.98 148.35 422.17 134.64 419.81 138.16 427.71 150.45"/><rect class="cls-1" x="425.36" y="145.49" width="3.89" height="6.72" transform="translate(321.59 -291.11) rotate(57.28)"/><polygon class="cls-3" points="420.5 140.49 422.15 143.11 423.88 145.86 428.1 152.56 419.76 157.91 416.25 160.17 389.2 177.55 385.41 163.05 420.5 140.49"/><circle class="cls-4" cx="420.84" cy="166.46" r="3.64"/><circle class="cls-4" cx="410.53" cy="173.09" r="3.64"/><circle class="cls-4" cx="404.86" cy="159.87" r="2.54"/><circle class="cls-4" cx="395.67" cy="165.77" r="2.54"/><circle class="cls-4" cx="414.32" cy="153.79" r="2.54"/><circle class="cls-4" cx="400.21" cy="179.71" r="3.64"/><path class="cls-5" d="M448.59,156.38l.08.12,2.21,3.49,1.43,2.24,1.4,2.2a21.46,21.46,0,0,1-8.51,3.95c-2.8.79-5.48,1.54-8.2,4h0a18.85,18.85,0,0,0-2.3,2.49,16.82,16.82,0,0,0-3,5.54,23.26,23.26,0,0,0-.78,6.22v.05a31.09,31.09,0,0,1-.42,4.9,18.48,18.48,0,0,1-3.9,8.32c-.54.69-1.08,1.3-1.61,1.86a17.3,17.3,0,0,1-5.11,3.74,29.42,29.42,0,0,1-5.11,1.79l-1,.3c-.5.15-1,.3-1.5.47a15.8,15.8,0,0,0-8,5.72c-.45.58-.84,1.13-1.19,1.68-.74.12-1.48.23-2.22.31l-1,.12-.34,0c-1.36.13-2.72.21-4.09.24h-1.69c5.77-6.61,17.22-21.28,22.56-39l7-4.48,2.44-1.56,5.4-3.47L441.39,161Z"/><path class="cls-6" d="M448.59,156.38l.08.12,2.21,3.49,1.43,2.24,1.4,2.2a21.46,21.46,0,0,1-8.51,3.95c-2.8.79-5.48,1.54-8.2,4h0a18.85,18.85,0,0,0-2.3,2.49,16.82,16.82,0,0,0-3,5.54,23.26,23.26,0,0,0-.78,6.22v.05a31.09,31.09,0,0,1-.42,4.9,18.48,18.48,0,0,1-3.9,8.32c-.54.69-1.08,1.3-1.61,1.86a17.3,17.3,0,0,1-5.11,3.74,29.42,29.42,0,0,1-5.11,1.79l-1,.3c-.5.15-1,.3-1.5.47a15.8,15.8,0,0,0-8,5.72c-.45.58-.84,1.13-1.19,1.68-.74.12-1.48.23-2.22.31l-1,.12-.34,0c6.19-7.07,19.08-23.6,23.75-43.28l2.44-1.56,5.4-3.47L441.39,161Z"/><path class="cls-7" d="M448.59,156.38l.08.12,2.21,3.49,1.43,2.24,1.4,2.2a21.46,21.46,0,0,1-8.51,3.95c-2.8.79-5.48,1.54-8.2,4h0a18.85,18.85,0,0,0-2.3,2.49,16.82,16.82,0,0,0-3,5.54,23.26,23.26,0,0,0-.78,6.22v.05a31.09,31.09,0,0,1-.42,4.9,18.48,18.48,0,0,1-3.9,8.32c-.54.69-1.08,1.3-1.61,1.86a17.3,17.3,0,0,1-5.11,3.74,29.42,29.42,0,0,1-5.11,1.79l-1,.3c-.5.15-1,.3-1.5.47,7.06-9.38,16.07-24,18.89-40.45L441.39,161Z"/><path class="cls-8" d="M387.36,195.72c-2.64,6-8.64,12.46-12.6,16.35a44.66,44.66,0,0,1-6.88-3.84Z"/><path class="cls-9" d="M381.71,199.35a75.78,75.78,0,0,1-9.63,11.41,45,45,0,0,1-4.2-2.53Z"/><path class="cls-10" d="M433.8,148.94s-4.88,18.54-17.5,28.18L441.39,161Z"/><path class="cls-11" d="M435.25,151.26l1.69,2.68,4.45,7.06L430,168.31l-5.51,3.54A65.5,65.5,0,0,0,435.25,151.26Z"/><path class="cls-12" d="M436.94,153.94l4.45,7.06L430,168.31A67.81,67.81,0,0,0,436.94,153.94Z"/><path class="cls-13" d="M420.5,140.49s1.17,10.42-7.92,22l15.52-10Z"/><path class="cls-14" d="M422.15,143.11l6,9.45-11.85,7.61A33.92,33.92,0,0,0,422.15,143.11Z"/><path class="cls-15" d="M423.88,145.86l4.22,6.7-8.34,5.35A34.14,34.14,0,0,0,423.88,145.86Z"/><path class="cls-16" d="M434.35,195.11a28.78,28.78,0,0,1-5.77,8.44,50,50,0,0,1-7.57,6.23,2,2,0,0,1-2.43-3.16l.08-.07a45.92,45.92,0,0,0,6.35-6.18,24,24,0,0,0,4.15-7.25,14,14,0,0,0,.45-7.6,14.85,14.85,0,0,0-3.59-6.66c-3.54-4-8.74-6.57-14.14-8.22a57.57,57.57,0,0,0-17-2.25,81.28,81.28,0,0,0-27,5.22c-2.29.84-4.55,1.77-6.76,2.79a110.57,110.57,0,0,0-25.84,16.87c-1,.89-2,1.79-3.06,2.71a143.37,143.37,0,0,0-12.14,12.74,170.37,170.37,0,0,0-10.62,14.1A211.76,211.76,0,0,0,294.23,250c-.61,1.31-1.22,2.64-1.81,4-9.61,21.78-16.18,45-20.7,68.61-2.22,11.8-4,23.85-5.39,35.79-.17,1.48-.33,2.95-.47,4.43-1.08,10.46-1.75,20.9-1.9,31.23a262.87,262.87,0,0,0,1,27.77c.22,2.33.46,4.65.75,7a159.22,159.22,0,0,0,6.34,29c.35,1.07.71,2.12,1.09,3.16a90.82,90.82,0,0,0,14.41,26.52A68.23,68.23,0,0,0,309,505.14l1,.49a77,77,0,0,0,12,4.8c1.06.32,2.14.61,3.22.89,1.24.32,2.49.61,3.75.88q3.54.75,7.19,1.22c1,.13,2,.24,3,.33,2.41.24,4.85.38,7.29.43,1.51,0,3,0,4.53,0,2.48-.05,4.95-.19,7.36-.43,1.2-.11,2.38-.25,3.5-.42l1.1-.16.51-.09.71-.13.27-.07.07,0h0a26.38,26.38,0,0,1,6.44-.26,52.25,52.25,0,0,0-5.28,3.54c-5,3.63-10.09,7.38-20.3,7.38h-.05a35.45,35.45,0,0,1-5.95-.5,26.7,26.7,0,0,1-5.81-1.69c-.68-.29-1.34-.6-2-.94a50.88,50.88,0,0,1-6.52-4.25c-4.64-3.4-9-6.62-17.93-6.62s-13.29,3.22-17.93,6.62c-5,3.63-10.08,7.38-20.29,7.38A29.56,29.56,0,0,1,257,521.3q-3-3.79-5.7-7.8c-.14-.2-.27-.4-.4-.61A134.39,134.39,0,0,1,233.45,473a163.5,163.5,0,0,1-3.93-19.25l-.21-1.45c-1-6.88-1.49-13.7-1.85-20.47A290.07,290.07,0,0,1,228.77,392c.1-1,.2-1.94.31-2.9,1.28-12.07,3.19-23.94,5.51-35.65,2.53-12.66,5.48-25.06,8.91-37.51q1.09-3.88,2.26-7.76a334.17,334.17,0,0,1,26.3-64.31,234.09,234.09,0,0,1,21.61-32.67,194.18,194.18,0,0,1,13.13-14.69c2.51-2.48,5.07-4.91,7.72-7.24q3.44-3,7.07-5.87A128,128,0,0,1,356.08,164c.57-.21,1.15-.41,1.72-.6a100.24,100.24,0,0,1,22.17-5,86.05,86.05,0,0,1,15.23-.3,67.21,67.21,0,0,1,19.58,4.31,48.11,48.11,0,0,1,9.07,4.74,32.12,32.12,0,0,1,7.7,7.18,21.59,21.59,0,0,1,4.31,10A20,20,0,0,1,434.35,195.11Z"/><path class="cls-17" d="M345.33,520.52a29.25,29.25,0,0,1-.05,3,29.67,29.67,0,0,1-11.76-2.19,42,42,0,0,1-8.49-5.19c-4.64-3.4-9-6.62-17.93-6.62s-13.29,3.22-17.93,6.62c-5,3.63-10.08,7.38-20.29,7.38A29.56,29.56,0,0,1,257,521.3q-3-3.79-5.7-7.8c-.14-.2-.27-.4-.4-.61A134.39,134.39,0,0,1,233.45,473a168.1,168.1,0,0,1-4.14-20.7c-1-6.88-1.49-13.7-1.85-20.47A290.07,290.07,0,0,1,228.77,392c1.29-13.07,3.31-25.9,5.82-38.55s5.48-25.06,8.91-37.51q1.09-3.88,2.26-7.76c3.51,16.06,9.68,37.09,20.1,54.66-1.08,10.46-1.75,20.9-1.9,31.23a253.28,253.28,0,0,0,1.75,34.73,153.57,153.57,0,0,0,7.43,32.16,90.82,90.82,0,0,0,14.41,26.52A68.23,68.23,0,0,0,309,505.14l1,.49a77,77,0,0,0,12,4.8c1.06.32,2.14.61,3.22.89a91.13,91.13,0,0,0,10.94,2.1,94.55,94.55,0,0,0,10.27.76C345.77,517.75,345.33,520,345.33,520.52Z"/><path class="cls-18" d="M339.33,523a26.7,26.7,0,0,1-5.81-1.69,42,42,0,0,1-8.49-5.19c-4.64-3.4-9-6.62-17.93-6.62s-13.29,3.22-17.93,6.62c-5,3.63-10.08,7.38-20.29,7.38A29.56,29.56,0,0,1,257,521.3q-3-3.79-5.7-7.8c-.14-.2-.27-.4-.4-.61A134.39,134.39,0,0,1,233.45,473a168.1,168.1,0,0,1-4.14-20.7c-1-6.88-1.49-13.7-1.85-20.47A290.07,290.07,0,0,1,228.77,392c.1-1,.2-1.94.31-2.9,9.46,14.08,21.36,26.59,35.88,32.74.22,2.33.46,4.65.75,7a153.57,153.57,0,0,0,7.43,32.16,90.82,90.82,0,0,0,14.41,26.52A68.23,68.23,0,0,0,309,505.14l1,.49a77,77,0,0,0,12,4.8c1.06.32,2.14.61,3.22.89a91.13,91.13,0,0,0,10.94,2.1c1,.13,2,.24,3,.33C339.23,517,339.3,520.13,339.33,523Z"/><path class="cls-19" d="M331.55,520.39a50.88,50.88,0,0,1-6.52-4.25c-4.64-3.4-9-6.62-17.93-6.62s-13.29,3.22-17.93,6.62c-5,3.63-10.08,7.38-20.29,7.38A29.56,29.56,0,0,1,257,521.3q-3-3.79-5.7-7.8c-.14-.2-.27-.4-.4-.61A134.39,134.39,0,0,1,233.45,473a163.5,163.5,0,0,1-3.93-19.25c11.82,5.92,24.7,8.41,38.21,4.88a42.21,42.21,0,0,1,4.32-.91c.35,1.07.71,2.12,1.09,3.16a90.82,90.82,0,0,0,14.41,26.52A68.23,68.23,0,0,0,309,505.14l1,.49a77,77,0,0,0,12,4.8c1.06.32,2.14.61,3.22.89,1.24.32,2.49.61,3.75.88C329.87,515,330.74,517.69,331.55,520.39Z"/><path class="cls-16" d="M613.51,500.46l0,0Z"/><path class="cls-16" d="M698.86,469.45a148.79,148.79,0,0,1-3.92,23.14c-1,3.83-2.1,7.58-3.41,11.39-.18.52-.37,1-.56,1.57-.48,1.32-1,2.64-1.53,4h0c-8.9,0-13.29,3.22-17.94,6.62-5,3.63-10.08,7.38-20.29,7.38A28.2,28.2,0,0,1,635,519c-.67-.42-1.32-.86-2-1.31s-1.43-1-2.13-1.53c-.88-.64-1.75-1.28-2.65-1.89a24.68,24.68,0,0,0-15.28-4.73c-8.91,0-13.29,3.22-17.94,6.62-5,3.63-10.08,7.38-20.3,7.38-1,0-1.89,0-2.77-.1a27,27,0,0,1,41.56-23v0l.13.11.44.3c.33.22.71.45,1.1.69.8.46,1.65.91,2.51,1.33a35.26,35.26,0,0,0,5.08,2,25.6,25.6,0,0,0,4.41.9,15.19,15.19,0,0,0,3.46,0,10.47,10.47,0,0,0,3-.81,14,14,0,0,0,3.31-2,33.64,33.64,0,0,0,7.34-9.14,67.69,67.69,0,0,0,3.35-6.6c1-2.38,2-4.92,2.9-7.43a102.37,102.37,0,0,0,4-15.73,123.67,123.67,0,0,0,.86-33.76,164.48,164.48,0,0,0-4.13-22.9,215.59,215.59,0,0,0-16.81-44.21c-.25-.51-.51-1-.77-1.52a261.1,261.1,0,0,0-19.4-31.85c-1.75-2.45-3.54-4.88-5.37-7.26q-2.94-3.86-6-7.56c-1-1.21-2-2.39-3-3.57l-3.27-3.73c-2.35-2.65-4.62-5.4-6.85-8.18-8.84-11.21-16.83-23.5-22.36-37.5a93.49,93.49,0,0,1-5.86-22.2,68.53,68.53,0,0,1,.94-23.92,55.79,55.79,0,0,1,1.83-6.42,57.64,57.64,0,0,1,8.4-15.77,56.39,56.39,0,0,1,5.57-6.34,62.88,62.88,0,0,1,12.3-9.43,70.63,70.63,0,0,1,10-4.81,79.48,79.48,0,0,1,11.24-3.46,94.69,94.69,0,0,1,21.79-2.29A63,63,0,0,1,645,168.4a41.2,41.2,0,0,1,11.72,4.16,31.74,31.74,0,0,1,5.47,3.89,26.59,26.59,0,0,1,8.76,18,33.2,33.2,0,0,1-1.41,12.35,38.78,38.78,0,0,1-5.21,10.75,33,33,0,0,1-8.66,8.57,24.7,24.7,0,0,1-5.83,2.86,19.94,19.94,0,0,1-5.78,1c-.32,0-.63,0-1,0a19.37,19.37,0,0,1-6.7-1.29,22.61,22.61,0,0,1-5.62-3.17,32.77,32.77,0,0,1-7.67-8.72,39.45,39.45,0,0,1-2.65-4.88,29.38,29.38,0,0,1-2-5.51,18.17,18.17,0,0,1-.43-6.44,12.91,12.91,0,0,1,1.78-5.12,11,11,0,0,1,1-1.42,13.31,13.31,0,0,1,2.59-2.35,15.38,15.38,0,0,1,2.91-1.54,18.75,18.75,0,0,1,6-1.25,21.52,21.52,0,0,1,5.83.53,17,17,0,0,1,5.57,2.34,11.29,11.29,0,0,1,2.48,2.24,8.25,8.25,0,0,1,1.64,3.28,7.89,7.89,0,0,1,0,3.65,10.58,10.58,0,0,1-1.24,3,18.62,18.62,0,0,1-3.73,4.28,36.82,36.82,0,0,1-4.25,3.13,2,2,0,0,1-2.33-3.25l0,0c2.46-1.93,4.82-4.17,6-6.5a3.72,3.72,0,0,0,.36-2.89,4.05,4.05,0,0,0-2-2,13.24,13.24,0,0,0-7.73-1.1c-2.65.37-5.05,1.59-6,3.13a4.77,4.77,0,0,0-.74,2.6,8.91,8.91,0,0,0,.31,2.36,10.43,10.43,0,0,0,.3,1,27.8,27.8,0,0,0,4.17,7.33,23.14,23.14,0,0,0,5.53,5.52l.28.19a10,10,0,0,0,6.17,1.76,11,11,0,0,0,5.9-2.54,20.85,20.85,0,0,0,4.9-5.78c2.64-4.54,3.89-10.1,3.1-14.64a12.25,12.25,0,0,0-2.47-5.74,11.68,11.68,0,0,0-2.14-2.07,15.67,15.67,0,0,0-2.78-1.61,24.92,24.92,0,0,0-7.13-1.82,46.16,46.16,0,0,0-8.34-.11,74.76,74.76,0,0,0-19.55,3.85A53.8,53.8,0,0,0,601.37,195a41.09,41.09,0,0,0-9,8.46,32.18,32.18,0,0,0-1.94,2.73,35.1,35.1,0,0,0-5.19,14.07,44.25,44.25,0,0,0,.51,14.92,67.84,67.84,0,0,0,5.63,16.4c5,10.34,12.27,20,20.51,29,2.09,2.23,4.2,4.45,6.41,6.59l3.56,3.48c1.24,1.24,2.49,2.48,3.71,3.74,4.9,5,9.58,10.24,14.09,15.61a293.5,293.5,0,0,1,24.69,34.14q2.89,4.68,5.61,9.48a257.62,257.62,0,0,1,13.9,28.47c2.49,6,4.75,12.23,6.73,18.55a199.8,199.8,0,0,1,5.87,23.38,175.1,175.1,0,0,1,2.82,23.86A156.92,156.92,0,0,1,698.86,469.45Z"/><path class="cls-17" d="M613.51,500.46l0,0Z"/><path class="cls-17" d="M698.86,469.45a148.79,148.79,0,0,1-3.92,23.14c-1,3.83-2.1,7.58-3.41,11.39-.18.52-.37,1-.56,1.57-.48,1.32-1,2.64-1.53,4h0c-8.9,0-13.29,3.22-17.94,6.62-5,3.63-10.08,7.38-20.29,7.38A28.2,28.2,0,0,1,635,519c-.67-.42-1.32-.86-2-1.31s-1.43-1-2.13-1.53c-.88-.64-1.75-1.28-2.65-1.89a24.68,24.68,0,0,0-15.28-4.73c-8.91,0-13.29,3.22-17.94,6.62-5,3.63-10.08,7.38-20.3,7.38-1,0-1.89,0-2.77-.1a27,27,0,0,1,41.56-23v0l.13.11.44.3c.33.22.71.45,1.1.69.8.46,1.65.91,2.51,1.33a35.26,35.26,0,0,0,5.08,2,25.6,25.6,0,0,0,4.41.9,15.19,15.19,0,0,0,3.46,0,10.47,10.47,0,0,0,3-.81,14,14,0,0,0,3.31-2,33.64,33.64,0,0,0,7.34-9.14,67.69,67.69,0,0,0,3.35-6.6c1-2.38,2-4.92,2.9-7.43a102.37,102.37,0,0,0,4-15.73,123.67,123.67,0,0,0,.86-33.76C653,407.09,645,383.58,633.68,361.6a261.1,261.1,0,0,0-19.4-31.85c-1.75-2.45-3.54-4.88-5.37-7.26,13.16,5.18,37.45,15.72,61.05,31.16a257.62,257.62,0,0,1,13.9,28.47,212.38,212.38,0,0,1,12.6,41.93A166.77,166.77,0,0,1,698.86,469.45Z"/><path class="cls-18" d="M698.86,469.45a148.79,148.79,0,0,1-3.92,23.14c-1,3.83-2.1,7.58-3.41,11.39-.18.52-.37,1-.56,1.57-.48,1.32-1,2.64-1.53,4h0c-8.9,0-13.29,3.22-17.94,6.62-5,3.63-10.08,7.38-20.29,7.38A28.2,28.2,0,0,1,635,519c-.67-.42-1.32-.86-2-1.31s-1.43-1-2.13-1.53c-.88-.64-1.75-1.28-2.65-1.89a24.68,24.68,0,0,0-15.28-4.73c-8.91,0-13.29,3.22-17.94,6.62-5,3.63-10.08,7.38-20.3,7.38-1,0-1.89,0-2.77-.1a27,27,0,0,1,41.56-23v0l.13.11.44.3c.33.22.71.45,1.1.69.8.46,1.65.91,2.51,1.33a35.26,35.26,0,0,0,5.08,2,25.6,25.6,0,0,0,4.41.9,15.19,15.19,0,0,0,3.46,0,10.47,10.47,0,0,0,3-.81,14,14,0,0,0,3.31-2,33.64,33.64,0,0,0,7.34-9.14,67.69,67.69,0,0,0,3.35-6.6c1-2.38,2-4.92,2.9-7.43a102.37,102.37,0,0,0,4-15.73,123.67,123.67,0,0,0,.86-33.76c-2.38-22.61-10.06-45.57-20.94-67.11,18.06,9.2,38.9,21.8,56.14,37.55a199.8,199.8,0,0,1,5.87,23.38A166.77,166.77,0,0,1,698.86,469.45Z"/><path class="cls-19" d="M698.86,469.45a148.79,148.79,0,0,1-3.92,23.14c-1,3.83-2.1,7.58-3.41,11.39-.18.52-.37,1-.56,1.57-.48,1.32-1,2.64-1.53,4h0c-8.9,0-13.29,3.22-17.94,6.62-5,3.63-10.08,7.38-20.29,7.38A28.2,28.2,0,0,1,635,519c-.67-.42-1.32-.86-2-1.31s-1.43-1-2.13-1.53c-.88-.64-1.75-1.28-2.65-1.89a24.68,24.68,0,0,0-15.28-4.73c-8.91,0-13.29,3.22-17.94,6.62-5,3.63-10.08,7.38-20.3,7.38-1,0-1.89,0-2.77-.1a27,27,0,0,1,41.56-23v0l.13.11.44.3c.33.22.71.45,1.1.69.8.46,1.65.91,2.51,1.33a35.26,35.26,0,0,0,5.08,2,25.6,25.6,0,0,0,4.41.9,15.19,15.19,0,0,0,3.46,0,10.47,10.47,0,0,0,3-.81,14,14,0,0,0,3.31-2,33.64,33.64,0,0,0,7.34-9.14,67.69,67.69,0,0,0,3.35-6.6c1-2.38,2-4.92,2.9-7.43a102.37,102.37,0,0,0,4-15.73,123.67,123.67,0,0,0,.86-33.76,164.48,164.48,0,0,0-4.13-22.9c17.49,10.88,35.09,24.47,48,40.58A156.92,156.92,0,0,1,698.86,469.45Z"/><path class="cls-20" d="M922.55,416.81c0,.89-.13,1.77-.2,2.66a26.33,26.33,0,0,1-.3,2.64,41.93,41.93,0,0,1-1.19,5.19l-.8,2.54-1,2.44-.53,1.22c-.19.39-.42.77-.63,1.16L916.58,437A42.1,42.1,0,0,1,910,445l-.93.9c-.32.29-.66.55-1,.82l-2,1.63L904,449.83l-1.06.71-1.11.63a41.26,41.26,0,0,1-9.36,4,39.45,39.45,0,0,1-10.12,1.45,33.82,33.82,0,0,1-10.27-1.68,28.53,28.53,0,0,1-6.71-3.43c-.83-.58-1.63-1.19-2.4-1.84a27.82,27.82,0,0,1-3.55-3.82,34.86,34.86,0,0,1-2.77-4.11,26.53,26.53,0,0,1-3.44-9.71,16.37,16.37,0,0,1,.31-5.72,14,14,0,0,1,2.71-5.25,14.63,14.63,0,0,1,4.37-3.53,17.89,17.89,0,0,1,2.24-1,16,16,0,0,1,2.74-.76,18.54,18.54,0,0,1,8.57.24c.55.15,1.1.33,1.64.53a12.86,12.86,0,0,1,4.57,3,10.1,10.1,0,0,1,2.65,5c.08.46.18.92.23,1.37v1.34a5.53,5.53,0,0,1-.11,1.3l-.19,1.27q-.33,1.21-.72,2.37l-1,2.19a2,2,0,0,1-3.72-1.43l.08-.23.62-1.85c.14-.61.26-1.22.37-1.83a7.85,7.85,0,0,0-.25-3.32,6.05,6.05,0,0,0-4.42-3.89,11.79,11.79,0,0,0-1.9-.34,12.6,12.6,0,0,0-5,.49,11.12,11.12,0,0,0-1.4.51,8.84,8.84,0,0,0-3.81,3,6.81,6.81,0,0,0-1,2.52,8.57,8.57,0,0,0,.17,2.91,18.78,18.78,0,0,0,3,6.27,24,24,0,0,0,2.35,2.88l.24.28a23.35,23.35,0,0,0,2.33,2,19.07,19.07,0,0,0,6.13,2.81,22.82,22.82,0,0,0,6.87.46,27.89,27.89,0,0,0,6.9-1.66,29,29,0,0,0,6.3-3.39l.74-.51.69-.57,1.38-1.13,1.26-1.25c.21-.21.43-.41.63-.62l.56-.68a28,28,0,0,0,3.86-5.75l.68-1.56c.11-.26.24-.51.34-.78l.25-.81.52-1.6.34-1.65a24.52,24.52,0,0,0,.44-3.32,13.43,13.43,0,0,0,0-1.68c0-.56,0-1.12,0-1.68l-.2-1.7a10.79,10.79,0,0,0-.24-1.68l-.37-1.69-.18-.84-.27-.84a45.6,45.6,0,0,0-6.48-12.93,87.66,87.66,0,0,0-10.23-11.59l-.09-.08a97.61,97.61,0,0,0-12.13-9.65c-1-.75-2.19-1.36-3.27-2.05l-1.65-1c-.48-.28-1-.53-1.47-.78L870,372c-1.14-.59-2.25-1.23-3.4-1.77l-3.48-1.57a15.84,15.84,0,0,0-1.76-.72l-1.78-.67-1.77-.68c-.6-.21-1.21-.37-1.81-.56-1.21-.36-2.4-.76-3.62-1.09l-3.66-.86-.46-.11-.46-.11-.93-.15-1.85-.32c-1.23-.21-2.46-.44-3.71-.53l-3.72-.38-3.74-.14a81.11,81.11,0,0,0-14.92,1l-1.85.28c-.62.1-1.23.26-1.85.39l-3.67.79-3.64,1-1.81.51-1.8.61A113.66,113.66,0,0,0,777,380.53a153.53,153.53,0,0,0-19.08,15.17c-1.71,1.57-3.4,3.2-5.06,4.86-.94.94-1.86,1.88-2.78,2.84-.76.79-1.5,1.58-2.25,2.38l-.53.58c-.74.79-1.47,1.6-2.18,2.41-.37.4-.73.81-1.08,1.21-.64.72-1.27,1.45-1.9,2.19a1.77,1.77,0,0,0-.14.17c-.73.85-1.46,1.71-2.17,2.57l-.9,1.09c-.67.81-1.34,1.64-2,2.47s-1.48,1.86-2.2,2.8c-.92,1.18-1.82,2.38-2.72,3.58l-10.13,14c-3.69,4.91-7.45,9.79-11.43,14.53a296.11,296.11,0,0,1-25.64,27.26c-4.59,4.32-9.41,8.44-14.34,12.48s-10.11,7.85-15.49,11.45-10.88,7.06-16.62,10.25l-1.36.75c-1.32.73-2.66,1.44-4,2.13-.72-.5-1.43-1-2.13-1.53-.88-.64-1.75-1.28-2.65-1.89a24.68,24.68,0,0,0-15.28-4.73c-8.91,0-13.29,3.22-17.94,6.62-3.47,2.54-7,5.14-12.36,6.47a32.48,32.48,0,0,1-7.94.91c-10.21,0-15.33-3.75-20.29-7.38-.76-.56-1.51-1.11-2.28-1.63l-.63-.43c-.11-.45-.21-.91-.29-1.37a24.71,24.71,0,0,1-.41-3.77c0-.25,0-.51,0-.76a27,27,0,0,1,26.3-27.32h0a.22.22,0,0,0,.12,0h.48c.36,0,.82,0,1.27,0l1.46-.09,1.55-.15c2.11-.23,4.33-.57,6.58-1a118,118,0,0,0,13.78-3.57,137.17,137.17,0,0,0,13.85-5.31c4.59-2,9.14-4.26,13.61-6.76s8.87-5.21,13.23-8,8.6-5.94,12.75-9.21q5.58-4.33,11-9.06,6.66-5.83,13-12.19c3.38-3.35,6.64-6.84,9.87-10.39.44-.47.87-1,1.3-1.43l11.49-13.18c1.62-1.8,3.26-3.59,4.94-5.35a248.4,248.4,0,0,1,21.9-20.71,194.48,194.48,0,0,1,31.35-21.5,143.75,143.75,0,0,1,36.11-14c.79-.19,1.58-.39,2.38-.56l2.41-.45,4.84-.88,2-.25,2.89-.35c.81-.09,1.62-.21,2.44-.27l2.47-.15a106.65,106.65,0,0,1,19.73.44l4.39.58.51.07c1.62.28,3.24.62,4.85.94s3.21.71,4.8,1.14l2.38.63,1.19.32,1.17.39,4.66,1.57c1.54.56,3,1.21,4.56,1.82.75.32,1.52.61,2.26.95L871,347c.73.35,1.46.71,2.16,1.13l4.24,2.4c1.39.82,2.72,1.74,4.08,2.61.68.45,1.36.88,2,1.34l1.94,1.44c1.28,1,2.62,1.88,3.84,2.92s2.65,2.18,3.92,3.32a125.9,125.9,0,0,1,9.86,9.88,105.82,105.82,0,0,1,11.35,15.52,62.79,62.79,0,0,1,7.25,18.78l.27,1.26.16,1.31.31,2.59a23.05,23.05,0,0,1,.14,2.63Z"/><path class="cls-20" d="M883.25,427.15a5.53,5.53,0,0,1-.11,1.3l-.19,1.27q-.33,1.21-.72,2.37l-1,2.19a2,2,0,0,1-3.72-1.43l.08-.23.62-1.85c.14-.61.26-1.22.37-1.83a7.85,7.85,0,0,0-.25-3.32,6.05,6.05,0,0,0-4.42-3.89,12.62,12.62,0,0,0-6.89.15,11.12,11.12,0,0,0-1.4.51l-2.82-5.91a16,16,0,0,1,2.74-.76,18.38,18.38,0,0,1,10.21.77,12.86,12.86,0,0,1,4.57,3,10.1,10.1,0,0,1,2.65,5c.08.46.18.92.23,1.37Z"/><path class="cls-21" d="M922.55,416.81c0,.89-.13,1.77-.2,2.66a26.33,26.33,0,0,1-.3,2.64,41.93,41.93,0,0,1-1.19,5.19l-.8,2.54-1,2.44-.53,1.22c-.19.39-.42.77-.63,1.16L916.58,437A42.1,42.1,0,0,1,910,445l-.93.9c-.32.29-.66.55-1,.82l-2,1.63L904,449.83l-1.06.71-1.11.63a41.26,41.26,0,0,1-9.36,4,39.45,39.45,0,0,1-10.12,1.45,33.82,33.82,0,0,1-10.27-1.68,28.53,28.53,0,0,1-6.71-3.43c-.83-.58-1.63-1.19-2.4-1.84a27.82,27.82,0,0,1-3.55-3.82,34.86,34.86,0,0,1-2.77-4.11,26.53,26.53,0,0,1-3.44-9.71,16.37,16.37,0,0,1,.31-5.72,14,14,0,0,1,2.71-5.25,14.63,14.63,0,0,1,4.37-3.53,17.89,17.89,0,0,1,2.24-1,16,16,0,0,1,2.74-.76,18.54,18.54,0,0,1,8.57.24c.55.15,1.1.33,1.64.53a12.86,12.86,0,0,1,4.57,3,10.1,10.1,0,0,1,2.65,5c.08.46.18.92.23,1.37v1.34a5.53,5.53,0,0,1-.11,1.3l-.19,1.27q-.33,1.21-.72,2.37l-1,2.19a2,2,0,0,1-3.72-1.43l.08-.23.62-1.85c.14-.61.26-1.22.37-1.83a7.85,7.85,0,0,0-.25-3.32,6.05,6.05,0,0,0-4.42-3.89,11.79,11.79,0,0,0-1.9-.34,12.6,12.6,0,0,0-5,.49,11.12,11.12,0,0,0-1.4.51,8.84,8.84,0,0,0-3.81,3,6.81,6.81,0,0,0-1,2.52,8.57,8.57,0,0,0,.17,2.91,18.78,18.78,0,0,0,3,6.27,24,24,0,0,0,2.35,2.88l.24.28a23.35,23.35,0,0,0,2.33,2,19.07,19.07,0,0,0,6.13,2.81,22.82,22.82,0,0,0,6.87.46,27.89,27.89,0,0,0,6.9-1.66,29,29,0,0,0,6.3-3.39l.74-.51.69-.57,1.38-1.13,1.26-1.25c.21-.21.43-.41.63-.62l.56-.68a28,28,0,0,0,3.86-5.75l.68-1.56c.11-.26.24-.51.34-.78l.25-.81.52-1.6.34-1.65a24.52,24.52,0,0,0,.44-3.32,13.43,13.43,0,0,0,0-1.68c0-.56,0-1.12,0-1.68l-.2-1.7a10.79,10.79,0,0,0-.24-1.68l-.37-1.69-.18-.84-.27-.84a45.6,45.6,0,0,0-6.48-12.93,87.66,87.66,0,0,0-10.23-11.59l-.09-.08a97.61,97.61,0,0,0-12.13-9.65c-1-.75-2.19-1.36-3.27-2.05l-1.65-1c-.48-.28-1-.53-1.47-.78L870,372c-1.14-.59-2.25-1.23-3.4-1.77l-3.48-1.57a15.84,15.84,0,0,0-1.76-.72l-1.78-.67-1.77-.68c-.6-.21-1.21-.37-1.81-.56-1.21-.36-2.4-.76-3.62-1.09l-3.66-.86-.46-.11c-5.91-13.77-24.39-22.24-40-27.1l2.89-.35c.81-.09,1.62-.21,2.44-.27l2.47-.15a106.65,106.65,0,0,1,19.73.44l4.39.58.51.07c1.62.28,3.24.62,4.85.94s3.21.71,4.8,1.14l2.38.63,1.19.32,1.17.39,4.66,1.57c1.54.56,3,1.21,4.56,1.82.75.32,1.52.61,2.26.95L871,347c.73.35,1.46.71,2.16,1.13l4.24,2.4c1.39.82,2.72,1.74,4.08,2.61.68.45,1.36.88,2,1.34l1.94,1.44c1.28,1,2.62,1.88,3.84,2.92s2.65,2.18,3.92,3.32a125.9,125.9,0,0,1,9.86,9.88,105.82,105.82,0,0,1,11.35,15.52,62.79,62.79,0,0,1,7.25,18.78l.27,1.26.16,1.31.31,2.59a23.05,23.05,0,0,1,.14,2.63Z"/><path class="cls-22" d="M922.55,416.81c0,.89-.13,1.77-.2,2.66a26.33,26.33,0,0,1-.3,2.64,41.93,41.93,0,0,1-1.19,5.19l-.8,2.54-1,2.44-.53,1.22c-.19.39-.42.77-.63,1.16L916.58,437A42.1,42.1,0,0,1,910,445l-.93.9c-.32.29-.66.55-1,.82l-2,1.63L904,449.83l-1.06.71-1.11.63a41.26,41.26,0,0,1-9.36,4,39.45,39.45,0,0,1-10.12,1.45,33.82,33.82,0,0,1-10.27-1.68,28.53,28.53,0,0,1-6.71-3.43c-.83-.58-1.63-1.19-2.4-1.84a27.82,27.82,0,0,1-3.55-3.82,34.86,34.86,0,0,1-2.77-4.11,26.53,26.53,0,0,1-3.44-9.71,16.37,16.37,0,0,1,.31-5.72,15.41,15.41,0,0,1,1.35-3.28,11.69,11.69,0,0,1,1.36-2,14.63,14.63,0,0,1,4.37-3.53,17.89,17.89,0,0,1,2.24-1,16,16,0,0,1,2.74-.76,18.54,18.54,0,0,1,8.57.24c.55.15,1.1.33,1.64.53a12.86,12.86,0,0,1,4.57,3,10.1,10.1,0,0,1,2.65,5c.08.46.18.92.23,1.37v1.34a5.53,5.53,0,0,1-.11,1.3l-.19,1.27q-.33,1.21-.72,2.37l-1,2.19a2,2,0,0,1-3.72-1.43l.08-.23.62-1.85c.14-.61.26-1.22.37-1.83a7.85,7.85,0,0,0-.25-3.32,6.05,6.05,0,0,0-4.42-3.89,11.79,11.79,0,0,0-1.9-.34,12.6,12.6,0,0,0-5,.49,11.12,11.12,0,0,0-1.4.51,8.84,8.84,0,0,0-3.81,3,3.48,3.48,0,0,0-.22.36,7.07,7.07,0,0,0-.77,2.16,8.57,8.57,0,0,0,.17,2.91,18.78,18.78,0,0,0,3,6.27,24,24,0,0,0,2.35,2.88l.24.28a23.35,23.35,0,0,0,2.33,2,19.07,19.07,0,0,0,6.13,2.81,22.82,22.82,0,0,0,6.87.46,27.89,27.89,0,0,0,6.9-1.66,29,29,0,0,0,6.3-3.39l.74-.51.69-.57,1.38-1.13,1.26-1.25c.21-.21.43-.41.63-.62l.56-.68a28,28,0,0,0,3.86-5.75l.68-1.56c.11-.26.24-.51.34-.78l.25-.81.52-1.6.34-1.65a24.52,24.52,0,0,0,.44-3.32,13.43,13.43,0,0,0,0-1.68c0-.56,0-1.12,0-1.68l-.2-1.7a10.79,10.79,0,0,0-.24-1.68l-.37-1.69-.18-.84-.27-.84a45.6,45.6,0,0,0-6.48-12.93,87.66,87.66,0,0,0-10.23-11.59l-.09-.08a97.61,97.61,0,0,0-12.13-9.65c-1-.75-2.19-1.36-3.27-2.05l-1.65-1c-.48-.28-1-.53-1.47-.78,1.88-17.07-13.62-28.13-30.06-35l.51.07c1.62.28,3.24.62,4.85.94s3.21.71,4.8,1.14l2.38.63,1.19.32,1.17.39,4.66,1.57c1.54.56,3,1.21,4.56,1.82.75.32,1.52.61,2.26.95L871,347c.73.35,1.46.71,2.16,1.13l4.24,2.4c1.39.82,2.72,1.74,4.08,2.61.68.45,1.36.88,2,1.34l1.94,1.44c1.28,1,2.62,1.88,3.84,2.92s2.65,2.18,3.92,3.32a125.9,125.9,0,0,1,9.86,9.88,105.82,105.82,0,0,1,11.35,15.52,62.79,62.79,0,0,1,7.25,18.78l.27,1.26.16,1.31.31,2.59a23.05,23.05,0,0,1,.14,2.63Z"/><path class="cls-23" d="M874,421.73a11.79,11.79,0,0,0-1.9-.34c.65-1.79,1.36-3.6,2.1-5.43.55.15,1.1.33,1.64.53a12.86,12.86,0,0,1,4.57,3,10.1,10.1,0,0,1,2.65,5c.08.46.18.92.23,1.37v1.34a5.53,5.53,0,0,1-.11,1.3l-.19,1.27q-.33,1.21-.72,2.37l-1,2.19a2,2,0,0,1-3.72-1.43l.08-.23.62-1.85c.14-.61.26-1.22.37-1.83a7.85,7.85,0,0,0-.25-3.32A6.05,6.05,0,0,0,874,421.73Z"/><path class="cls-23" d="M922.55,416.81c0,.89-.13,1.77-.2,2.66a26.33,26.33,0,0,1-.3,2.64,41.93,41.93,0,0,1-1.19,5.19l-.8,2.54-1,2.44-.53,1.22c-.19.39-.42.77-.63,1.16L916.58,437A42.1,42.1,0,0,1,910,445l-.93.9c-.32.29-.66.55-1,.82l-2,1.63L904,449.83l-1.06.71-1.11.63a41.26,41.26,0,0,1-9.36,4,39.45,39.45,0,0,1-10.12,1.45,33.82,33.82,0,0,1-10.27-1.68,28.53,28.53,0,0,1-6.71-3.43,66.23,66.23,0,0,1,1.24-11.22,23.35,23.35,0,0,0,2.33,2,19.07,19.07,0,0,0,6.13,2.81,22.82,22.82,0,0,0,6.87.46,27.89,27.89,0,0,0,6.9-1.66,29,29,0,0,0,6.3-3.39l.74-.51.69-.57,1.38-1.13,1.26-1.25c.21-.21.43-.41.63-.62l.56-.68a28,28,0,0,0,3.86-5.75l.68-1.56c.11-.26.24-.51.34-.78l.25-.81.52-1.6.34-1.65a24.52,24.52,0,0,0,.44-3.32,13.43,13.43,0,0,0,0-1.68c0-.56,0-1.12,0-1.68l-.2-1.7a10.79,10.79,0,0,0-.24-1.68l-.37-1.69-.18-.84-.27-.84a45.6,45.6,0,0,0-6.48-12.93,87.66,87.66,0,0,0-10.23-11.59l-.09-.08.67-1.22c4.66-8.49,5.48-15.83,3.73-22.14a125.9,125.9,0,0,1,9.86,9.88,105.82,105.82,0,0,1,11.35,15.52,62.79,62.79,0,0,1,7.25,18.78l.27,1.26.16,1.31.31,2.59a23.05,23.05,0,0,1,.14,2.63Z"/><path class="cls-21" d="M757.91,395.7c-1.71,1.57-3.4,3.2-5.06,4.86-.93.93-1.86,1.88-2.78,2.84-.75.78-1.5,1.58-2.25,2.38l-.53.58c-.74.79-1.47,1.6-2.18,2.41-.37.4-.73.81-1.08,1.21-.64.73-1.28,1.46-1.9,2.19a1.77,1.77,0,0,0-.14.17c-.74.85-1.46,1.71-2.17,2.57l-.9,1.09c-.67.82-1.33,1.64-2,2.47s-1.48,1.86-2.2,2.8c-.92,1.18-1.82,2.38-2.72,3.58l-10.13,14c-3.69,4.91-7.45,9.79-11.43,14.53a296.11,296.11,0,0,1-25.64,27.26c-4.59,4.32-9.41,8.44-14.34,12.48s-10.11,7.85-15.49,11.45-10.88,7.06-16.62,10.25l-1.36.75c-1.32.73-2.66,1.44-4,2.13-.72-.5-1.43-1-2.13-1.53-.88-.64-1.75-1.28-2.65-1.89a24.68,24.68,0,0,0-15.28-4.73c-8.91,0-13.29,3.22-17.94,6.62-3.47,2.54-7,5.14-12.36,6.47-5.46-1.76-11.75-3.87-20-6.19-4.29-1.21-8.09-2.44-11.45-3.71a24.71,24.71,0,0,1-.41-3.77c0-.25,0-.51,0-.76a27,27,0,0,1,26.3-27.32h0a.22.22,0,0,0,.12,0h.48c.36,0,.82,0,1.27,0l1.46-.09,1.55-.15c2.11-.23,4.33-.57,6.58-1a118,118,0,0,0,13.78-3.57,137.17,137.17,0,0,0,13.85-5.31c4.59-2,9.14-4.26,13.61-6.76s8.87-5.21,13.23-8,8.6-5.94,12.75-9.21q5.58-4.33,11-9.06,6.66-5.83,13-12.19c3.38-3.35,6.64-6.84,9.87-10.39.44-.47.87-1,1.3-1.43l11.49-13.18c1.62-1.8,3.26-3.59,4.94-5.35C732.85,380.31,750.89,387.27,757.91,395.7Z"/><path class="cls-23" d="M725.42,433.94l-3.54,4.88c-3.69,4.91-7.45,9.79-11.43,14.53a296.11,296.11,0,0,1-25.64,27.26c-4.59,4.32-9.41,8.44-14.34,12.48s-10.11,7.85-15.49,11.45-10.88,7.06-16.62,10.25l-1.36.75c-1.32.73-2.66,1.44-4,2.13-.72-.5-1.43-1-2.13-1.53-.88-.64-1.75-1.28-2.65-1.89a24.68,24.68,0,0,0-15.28-4.73c-8.91,0-13.29,3.22-17.94,6.62-3.47,2.54-7,5.14-12.36,6.47a32.48,32.48,0,0,1-7.94.91c-10.21,0-15.33-3.75-20.29-7.38-.76-.56-1.51-1.11-2.28-1.63l-.63-.43c-.11-.45-.21-.91-.29-1.37a24.71,24.71,0,0,1-.41-3.77c0-.25,0-.51,0-.76a27,27,0,0,1,26.3-27.32h0a.22.22,0,0,0,.12,0h.48c.36,0,.82,0,1.27,0l1.46-.09,1.55-.15c2.11-.23,4.33-.57,6.58-1a118,118,0,0,0,13.78-3.57,137.17,137.17,0,0,0,13.85-5.31c4.59-2,9.14-4.26,13.61-6.76s8.87-5.21,13.23-8,8.6-5.94,12.75-9.21q5.58-4.33,11-9.06C693.36,421.3,714.73,423.16,725.42,433.94Z"/><path class="cls-20" d="M401,510.84c0,.25,0,.49-.09.74a26,26,0,0,1-.75,3.57c-3.28-2.36-6.68-4.49-11.87-5.29a30.55,30.55,0,0,0-4.69-.34h-.26a24.42,24.42,0,0,0-12.39,3.08,52.25,52.25,0,0,0-5.28,3.54l-1.74,1.26c-4.48,3.19-9.53,6.12-18.56,6.12a38.07,38.07,0,0,1-4.14-.22c-1.58-.89-3.12-1.81-4.64-2.76a134.24,134.24,0,0,1-14.63-10.6c-.73-.61-1.46-1.22-2.17-1.84A162.83,162.83,0,0,1,290,473.65a215.18,215.18,0,0,1-20.6-41.09q-3.93-10.35-6.94-20.84-3.14-10.85-5.44-21.75L256,385c-.3-1.32-.55-2.67-.88-4,0-.14-.06-.27-.1-.41-.69-2.89-1.48-5.74-2.35-8.51a95.16,95.16,0,0,0-6.44-15.66,67,67,0,0,0-4.67-7.68A50.25,50.25,0,0,0,225.91,334a45,45,0,0,0-13.84-5.26,56,56,0,0,0-15.78-.85c-10.95.89-22.32,4.65-32.88,10.34a117.1,117.1,0,0,0-48,49.14c-.6,1.17-1.17,2.34-1.72,3.53l-2.21,4.84c-.39.87-.86,1.73-1.28,2.6s-.86,1.73-1.35,2.58a89.49,89.49,0,0,1-6.3,10,70.25,70.25,0,0,1-14.76,15c-.86.64-1.75,1.26-2.65,1.86a56.77,56.77,0,0,1-22.76,8.85l-.25,0a57.29,57.29,0,0,1-45.32-13A49,49,0,0,1,2.76,404,42,42,0,0,1,1,379.86a51.58,51.58,0,0,1,10.26-20.71A73.2,73.2,0,0,1,18.85,351a45.74,45.74,0,0,1,9.34-6.74,27.32,27.32,0,0,1,11.75-3.38A21.57,21.57,0,0,1,52,344a23.87,23.87,0,0,1,3.33,2.46,25.29,25.29,0,0,1,5,6A23.44,23.44,0,0,1,62.81,358a14.4,14.4,0,0,1,.51,6.5,7.49,7.49,0,0,1-1.78,3.74,6.42,6.42,0,0,1-3.92,2,9.47,9.47,0,0,1-3.52-.28,16.68,16.68,0,0,1-2.84-1l-.21-.11a41,41,0,0,1-8.74-6.06,2,2,0,0,1,2.45-3.16l0,0a41.12,41.12,0,0,0,7,4.21c.45.2.89.39,1.34.55a7,7,0,0,0,3.62.54c.38-.11.46-.23.53-.36a2.39,2.39,0,0,0,.22-.92,8.74,8.74,0,0,0-.72-3.6,17.45,17.45,0,0,0-2.1-3.73,18.88,18.88,0,0,0-1.21-1.47,17.07,17.07,0,0,0-5.23-4,13.22,13.22,0,0,0-7.68-1.25,18.4,18.4,0,0,0-7.58,3c-4.84,3.2-9,8.12-12.54,13.39a39.33,39.33,0,0,0-6.71,16.31,28.11,28.11,0,0,0,2.38,16.15,33.77,33.77,0,0,0,10.7,12.66,40.17,40.17,0,0,0,15.42,6.84,39.56,39.56,0,0,0,10.77.76,36.22,36.22,0,0,0,5.71-.84,37,37,0,0,0,14.54-7A45.78,45.78,0,0,0,81.82,402c.87-1.17,1.7-2.4,2.49-3.66a65.28,65.28,0,0,0,4.09-7.73c.33-.65.59-1.36.88-2s.59-1.36.84-2.08l1.72-4.64a138.89,138.89,0,0,1,22.56-38.95,150.36,150.36,0,0,1,12.71-13.66,139.92,139.92,0,0,1,21.12-16.58c13-8.25,27.64-14.65,43.9-17.28a89.48,89.48,0,0,1,25.15-.53,80.18,80.18,0,0,1,25.07,7.34,83.77,83.77,0,0,1,21.47,14.94,101.19,101.19,0,0,1,15.87,19.6,134.94,134.94,0,0,1,10.87,21.52q1.9,4.74,3.46,9.51c.18.51.35,1,.51,1.52.63,1.85,1.13,3.69,1.68,5.54l1.44,5A256.74,256.74,0,0,0,309,411.23c.59,1.34,1.2,2.66,1.81,4a169.42,169.42,0,0,0,18.5,31,112.33,112.33,0,0,0,23.95,23.56,80.9,80.9,0,0,0,13.49,7.76,59,59,0,0,0,6.72,2.55c1.09.34,2.14.62,3.1.83.48.11.94.2,1.31.25l.46.06s.11,0,.09,0h0a26.9,26.9,0,0,1,18.67,12.46v0a26.23,26.23,0,0,1,2.3,4.7A26.81,26.81,0,0,1,401,510.84Z"/><path class="cls-24" d="M401,510.84c0,.25,0,.49-.09.74a26,26,0,0,1-.75,3.57c-3.28-2.36-6.68-4.49-11.87-5.29a30.55,30.55,0,0,0-4.69-.34,24.51,24.51,0,0,0-12.65,3.08,52.25,52.25,0,0,0-5.28,3.54l-1.74,1.26c-4.48,3.19-9.53,6.12-18.56,6.12a38.07,38.07,0,0,1-4.14-.22c-1.58-.89-3.12-1.81-4.64-2.76a134.24,134.24,0,0,1-14.63-10.6c-.73-.61-1.46-1.22-2.17-1.84A162.83,162.83,0,0,1,290,473.65a215.18,215.18,0,0,1-20.6-41.09A292.1,292.1,0,0,1,257.05,390L256,385c-.3-1.32-.55-2.67-.88-4,15.2,3.78,34.35,12.19,53.91,30.22.59,1.34,1.2,2.66,1.81,4a169.42,169.42,0,0,0,18.5,31,112.33,112.33,0,0,0,23.95,23.56,80.9,80.9,0,0,0,13.49,7.76,59,59,0,0,0,6.72,2.55c1.09.34,2.14.62,3.1.83.48.11.94.2,1.31.25l.46.06s.11,0,.09,0h0a26.79,26.79,0,0,1,8.1,2.66c4.07,3.68,7.63,7,10.57,9.8v0a26.23,26.23,0,0,1,2.3,4.7A26.81,26.81,0,0,1,401,510.84Z"/><path class="cls-25" d="M383.3,509.52a24.42,24.42,0,0,0-12.39,3.08,52.25,52.25,0,0,0-5.28,3.54l-1.74,1.26c-4.48,3.19-9.53,6.12-18.56,6.12a38.07,38.07,0,0,1-4.14-.22c-1.58-.89-3.12-1.81-4.64-2.76a134.24,134.24,0,0,1-14.63-10.6c-.73-.61-1.46-1.22-2.17-1.84A162.83,162.83,0,0,1,290,473.65a215.18,215.18,0,0,1-20.6-41.09q-3.93-10.35-6.94-20.84c15.46,5,33.95,14.93,52.49,33.87C340.51,471.68,365.81,493.8,383.3,509.52Z"/><path class="cls-20" d="M642.81,446.61a163.09,163.09,0,0,1-12.95,63.91c-.53,1.25-1.08,2.49-1.64,3.73a24.68,24.68,0,0,0-15.28-4.73c-8.91,0-13.29,3.22-17.94,6.62-5,3.63-10.08,7.38-20.3,7.38s-15.33-3.75-20.29-7.38c-4.65-3.4-9-6.62-17.94-6.62s-13.28,3.22-17.93,6.62c-5,3.63-10.08,7.38-20.29,7.38a29.05,29.05,0,0,1-12.49-2.5,43.18,43.18,0,0,1-7.81-4.88c-4.64-3.4-9-6.62-17.93-6.62s-13.29,3.22-17.94,6.62c-4.95,3.63-10.08,7.38-20.29,7.38a30.22,30.22,0,0,1-10.85-1.81,38.83,38.83,0,0,1-9.45-5.57c-4.64-3.4-9-6.62-17.93-6.62s-13.29,3.22-17.93,6.62c-5,3.63-10.09,7.38-20.3,7.38a29.72,29.72,0,0,1-11.81-2.19q-1.53-3-2.93-6l-.09-.19a163.68,163.68,0,1,1,310.21-94.74A164.67,164.67,0,0,1,642.81,446.61Z"/><path class="cls-24" d="M642.81,446.61a163.09,163.09,0,0,1-12.95,63.91c-.53,1.25-1.08,2.49-1.64,3.73a24.68,24.68,0,0,0-15.28-4.73c-8.91,0-13.29,3.22-17.94,6.62-5,3.63-10.08,7.38-20.3,7.38s-15.33-3.75-20.29-7.38c-4.65-3.4-9-6.62-17.94-6.62s-13.28,3.22-17.93,6.62c-5,3.63-10.08,7.38-20.29,7.38a29.05,29.05,0,0,1-12.49-2.5,43.18,43.18,0,0,1-7.81-4.88c-4.64-3.4-9-6.62-17.93-6.62s-13.29,3.22-17.94,6.62c-4.95,3.63-10.08,7.38-20.29,7.38a30.22,30.22,0,0,1-10.85-1.81c171.7.9,214.17-74.76,221.47-132.6a161.52,161.52,0,0,1,8.3,31.25A164.67,164.67,0,0,1,642.81,446.61Z"/><path class="cls-26" d="M610.44,348.89a163.67,163.67,0,0,0-272.9,173.76,25.6,25.6,0,0,1-4-1.32q-1.57-3.08-3-6.23A163.67,163.67,0,0,1,610.44,348.89Z"/><path class="cls-27" d="M957,522.46h0a2,2,0,0,1-2.1,2c-8.83-.47-13.59-4-18.2-7.32s-9-6.62-17.94-6.62a25.54,25.54,0,0,0-10.37,2,38.08,38.08,0,0,0-7.56,4.67c-4.18,3.06-8.47,6.2-15.82,7.11a34.69,34.69,0,0,1-4.48.27c-10.22,0-15.34-3.75-20.3-7.38-4.65-3.4-9-6.62-17.94-6.62s-13.29,3.22-17.93,6.62c-5,3.63-10.09,7.38-20.3,7.38s-15.34-3.75-20.3-7.38c-4.64-3.4-9-6.62-17.93-6.62a29.61,29.61,0,0,0-5.24.43c-5.6,1-9.07,3.53-12.7,6.19-4.81,3.52-9.78,7.16-19.41,7.37h-.88c-10.22,0-15.34-3.75-20.3-7.38-4.63-3.39-9-6.61-17.89-6.62h0c-8.9,0-13.29,3.22-17.94,6.62-5,3.63-10.08,7.38-20.29,7.38A28.2,28.2,0,0,1,635,520c-.67-.42-1.32-.86-2-1.31s-1.43-1-2.13-1.53c-.88-.64-1.75-1.28-2.65-1.89a24.68,24.68,0,0,0-15.28-4.73c-8.91,0-13.29,3.22-17.94,6.62-5,3.63-10.08,7.38-20.3,7.38-1,0-1.89,0-2.77-.1-8.41-.61-13-4-17.52-7.28-.76-.56-1.51-1.11-2.28-1.63l-.63-.43a24.62,24.62,0,0,0-15-4.56c-8.9,0-13.28,3.22-17.93,6.62-5,3.63-10.08,7.38-20.29,7.38s-15.34-3.75-20.3-7.38c-4.64-3.4-9-6.62-17.93-6.62s-13.29,3.22-17.94,6.62c-4.95,3.63-10.08,7.38-20.29,7.38s-15.34-3.75-20.3-7.38c-.46-.33-.91-.67-1.37-1-4.18-3-8.54-5.63-16.56-5.63a24.51,24.51,0,0,0-12.65,3.08,52.25,52.25,0,0,0-5.28,3.54c-5,3.63-10.09,7.38-20.3,7.38a38.07,38.07,0,0,1-4.14-.22,27.78,27.78,0,0,1-7.67-2,42,42,0,0,1-8.49-5.19c-4.64-3.4-9-6.62-17.93-6.62s-13.29,3.22-17.93,6.62c-5,3.63-10.08,7.38-20.29,7.38A29.56,29.56,0,0,1,257,522.3a41.73,41.73,0,0,1-8.44-5.16c-4.64-3.4-9-6.62-17.93-6.62s-13.29,3.22-17.93,6.62c-5,3.63-10.08,7.38-20.29,7.38s-15.34-3.75-20.3-7.38c-4.64-3.4-9-6.62-17.93-6.62s-13.29,3.22-17.93,6.62c-5,3.63-10.08,7.38-20.3,7.38s-15.33-3.75-20.29-7.38c-4.64-3.4-9-6.62-17.93-6.62s-13.29,3.22-17.94,6.62c-5,3.63-10.08,7.38-20.29,7.38s-15.34-3.75-20.3-7.38c-4.29-3.15-8.37-6.14-16-6.57a2,2,0,0,1-1.91-2h0a2,2,0,0,1,2.1-2c8.84.48,13.6,4,18.19,7.34s9,6.61,17.94,6.61,13.29-3.21,17.93-6.61c5-3.63,10.08-7.39,20.3-7.39s15.33,3.76,20.29,7.39c4.65,3.4,9,6.61,17.93,6.61s13.29-3.21,17.94-6.61c5-3.63,10.08-7.39,20.29-7.39s15.34,3.76,20.3,7.39c4.64,3.4,9,6.61,17.93,6.61s13.29-3.21,17.93-6.61c5-3.63,10.08-7.39,20.29-7.39s15.32,3.74,20.27,7.37l0,0c4.64,3.4,9,6.61,17.93,6.61s13.28-3.21,17.93-6.61c5-3.63,10.08-7.39,20.29-7.39,1,0,1.94,0,2.84.11a27.56,27.56,0,0,1,9.81,2.47,35,35,0,0,1,5.44,3.22c.75.52,1.48,1.06,2.21,1.59,1,.75,2,1.49,3.1,2.19a24.57,24.57,0,0,0,14.83,4.42c8.66,0,13.05-3,17.56-6.34l.37-.27c5-3.63,10.09-7.39,20.3-7.39a28.47,28.47,0,0,1,17.4,5.32c1,.67,2,1.37,2.9,2.07,4.64,3.4,9,6.61,17.93,6.61s13.29-3.21,17.93-6.61c5-3.63,10.09-7.39,20.3-7.39s15.34,3.76,20.29,7.39c4.65,3.4,9,6.61,17.94,6.61s13.28-3.21,17.93-6.61c5-3.63,10.08-7.39,20.29-7.39a28.42,28.42,0,0,1,14.33,3.42,45.07,45.07,0,0,1,4.72,3.06l1.25.91c4.18,3.06,8.16,6,15.42,6.52.8.06,1.63.09,2.51.09,8.91,0,13.29-3.21,17.94-6.61,5-3.63,10.08-7.39,20.3-7.39a28.35,28.35,0,0,1,16.92,5c1.17.78,2.27,1.58,3.37,2.39s2.47,1.8,3.77,2.63c.56.35,1.13.7,1.73,1a24.58,24.58,0,0,0,12.44,3c8.9,0,13.29-3.21,17.93-6.61,5-3.63,10.09-7.39,20.3-7.39.54,0,1.06,0,1.57,0,9.18.37,14,3.92,18.72,7.36,4.22,3.08,8.21,6,15.57,6.53.75,0,1.54.08,2.37.08,8.9,0,13.29-3.21,17.93-6.61,3.53-2.58,7.15-5.23,12.62-6.54a32.3,32.3,0,0,1,7.68-.85c10.21,0,15.34,3.76,20.29,7.39,4.65,3.4,9,6.61,17.94,6.61s13.29-3.21,17.93-6.61c5-3.63,10.09-7.39,20.3-7.39s15.34,3.76,20.3,7.39c4.64,3.4,9,6.61,17.94,6.61a27.55,27.55,0,0,0,7.94-1.06c4.09-1.23,7-3.35,10-5.55.66-.49,1.33-1,2-1.45a28.79,28.79,0,0,1,18.29-5.94c10.22,0,15.34,3.76,20.3,7.39,4.31,3.15,8.39,6.13,16,6.56A2,2,0,0,1,957,522.46Z"/><path class="cls-28" d="M440.87,525a23.94,23.94,0,0,1-4.46,11.31,20.65,20.65,0,0,1-9.61,7.43,16.34,16.34,0,0,1-12.17-.46,25.51,25.51,0,0,1-9.05-7,2,2,0,0,1,.22-2.82,1.72,1.72,0,0,1,.37-.25,2,2,0,0,1,2.35.35l0,0a21.17,21.17,0,0,0,7.84,5.28,11.15,11.15,0,0,0,8.39-.27c5.23-2.33,8.8-8.48,9-14.13a10.82,10.82,0,0,0-2.27-7.35,12.17,12.17,0,0,0-6.69-3.89,24.47,24.47,0,0,0-4.37-.63c-.76,0-1.53,0-2.31,0-.39,0-.73,0-1.1,0a9.42,9.42,0,0,0-1.08.1,17.31,17.31,0,0,0-7.69,2.75c-4.62,3.05-8.34,8.44-11.76,14.19s-6.63,12.08-10.1,18.32a211.86,211.86,0,0,1-14.16,22.6,149,149,0,0,1-10.9,13.4A152.59,152.59,0,0,1,326.63,612a183,183,0,0,1-19.82,10.25c-3.39,1.5-6.81,2.94-10.27,4.24l-2.6,1-2.78,1c-1.87.62-3.75,1.2-5.66,1.72a94.75,94.75,0,0,1-23.77,3.4A89,89,0,0,1,250.2,633a90.69,90.69,0,0,1-12.66-2.34c-2.08-.53-4.13-1.14-6.16-1.81a103.1,103.1,0,0,1-25.2-12.51,113.74,113.74,0,0,1-11-8.44,135.1,135.1,0,0,1-29.62-37,144.27,144.27,0,0,1-7.82-16.64,136.05,136.05,0,0,1-7.86-28.5A118.51,118.51,0,0,1,148.48,501a100.46,100.46,0,0,1,4.57-25.47,87.44,87.44,0,0,1,12.07-24.2,86.09,86.09,0,0,1,19.37-19.53c.93-.67,1.86-1.33,2.81-2s1.92-1.28,2.77-1.79l1.44-.89c1.29-.8,2.59-1.59,3.93-2.33,3.62-2.09,7.42-4,11.3-5.72a127.38,127.38,0,0,1,12-4.59,116.34,116.34,0,0,1,38.6-5.52,127.94,127.94,0,0,1,25.58,3.26,147.94,147.94,0,0,1,25.34,8.3q4.43,1.88,8.7,4c-.3,2.24-.56,4.49-.76,6.75q-.71,7.55-.71,15.28V447a164.35,164.35,0,0,0,5.94,43.47c-1.81-1.79-3.7-3.55-5.63-5.27A151.46,151.46,0,0,0,301.69,474a119.55,119.55,0,0,0-24.35-13.19c-2.14-.85-4.3-1.61-6.46-2.28a82.75,82.75,0,0,0-12.76-2.92,71.76,71.76,0,0,0-19.25-.27c-.65.08-1.31.17-2,.27-2,.3-4,.7-6,1.15-2.64.65-5.27,1.41-7.89,2.33s-5.22,2-7.78,3.23c-1.3.58-2.56,1.26-3.84,1.92-.69.34-1.18.63-1.73.93s-1.07.62-1.6.94a45.85,45.85,0,0,0-18.75,22.26c-4,9.64-5.38,21.22-4.4,33a108.18,108.18,0,0,0,28.51,63.7c.48.51,1,1,1.46,1.5a81.88,81.88,0,0,0,18.62,14.19,68,68,0,0,0,46.7,7.25c1.51-.29,3-.63,4.52-1l2.25-.6,2.39-.71c3.2-1,6.35-2,9.48-3.12a161.83,161.83,0,0,0,18.27-7.77,133.44,133.44,0,0,0,44-34.87,202.43,202.43,0,0,0,13.81-19c3.81-5.78,7.46-11.79,11.63-17.82a84.45,84.45,0,0,1,7-8.9,38.35,38.35,0,0,1,9.48-7.71,27.36,27.36,0,0,1,12.28-3.38c1-.05,2.09,0,3.08,0s2,.15,3,.28a33.18,33.18,0,0,1,6,1.35,23.24,23.24,0,0,1,5.78,2.82,18.1,18.1,0,0,1,4.8,4.72,17.2,17.2,0,0,1,2.67,6.16A19.77,19.77,0,0,1,440.87,525Z"/><path class="cls-29" d="M321.45,490.42c-1.81-1.79-3.7-3.55-5.63-5.27A151.46,151.46,0,0,0,301.69,474a114.39,114.39,0,0,0-30.81-15.47,75.87,75.87,0,0,0-32-3.19c-.65.08-1.31.17-2,.27,4.6-8.73,21-30.55,71.37-35q4.43,1.88,8.7,4a165,165,0,0,0-1.47,22,164.34,164.34,0,0,0,5.94,43.81Z"/><path class="cls-29" d="M440.87,525a23.94,23.94,0,0,1-4.46,11.31,20.65,20.65,0,0,1-9.61,7.43,16.34,16.34,0,0,1-12.17-.46,25.51,25.51,0,0,1-9.05-7,2,2,0,0,1,.22-2.82,1.72,1.72,0,0,1,.37-.25,2,2,0,0,1,2.35.35l0,0a21.17,21.17,0,0,0,7.84,5.28,11.15,11.15,0,0,0,8.39-.27c5.23-2.33,8.8-8.48,9-14.13a10.82,10.82,0,0,0-2.27-7.35,12.17,12.17,0,0,0-6.69-3.89,24.47,24.47,0,0,0-4.37-.63c-.76,0-1.53,0-2.31,0-.39,0-.73,0-1.1,0a9.42,9.42,0,0,0-1.08.1,17.31,17.31,0,0,0-7.69,2.75c-4.62,3.05-8.34,8.44-11.76,14.19s-6.63,12.08-10.1,18.32a211.86,211.86,0,0,1-14.16,22.6,149,149,0,0,1-10.9,13.4A152.59,152.59,0,0,1,326.63,612a183,183,0,0,1-19.82,10.25c-3.39,1.5-6.81,2.94-10.27,4.24l-2.6,1-2.78,1c-1.87.62-3.75,1.2-5.66,1.72a94.75,94.75,0,0,1-23.77,3.4,91.21,91.21,0,0,1-24.19-2.92,101.25,101.25,0,0,1-31.36-14.32c-18.73-24.52-18.48-44.26-11.5-59.09a104.86,104.86,0,0,0,20.22,29.3,77.89,77.89,0,0,0,29.92,19.21,68.22,68.22,0,0,0,35.4,2.23c1.51-.29,3-.63,4.52-1l2.25-.6,2.39-.71c3.2-1,6.35-2,9.48-3.12a161.83,161.83,0,0,0,18.27-7.77,133.44,133.44,0,0,0,44-34.87,202.43,202.43,0,0,0,13.81-19c3.81-5.78,7.46-11.79,11.63-17.82a84.45,84.45,0,0,1,7-8.9,38.35,38.35,0,0,1,9.48-7.71,27.36,27.36,0,0,1,12.28-3.38c1-.05,2.09,0,3.08,0s2,.15,3,.28a33.18,33.18,0,0,1,6,1.35,23.24,23.24,0,0,1,5.78,2.82,18.1,18.1,0,0,1,4.8,4.72,17.2,17.2,0,0,1,2.67,6.16A19.77,19.77,0,0,1,440.87,525Z"/><path class="cls-30" d="M440.87,525a23.94,23.94,0,0,1-4.46,11.31,20.65,20.65,0,0,1-9.61,7.43,16.34,16.34,0,0,1-12.17-.46,25.51,25.51,0,0,1-9.05-7,2,2,0,0,1,.22-2.82,1.72,1.72,0,0,1,.37-.25,2,2,0,0,1,2.35.35l0,0a21.17,21.17,0,0,0,7.84,5.28,11.15,11.15,0,0,0,8.39-.27c5.23-2.33,8.8-8.48,9-14.13a10.82,10.82,0,0,0-2.27-7.35,12.17,12.17,0,0,0-6.69-3.89,24.47,24.47,0,0,0-4.37-.63c-.76,0-1.53,0-2.31,0-.39,0-.73,0-1.1,0a9.42,9.42,0,0,0-1.08.1,17.31,17.31,0,0,0-7.69,2.75c-4.62,3.05-8.34,8.44-11.76,14.19s-6.63,12.08-10.1,18.32a211.86,211.86,0,0,1-14.16,22.6,149,149,0,0,1-10.9,13.4A152.59,152.59,0,0,1,326.63,612a183,183,0,0,1-19.82,10.25c-3.39,1.5-6.81,2.94-10.27,4.24l-2.6,1-2.78,1c-1.87.62-3.75,1.2-5.66,1.72a94.75,94.75,0,0,1-23.77,3.4,91.21,91.21,0,0,1-24.19-2.92c-2.08-.53-4.13-1.14-6.16-1.81-13.59-16.79-18.31-31.41-17.94-43.8.48.51,1,1,1.46,1.5a77.89,77.89,0,0,0,29.92,19.21,68.22,68.22,0,0,0,35.4,2.23c1.51-.29,3-.63,4.52-1l2.25-.6,2.39-.71c3.2-1,6.35-2,9.48-3.12a161.83,161.83,0,0,0,18.27-7.77,133.44,133.44,0,0,0,44-34.87,202.43,202.43,0,0,0,13.81-19c3.81-5.78,7.46-11.79,11.63-17.82a84.45,84.45,0,0,1,7-8.9,38.35,38.35,0,0,1,9.48-7.71,27.36,27.36,0,0,1,12.28-3.38c1-.05,2.09,0,3.08,0s2,.15,3,.28a33.18,33.18,0,0,1,6,1.35,23.24,23.24,0,0,1,5.78,2.82,18.1,18.1,0,0,1,4.8,4.72,17.2,17.2,0,0,1,2.67,6.16A19.77,19.77,0,0,1,440.87,525Z"/><path class="cls-28" d="M929,549.6A46.66,46.66,0,0,1,917.57,565a82.55,82.55,0,0,1-7,5.78c-2.45,1.67-4.9,3.42-7.44,4.85a145.15,145.15,0,0,1-15.47,8c-2.66,1.16-5.41,2.2-8.13,3.31l-4.2,1.4-2.1.7a22,22,0,0,1-2.14.63l-4.33,1.13c-.72.18-1.44.4-2.17.55l-.91.18-1.31.25-4.44.84c-1.49.21-3,.37-4.51.56-3,.45-6.07.47-9.12.65-1.53,0-3.07,0-4.61-.05h-.09c-1.5,0-3,0-4.51-.21l-4.61-.42c-1.54-.19-3.05-.46-4.58-.7l-2.29-.37c-.76-.15-1.51-.33-2.26-.5l-4.52-1-2-.59c-2.3-.67-4.61-1.33-6.82-2.2-1.44-.55-2.91-1-4.32-1.63l-4.21-1.83a129.39,129.39,0,0,1-16-8.7c-2.59-1.57-5-3.34-7.47-5l-3.57-2.68q-1.8-1.33-3.51-2.74l-3.44-2.81-3.33-2.9c-2.25-1.91-4.32-3.95-6.48-5.93-4.17-4.06-8.28-8.18-12.14-12.44-5.27-5.72-10.24-11.59-15-17.54q-1.65-2-3.25-4.07c-1.21-1.52-2.4-3.05-3.59-4.58-.7-.9-1.39-1.81-2.07-2.71q-4.08-5.32-8-10.67l-1.24-1.67-.31-.42-.15-.21a.92.92,0,0,0-.13-.16l-.35-.38c-.23-.26-.44-.55-.68-.78s-.47-.43-.69-.66a13.39,13.39,0,0,0-2.84-2A16.89,16.89,0,0,0,702,494h0a28.17,28.17,0,0,0-4.07-.59,43.23,43.23,0,0,0-10.68.95c-.92.18-1.85.39-2.79.62a91.1,91.1,0,0,0-9.64,3,138.5,138.5,0,0,0-12.95,5.55,236.66,236.66,0,0,0-23.12,13c-.6-.32-1.17-.67-1.73-1-1.3-.83-2.52-1.72-3.77-2.63s-2.2-1.61-3.37-2.39a162.24,162.24,0,0,0,12-46c0-.38.09-.77.13-1.15.88-.35,1.76-.68,2.64-1,5.37-2,10.91-3.8,16.69-5.33l1-.27a122.35,122.35,0,0,1,19.41-3.53c1.83-.18,3.7-.31,5.61-.37a76.68,76.68,0,0,1,16.27,1,62.24,62.24,0,0,1,11.75,3.32,53.91,53.91,0,0,1,11.3,6.18,51.7,51.7,0,0,1,9.42,8.75l1.94,2.45c.63.82,1.17,1.67,1.74,2.51l.85,1.27.16.27.13.21.26.43,1,1.72c2.75,4.6,5.53,9.12,8.34,13.6,2.51,4,5.05,7.9,7.65,11.75.81,1.2,1.62,2.4,2.44,3.58q3.68,5.35,7.55,10.47c3.08,4.14,6.31,8.06,9.59,11.94,1.69,1.86,3.32,3.83,5.06,5.61l2.59,2.74,2.66,2.62c.87.9,1.78,1.74,2.69,2.57l2.74,2.5c1.89,1.56,3.72,3.23,5.67,4.67a94.94,94.94,0,0,0,8.88,6.25c1,.64,2.06,1.27,3.1,1.88l3.13,1.73c1,.59,2.13,1,3.19,1.57,2.12,1.11,4.35,1.87,6.53,2.81l3.35,1.12c.57.18,1.12.38,1.69.55l1.71.45c1.14.28,2.28.62,3.43.87l3.49.66a1,1,0,0,0,.17,0c1.11.24,2.23.35,3.35.48s2.36.31,3.55.38c2.38.07,4.77.33,7.19.18l3.63-.09,3.63-.34,1.83-.16c.23,0,.47-.06.7-.1l1.12-.18,3.66-.58c.61-.09,1.22-.21,1.82-.36l1.82-.42,3.66-.83c2.4-.73,4.83-1.38,7.25-2.18a127,127,0,0,0,14.19-5.65c2.33-1,4.44-2.27,6.63-3.45a66.78,66.78,0,0,0,6-4,33.24,33.24,0,0,0,9-9.75,16.37,16.37,0,0,0,1.94-5.52,12.87,12.87,0,0,0-.26-5.62,16.32,16.32,0,0,0-2.6-5.36,18.41,18.41,0,0,0-4.62-4.3,16.92,16.92,0,0,0-5.8-2.49,12.79,12.79,0,0,0-5.94.1l-.71.18c-.23.09-.44.2-.67.3a5.85,5.85,0,0,0-1.3.65l-.63.4a3.13,3.13,0,0,0-.66.47c-.45.38-.93.75-1.36,1.14a15.61,15.61,0,0,0-4,5.15,6.23,6.23,0,0,0-.22,5.17,5.54,5.54,0,0,0,4.06,3.14,5.92,5.92,0,0,0,5.2-1.74,13.6,13.6,0,0,0,3.19-6.14h0a2,2,0,0,1,3.91.81,18,18,0,0,1-3.55,8.54,11.86,11.86,0,0,1-4.1,3.13,10.71,10.71,0,0,1-5.28.94,11.49,11.49,0,0,1-9-5.62,13,13,0,0,1-.93-10.63,19.06,19.06,0,0,1,1.46-3.35,25.07,25.07,0,0,1,3.46-4.79l.14-.16c.52-.58,1.07-1.1,1.61-1.65a7.74,7.74,0,0,1,.93-.82l1-.81a12.88,12.88,0,0,1,2.2-1.41c.38-.21.76-.43,1.15-.63l1.22-.48a20.26,20.26,0,0,1,3.73-1,22.77,22.77,0,0,1,6.43-.2c.5.05,1,.12,1.49.21a27.35,27.35,0,0,1,8,2.75,29.29,29.29,0,0,1,7.92,6,27.89,27.89,0,0,1,5.4,8.75C932.35,535.63,931.7,543.43,929,549.6Z"/><path class="cls-29" d="M719.6,512.15q-4.08-5.32-8-10.67l-1.24-1.67-.31-.42-.15-.21a.92.92,0,0,0-.13-.16l-.35-.38c-.23-.26-.44-.55-.68-.78s-.47-.43-.69-.66a13.39,13.39,0,0,0-2.84-2A17.21,17.21,0,0,0,702,494a28.17,28.17,0,0,0-4.07-.59,43.23,43.23,0,0,0-10.68.95A83.82,83.82,0,0,0,674.8,498a138.5,138.5,0,0,0-12.95,5.55,236.66,236.66,0,0,0-23.12,13c-.6-.32-1.17-.67-1.73-1-1.3-.83-2.52-1.72-3.77-2.63s-2.2-1.61-3.37-2.39A162.49,162.49,0,0,0,642,463.39c.88-.35,1.76-.68,2.64-1a178.86,178.86,0,0,1,17.72-5.6,122.35,122.35,0,0,1,19.41-3.53c1.83-.18,3.7-.31,5.61-.37C701.9,462.24,721.71,481,719.6,512.15Z"/><path class="cls-29" d="M929,549.6A46.66,46.66,0,0,1,917.57,565a82.55,82.55,0,0,1-7,5.78c-2.45,1.67-4.9,3.42-7.44,4.85a145.15,145.15,0,0,1-15.47,8c-2.66,1.16-5.41,2.2-8.13,3.31l-4.2,1.4-2.1.7a22,22,0,0,1-2.14.63l-4.33,1.13c-.72.18-1.44.4-2.17.55l-2.22.43-4.44.84c-1.49.21-3,.37-4.51.56-3,.45-6.07.47-9.12.65-1.53,0-3.07,0-4.61-.05s-3.07,0-4.6-.21l-4.61-.42c-1.54-.19-3.05-.46-4.58-.7l-2.29-.37c-.76-.15-1.51-.33-2.26-.5l-4.52-1-2-.59c1.09-11.36-1.95-21.7-6.76-30.62,1,.64,2.06,1.27,3.1,1.88l3.13,1.73c1,.59,2.13,1,3.19,1.57,2.12,1.11,4.35,1.87,6.53,2.81l3.35,1.12c.57.18,1.12.38,1.69.55l1.71.45c1.14.28,2.28.62,3.43.87l3.49.66a34.69,34.69,0,0,0,3.52.51c1.18.12,2.36.31,3.55.38,2.38.07,4.77.33,7.19.18l3.63-.09,3.63-.34,1.83-.16c.61-.06,1.21-.19,1.82-.28l3.66-.58c.61-.09,1.22-.21,1.82-.36l1.82-.42,3.66-.83c2.4-.73,4.83-1.38,7.25-2.18a127,127,0,0,0,14.19-5.65c2.33-1,4.44-2.27,6.63-3.45a66.78,66.78,0,0,0,6-4,33.24,33.24,0,0,0,9-9.75,16.37,16.37,0,0,0,1.94-5.52,12.87,12.87,0,0,0-.26-5.62,16.32,16.32,0,0,0-2.6-5.36,18.41,18.41,0,0,0-4.62-4.3,16.92,16.92,0,0,0-5.8-2.49,12.79,12.79,0,0,0-5.94.1l-.71.18c-.23.09-.44.2-.67.3a5.85,5.85,0,0,0-1.3.65l-.63.4a3.13,3.13,0,0,0-.66.47c-.45.38-.93.75-1.36,1.14a15.61,15.61,0,0,0-4,5.15,6.23,6.23,0,0,0-.22,5.17,5.54,5.54,0,0,0,4.06,3.14,5.92,5.92,0,0,0,5.2-1.74,13.6,13.6,0,0,0,3.19-6.14h0a2,2,0,0,1,3.91.81,18,18,0,0,1-3.55,8.54,11.86,11.86,0,0,1-4.1,3.13,10.71,10.71,0,0,1-5.28.94,11.49,11.49,0,0,1-9-5.62,13,13,0,0,1-.93-10.63,19.06,19.06,0,0,1,1.46-3.35,25.07,25.07,0,0,1,3.46-4.79l.14-.16c.52-.58,1.07-1.1,1.61-1.65a7.74,7.74,0,0,1,.93-.82l1-.81a12.88,12.88,0,0,1,2.2-1.41c.38-.21.76-.43,1.15-.63l1.22-.48a20.26,20.26,0,0,1,3.73-1,22.77,22.77,0,0,1,6.43-.2c.5.05,1,.12,1.49.21a27.35,27.35,0,0,1,8,2.75,29.29,29.29,0,0,1,7.92,6,27.89,27.89,0,0,1,5.4,8.75C932.35,535.63,931.7,543.43,929,549.6Z"/><path class="cls-30" d="M929,549.6A46.66,46.66,0,0,1,917.57,565a82.55,82.55,0,0,1-7,5.78c-2.45,1.67-4.9,3.42-7.44,4.85a145.15,145.15,0,0,1-15.47,8c-2.66,1.16-5.41,2.2-8.13,3.31l-4.2,1.4-2.1.7a22,22,0,0,1-2.14.63l-4.33,1.13c-.72.18-1.44.4-2.17.55l-2.22.43-4.44.84c-1.49.21-3,.37-4.51.56-3,.45-6.07.47-9.12.65-1.53,0-3.07,0-4.61-.05h-.09A49.3,49.3,0,0,0,837.84,571c1.11.24,2.23.35,3.35.48s2.36.31,3.55.38c2.38.07,4.77.33,7.19.18l3.63-.09,3.63-.34,1.83-.16c.61-.06,1.21-.19,1.82-.28l3.66-.58c.61-.09,1.22-.21,1.82-.36l1.82-.42,3.66-.83c2.4-.73,4.83-1.38,7.25-2.18a127,127,0,0,0,14.19-5.65c2.33-1,4.44-2.27,6.63-3.45a66.78,66.78,0,0,0,6-4,33.24,33.24,0,0,0,9-9.75,16.37,16.37,0,0,0,1.94-5.52,12.87,12.87,0,0,0-.26-5.62,16.32,16.32,0,0,0-2.6-5.36,18.41,18.41,0,0,0-4.62-4.3,16.92,16.92,0,0,0-5.8-2.49,12.79,12.79,0,0,0-5.94.1l-.71.18c-.23.09-.44.2-.67.3a5.85,5.85,0,0,0-1.3.65l-.63.4a3.13,3.13,0,0,0-.66.47c-.45.38-.93.75-1.36,1.14a15.61,15.61,0,0,0-4,5.15,6.23,6.23,0,0,0-.22,5.17,5.54,5.54,0,0,0,4.06,3.14,5.92,5.92,0,0,0,5.2-1.74,13.6,13.6,0,0,0,3.19-6.14h0a2,2,0,0,1,3.91.81,18,18,0,0,1-3.55,8.54,11.86,11.86,0,0,1-4.1,3.13,10.71,10.71,0,0,1-5.28.94,11.49,11.49,0,0,1-9-5.62,13,13,0,0,1-.93-10.63,19.06,19.06,0,0,1,1.46-3.35,25.07,25.07,0,0,1,3.46-4.79l.14-.16c.52-.58,1.07-1.1,1.61-1.65a7.74,7.74,0,0,1,.93-.82l1-.81a12.88,12.88,0,0,1,2.2-1.41c.38-.21.76-.43,1.15-.63l1.22-.48a20.26,20.26,0,0,1,3.73-1,22.77,22.77,0,0,1,6.43-.2c.5.05,1,.12,1.49.21a27.35,27.35,0,0,1,8,2.75,29.29,29.29,0,0,1,7.92,6,27.89,27.89,0,0,1,5.4,8.75C932.35,535.63,931.7,543.43,929,549.6Z"/><path class="cls-31" d="M929,549.6A46.66,46.66,0,0,1,917.57,565a82.55,82.55,0,0,1-7,5.78c-2.45,1.67-4.9,3.42-7.44,4.85a145.15,145.15,0,0,1-15.47,8c-2.66,1.16-5.41,2.2-8.13,3.31l-4.2,1.4-2.1.7a22,22,0,0,1-2.14.63l-4.33,1.13c-.72.18-1.44.4-2.17.55l-.91.18a49.37,49.37,0,0,0-1.93-20.18l1.12-.18,3.66-.58c.61-.09,1.22-.21,1.82-.36l1.82-.42,3.66-.83c2.4-.73,4.83-1.38,7.25-2.18a127,127,0,0,0,14.19-5.65c2.33-1,4.44-2.27,6.63-3.45a66.78,66.78,0,0,0,6-4,33.24,33.24,0,0,0,9-9.75,16.37,16.37,0,0,0,1.94-5.52,12.87,12.87,0,0,0-.26-5.62,16.32,16.32,0,0,0-2.6-5.36,18.41,18.41,0,0,0-4.62-4.3,16.92,16.92,0,0,0-5.8-2.49,12.79,12.79,0,0,0-5.94.1l-.71.18c-.23.09-.44.2-.67.3a5.85,5.85,0,0,0-1.3.65l-.63.4a3.13,3.13,0,0,0-.66.47c-.45.38-.93.75-1.36,1.14a15.61,15.61,0,0,0-4,5.15,6.23,6.23,0,0,0-.22,5.17,5.54,5.54,0,0,0,4.06,3.14,5.92,5.92,0,0,0,5.2-1.74,13.6,13.6,0,0,0,3.19-6.14h0a2,2,0,0,1,3.91.81,18,18,0,0,1-3.55,8.54,11.86,11.86,0,0,1-4.1,3.13,10.71,10.71,0,0,1-5.28.94,11.49,11.49,0,0,1-9-5.62,13,13,0,0,1-.93-10.63,19.06,19.06,0,0,1,1.46-3.35,25.07,25.07,0,0,1,3.46-4.79l.14-.16c.52-.58,1.07-1.1,1.61-1.65a7.74,7.74,0,0,1,.93-.82l1-.81a12.88,12.88,0,0,1,2.2-1.41c.38-.21.76-.43,1.15-.63l1.22-.48a20.26,20.26,0,0,1,3.73-1,22.77,22.77,0,0,1,6.43-.2c.5.05,1,.12,1.49.21a27.35,27.35,0,0,1,8,2.75,29.29,29.29,0,0,1,7.92,6,27.89,27.89,0,0,1,5.4,8.75C932.35,535.63,931.7,543.43,929,549.6Z"/><path class="cls-32" d="M431.05,539.45l-.09,0h0l-10.39,5.81-4.53-10-1.63-3.61-8.47-18.77-1.62-3.61-.88-1.94-.32-.71,5.24-2.93.14-.08.13.2,4.68,7.44,4.49,7.13,10,15.94Z"/><path class="cls-33" d="M417.79,518.39a18.46,18.46,0,0,0-11.86-5.5l-2.82-6.27,5.39-3Z"/><path class="cls-34" d="M413.3,511.26a20.63,20.63,0,0,0-9-2l-1.2-2.66,5.39-3Z"/><path class="cls-2" d="M408.41,457.22c-11.15-20-30.83-30.19-44-22.86l-.1.06-.09.05-.41.25c-.2.12-.4.24-.59.37l-.13.1a14.57,14.57,0,0,0-1.72,1.42,16.16,16.16,0,0,0-3.3,4.73c-.13.27-.25.55-.37.83a19.91,19.91,0,0,0-.92,2.7c-2.64,9.65-.21,23.67,7.29,37.09.57,1,1.15,2,1.75,3s1.21,1.9,1.84,2.82a69,69,0,0,0,6,7.54c.53.57,1.06,1.11,1.59,1.65s1.07,1.05,1.61,1.55c.36.33.72.66,1.09,1,.73.64,1.46,1.25,2.19,1.82a44.37,44.37,0,0,0,4.45,3.07c.74.45,1.48.86,2.22,1.24,6,3,11.81,3.8,16.58,1.73l.15-.07.64-.3.42-.23.09-.05,0,0,.07,0a18.49,18.49,0,0,0,3.79-2.82C418.16,494.61,418.38,475.05,408.41,457.22Zm-44.56-20.65.27-.16.34-.17c6.81-3.21,17.76,3.43,27.26,15.72l.78,1c.27.35.53.7.78,1.06s.64.88,1,1.34c1.26,1.81,2.47,3.73,3.64,5.73.08.13.15.27.23.41l.63,1.09.2.37c.54,1,1.05,1.95,1.54,2.92l.72,1.43s0,0,0,0c.26.52.5,1.05.74,1.57s.46,1,.67,1.51a3.3,3.3,0,0,1,.19.43c.22.51.43,1,.64,1.53,6.27,15.48,6.36,29.38-.53,33.42l-.23.12-.07,0-.22.11c-8.4,4.13-25.42-5.47-36.06-23.4-.21-.36-.42-.72-.62-1.08l-.06-.12c-.06-.1-.12-.19-.17-.29-10.45-18.7-10-39-2.11-44.33l.43-.28Z"/><path class="cls-1" d="M404.79,459.23c-11.12-19.89-29.19-31-40.44-24.81l-.09.05-.41.24-.59.38-.13.1a14.57,14.57,0,0,0-1.72,1.42,16.16,16.16,0,0,0-3.3,4.73c-.13.27-.25.55-.37.83a23.11,23.11,0,0,0-.92,2.7c-2.64,9.65-.21,23.67,7.29,37.09.57,1,1.15,2,1.75,3s1.21,1.9,1.84,2.82a69,69,0,0,0,6,7.54c.53.57,1.06,1.11,1.59,1.65s1.07,1.05,1.61,1.55c.36.33.72.66,1.09,1,.73.64,1.46,1.25,2.19,1.82a44.37,44.37,0,0,0,4.45,3.07c.74.45,1.48.86,2.22,1.24,6,3,11.81,3.8,16.58,1.73l.15-.07.64-.3.42-.23.09-.05,0,0a13.85,13.85,0,0,0,3.59-3C415.72,495.14,414.54,476.68,404.79,459.23Zm-10.22,47.82-.24-.05c-8.83-2.09-20.2-10.92-28-24.3-.21-.36-.42-.72-.62-1.08l-.06-.12c-5.58-10-8-20.49-7.87-28.86,0-.29,0-.57,0-.84.28-7.2,2.55-12.73,6.42-14.89a7.73,7.73,0,0,1,1.54-.65h0c8.48-2.63,22.31,8.09,32.34,25.27l.63,1.09.2.37c.34.6.66,1.21,1,1.81s.7,1.32,1,2l.27.56s0,0,0,0c8.68,17.68,9.64,34.58,1.8,39C400.76,507.58,397.85,507.79,394.57,507.05Z"/><path class="cls-35" d="M404.56,504.41a8.49,8.49,0,0,1-2.13,1.7c-8.67,4.84-27-5.32-37.68-24.49s-9.78-40.09-1.11-44.93a8.54,8.54,0,0,1,2.56-.93c-6.88,7.13-7.08,26.16,2.65,43.57S394.89,506.54,404.56,504.41Z"/><path class="cls-36" d="M398.73,462.63c10.71,19.17,12.58,38.52,4.18,43.21s-26.41-5.63-37.12-24.8-10.07-39.93-1.67-44.62S388,443.46,398.73,462.63Z"/><g class="cls-37"><path class="cls-4" d="M411,487.3a.84.84,0,0,1-.28.09.87.87,0,0,1-1-.71c-.09-.59-.19-1.16-.3-1.73a.87.87,0,1,1,1.71-.32c.11.58.21,1.17.31,1.77A.88.88,0,0,1,411,487.3Z"/></g><g class="cls-37"><path class="cls-4" d="M410.15,482.66l-.24.09a.88.88,0,0,1-1-.66c-6.07-27.72-23.31-40.11-23.48-40.24a.86.86,0,0,1-.21-1.21.87.87,0,0,1,1.21-.21c.18.13,18,12.92,24.18,41.28A.88.88,0,0,1,410.15,482.66Z"/></g><path class="cls-33" d="M431.05,539.45l-10.49,5.86-6.16-13.66a67.22,67.22,0,0,1,13.42,2.67Z"/><path class="cls-34" d="M431,539.5l-10.39,5.81-4.53-10C420.85,536,426.59,537.21,431,539.5Z"/><ellipse class="cls-4" cx="422.81" cy="416.68" rx="24.11" ry="38.45"/><path class="cls-38" d="M541.13,394.13s-24,20.13-23.74,27.87,27.35,23.48,27.35,23.48"/><circle class="cls-39" cx="422.81" cy="428.39" r="13.9"/><circle class="cls-4" cx="420.43" cy="425.17" r="4.91"/><circle class="cls-4" cx="415.03" cy="418.35" r="2.45"/><path class="cls-31" d="M413.47,542.7s-19.31-9-2.53-22.15,11.35-.78,7.09,0-14.95,11.94-3.8,17.32Z"/><ellipse class="cls-40" cx="388.58" cy="324.97" rx="17.61" ry="7.65" transform="translate(-117.96 320.85) rotate(-39.44)"/><ellipse class="cls-40" cx="385.02" cy="349.09" rx="10.53" ry="4.57" transform="translate(-134.1 324.08) rotate(-39.44)"/><ellipse class="cls-40" cx="401.31" cy="333.8" rx="6.21" ry="2.7" transform="translate(-120.67 330.95) rotate(-39.44)"/><path class="cls-2" d="M721.18,586l-2.14,13L717,611.61l-4.92,29.94-.36,2.19-4.37.87c-4.65-1.4-7.92-3.79-11.11-6.13-2.87-2.1-5.64-4.14-9.45-5.38a26.79,26.79,0,0,0-8.48-1.24,29.61,29.61,0,0,0-5.24.43,23.36,23.36,0,0,0-3.69,1,23,23,0,0,0-2.75,1.17,44.54,44.54,0,0,0-6.26,4.07c-4.81,3.52-9.78,7.16-19.41,7.37h-.88a28.24,28.24,0,0,1-14.94-3.77,57.58,57.58,0,0,1-5.36-3.61L618,637.19c-4.06-2.87-8.38-5.32-16.12-5.33h0c-8.9,0-13.29,3.22-17.94,6.62a48.38,48.38,0,0,1-6.73,4.36l-1.47-3.76-8.76-22.32,15.44-3.07,115.66-23Z"/><path class="cls-1" d="M698,590.65l-14.77,2.94-13.48,2.69L652.1,599.8l-69.74,13.89v-.29l.27-8.89.22-7,.34-10.88L595,584.33l7-1.39,7.89-1.57,65.28-13a18,18,0,0,1,15.43,4.13,17.7,17.7,0,0,1,4.53,6h0a17.57,17.57,0,0,1,1.29,4Z"/><polygon class="cls-1" points="587.01 582.19 579.99 583.59 574.12 554.15 581.75 555.79 587.01 582.19"/><rect class="cls-1" x="581.92" y="573.36" width="7.16" height="12.39" transform="translate(1039.53 -107.86) rotate(78.74)"/><path class="cls-3" d="M672.7,568.86l-12.59,2.51-7.54,1.5-13.84,2.75-49.56,9.87.3-9.45.23-7.49.31-10.07,11.68-2.33,9.12-1.81,11.51-2.29h0l27.5-5.47A18.1,18.1,0,0,1,661,547.9a18.08,18.08,0,0,1,10.11,12.86l1.58,7.92Z"/><circle class="cls-4" cx="616.59" cy="594.63" r="6.71"/><circle class="cls-4" cx="638.73" cy="590.22" r="6.71"/><circle class="cls-4" cx="629.33" cy="565.45" r="4.68"/><circle class="cls-4" cx="649.07" cy="561.52" r="4.68"/><circle class="cls-4" cx="609.02" cy="569.5" r="4.68"/><circle class="cls-4" cx="660.88" cy="585.81" r="6.71"/><path class="cls-10" d="M721.18,586l-2.14,13L717,611.61l-4.92,29.94-.36,2.19-4.37.87c-4.65-1.4-7.92-3.79-11.11-6.13-2.87-2.1-5.64-4.14-9.45-5.38a26.79,26.79,0,0,0-8.48-1.24,29.61,29.61,0,0,0-5.24.43,23.36,23.36,0,0,0-3.69,1,23,23,0,0,0-2.75,1.17,44.54,44.54,0,0,0-6.26,4.07c-4.81,3.52-9.78,7.16-19.41,7.37h-.88a28.24,28.24,0,0,1-14.94-3.77,57.58,57.58,0,0,1-5.36-3.61L618,637.19C672.17,641.61,721.18,586,721.18,586Z"/><path class="cls-41" d="M666.6,634.41a44.54,44.54,0,0,0-6.26,4.07c-4.81,3.52-9.78,7.16-19.41,7.37h-.88a28.24,28.24,0,0,1-14.94-3.77C639.62,643,653.73,639.74,666.6,634.41Z"/><path class="cls-41" d="M719,599.06,717,611.61l-4.92,29.94-.36,2.19-4.37.87c-4.65-1.4-7.92-3.79-11.11-6.13-2.87-2.1-5.64-4.14-9.45-5.38a26.79,26.79,0,0,0-8.48-1.24,29.61,29.61,0,0,0-5.24.43,23.36,23.36,0,0,0-3.69,1C691.21,623.58,709.22,608.39,719,599.06Z"/><path class="cls-42" d="M717,611.61l-4.92,29.94-.36,2.19-4.37.87c-4.65-1.4-7.92-3.79-11.11-6.13-2.87-2.1-5.64-4.14-9.45-5.38A187.89,187.89,0,0,0,717,611.61Z"/><path class="cls-43" d="M698,590.65,652.1,599.8c21.85-6.5,30-21.7,33-30.6a18,18,0,0,1,11.3,13.35Z"/><path class="cls-44" d="M698,590.65l-28.25,5.63a46.23,46.23,0,0,0,20.82-23.78,17.84,17.84,0,0,1,5.82,10Z"/><path class="cls-45" d="M698,590.65l-14.77,2.94a45.59,45.59,0,0,0,11.87-15,17.57,17.57,0,0,1,1.29,4Z"/><path class="cls-46" d="M672.66,568.68l-33.93,6.94C659.47,571.49,655,546.3,655,546.3h0a18,18,0,0,1,16.06,14.46Z"/><path class="cls-47" d="M672.7,568.86l-20.13,4c9.79-6.94,8.86-21.07,8.4-25a18,18,0,0,1,10.11,12.86l1.58,7.92Z"/><path class="cls-48" d="M660.11,571.37c5.69-5.82,6.38-14.54,6.2-19.68a18,18,0,0,1,4.77,9.07l1.58,7.92,0,.18Z"/><path class="cls-49" d="M622.32,552.05c-.79.39-26.12,13-33.15,33.44l.3-9.45.23-7.49.31-10.07,11.68-2.33,9.12-1.81Z"/><path class="cls-50" d="M609.88,581.37c-3.61,2.51-20.66,15-27.51,32l.27-8.89.22-7,.34-10.88L595,584.33l7-1.39Z"/><path class="cls-51" d="M602,582.94c-5.39,4.35-13.66,11.95-19.35,21.57l.22-7,.34-10.88L595,584.33Z"/><path class="cls-52" d="M595,584.33a86.4,86.4,0,0,0-12.12,13.23l.34-10.88Z"/><path class="cls-53" d="M610.81,554.34c-6.8,4.58-15.9,12-21.34,21.7l.23-7.49.31-10.07,11.68-2.33Z"/><path class="cls-54" d="M601.69,556.15a67.16,67.16,0,0,0-12,12.4l.31-10.07Z"/><path class="cls-1" d="M457.65,663.89l-.07.21-2.14,6L454.07,674l-1.35,3.8c-5.65-1.28-9.33-4-12.93-6.61s-7.1-5.2-12.69-6.19h0a29.57,29.57,0,0,0-5.23-.43,25.86,25.86,0,0,0-9.61,1.64,35.72,35.72,0,0,0-8.33,5l-.06,0a49.32,49.32,0,0,1-6.37,4.17,28.58,28.58,0,0,1-13.86,3.17,37.79,37.79,0,0,1-3.81-.19,26.84,26.84,0,0,1-9.43-2.66,46.18,46.18,0,0,1-7.06-4.53c-.46-.33-.91-.67-1.37-1-.65-.47-1.31-.94-2-1.38a24.55,24.55,0,0,0-14.57-4.25c-1.13,0-2.19,0-3.19.15-.85-.79-1.68-1.59-2.49-2.41-.37-.36-.73-.73-1.09-1.1l-.36-.38q-2.19-2.3-4.19-4.76c-.55-.68-1.09-1.36-1.62-2.06a74.16,74.16,0,0,1-13.1-27c-.37-1.49-.69-3-1-4.52a67.6,67.6,0,0,1-.92-7.53l24,8.39,9.81,3.43.3.1,50,17.45,12.12,4.23,4.23,1.48,9.38,3.28,17.86,6.24Z"/><polygon class="cls-2" points="452.63 638.75 451.19 642.74 449.53 647.36 445.16 659.52 425.41 652.62 415.83 649.28 351.6 626.84 365.66 608.39 452.63 638.75"/><polygon class="cls-1" points="444.98 632.77 450.66 634.76 458.98 610.94 452.44 611.41 444.98 632.77"/><rect class="cls-1" x="443.53" y="625.55" width="6.02" height="10.41" transform="translate(1189.28 417.23) rotate(109.26)"/><polygon class="cls-3" points="450.25 614.49 448.63 619 446.93 623.73 442.78 635.26 428.3 630.2 422.2 628.07 375.22 611.66 389.28 593.21 450.25 614.49"/><circle class="cls-4" cx="418.91" cy="639.67" r="5.64"/><circle class="cls-4" cx="400.99" cy="633.41" r="5.64"/><circle class="cls-4" cx="411.71" cy="613.9" r="3.93"/><circle class="cls-4" cx="395.74" cy="608.32" r="3.93"/><circle class="cls-4" cx="428.14" cy="619.64" r="3.93"/><circle class="cls-4" cx="383.08" cy="627.15" r="5.64"/><path class="cls-5" d="M457.65,663.89l-.07.21-2.14,6L454.07,674l-1.35,3.8c-5.65-1.28-9.33-4-12.93-6.61s-7.1-5.2-12.69-6.19h0a29.57,29.57,0,0,0-5.23-.43,25.86,25.86,0,0,0-9.61,1.64,35.72,35.72,0,0,0-8.33,5l-.06,0a49.32,49.32,0,0,1-6.37,4.17,28.58,28.58,0,0,1-13.86,3.17,37.79,37.79,0,0,1-3.81-.19,26.84,26.84,0,0,1-9.43-2.66,46.18,46.18,0,0,1-7.06-4.53c-.46-.33-.91-.67-1.37-1-.65-.47-1.31-.94-2-1.38a24.55,24.55,0,0,0-14.57-4.25c-1.13,0-2.19,0-3.19.15-.85-.79-1.68-1.59-2.49-2.41-.37-.36-.73-.73-1.09-1.1l-.36-.38q-2.19-2.3-4.19-4.76c-.55-.68-1.09-1.36-1.62-2.06,13.57.73,42.37.71,69.11-9.72l12.12,4.23,4.23,1.48,9.38,3.28,17.86,6.24Z"/><path class="cls-6" d="M457.65,663.89l-.07.21-2.14,6L454.07,674l-1.35,3.8c-5.65-1.28-9.33-4-12.93-6.61s-7.1-5.2-12.69-6.19h0a29.57,29.57,0,0,0-5.23-.43,25.86,25.86,0,0,0-9.61,1.64,35.72,35.72,0,0,0-8.33,5l-.06,0a49.32,49.32,0,0,1-6.37,4.17,28.58,28.58,0,0,1-13.86,3.17,37.79,37.79,0,0,1-3.81-.19,26.84,26.84,0,0,1-9.43-2.66,46.18,46.18,0,0,1-7.06-4.53c-.46-.33-.91-.67-1.37-1-.65-.47-1.31-.94-2-1.38a24.55,24.55,0,0,0-14.57-4.25c-1.13,0-2.19,0-3.19.15-.85-.79-1.68-1.59-2.49-2.41-.37-.36-.73-.73-1.09-1.1l-.36-.38c14.52.8,47,.76,75.42-12.31l4.23,1.48,9.38,3.28,17.86,6.24Z"/><path class="cls-7" d="M457.65,663.89l-.07.21-2.14,6L454.07,674l-1.35,3.8c-5.65-1.28-9.33-4-12.93-6.61s-7.1-5.2-12.69-6.19h0a29.57,29.57,0,0,0-5.23-.43,25.86,25.86,0,0,0-9.61,1.64,35.72,35.72,0,0,0-8.33,5l-.06,0a49.32,49.32,0,0,1-6.37,4.17,28.58,28.58,0,0,1-13.86,3.17,37.79,37.79,0,0,1-3.81-.19,26.84,26.84,0,0,1-9.43-2.66,46.18,46.18,0,0,1-7.06-4.53c-.46-.33-.91-.67-1.37-1-.65-.47-1.31-.94-2-1.38,18.16-.33,44.59-3.29,67.33-15.54l17.86,6.24Z"/><path class="cls-8" d="M351.3,626.74c-9.81,2.48-23.43,1.35-31.94.23a68.7,68.7,0,0,1-1.88-12.05Z"/><path class="cls-9" d="M341.49,623.31a117.22,117.22,0,0,1-23.09-.86,67.6,67.6,0,0,1-.92-7.53Z"/><path class="cls-10" d="M452.63,638.75s-27.26,11.73-51.06,5.54l43.59,15.23Z"/><path class="cls-11" d="M451.19,642.74l-1.66,4.62-4.37,12.16-19.75-6.9-9.58-3.34C431.42,649.57,446,644.69,451.19,642.74Z"/><path class="cls-12" d="M449.53,647.36l-4.37,12.16-19.75-6.9A105.81,105.81,0,0,0,449.53,647.36Z"/><path class="cls-13" d="M450.25,614.49s-11.59,11.36-34.42,11.36l27,9.41Z"/><path class="cls-14" d="M448.63,619l-5.85,16.26-20.58-7.19C435.74,627,444.58,621.9,448.63,619Z"/><path class="cls-15" d="M446.93,623.73l-4.15,11.53L428.3,630.2A53.07,53.07,0,0,0,446.93,623.73Z"/><path class="cls-27" d="M545.39,675.86h0a2,2,0,0,1-1.55,2,33.52,33.52,0,0,1-7.3.75c-1,0-1.89,0-2.77-.1-8.41-.61-13-4-17.52-7.28-.76-.56-1.51-1.11-2.28-1.63l-.63-.43a24.62,24.62,0,0,0-15-4.56c-8.9,0-13.28,3.22-17.93,6.62-5,3.63-10.08,7.38-20.29,7.38a32.84,32.84,0,0,1-7.37-.77c-5.65-1.28-9.33-4-12.93-6.61-4.64-3.4-9-6.62-17.93-6.62s-13.29,3.22-17.94,6.62c-4.95,3.63-10.08,7.38-20.29,7.38s-15.34-3.75-20.3-7.38c-.46-.33-.91-.67-1.37-1-4.18-3-8.54-5.63-16.56-5.63-1.13,0-2.19,0-3.19.15a23.25,23.25,0,0,0-9.46,2.93,52.25,52.25,0,0,0-5.28,3.54c-5,3.63-10.09,7.38-20.3,7.38a38.07,38.07,0,0,1-4.14-.22,27.78,27.78,0,0,1-7.67-2,42,42,0,0,1-8.49-5.19c-4.64-3.4-9-6.62-17.93-6.62q-1.56,0-2.94.12a2,2,0,0,1-2.16-2h0a2,2,0,0,1,1.82-2c1-.09,2.13-.14,3.28-.14,1,0,1.94,0,2.84.11a27.56,27.56,0,0,1,9.81,2.47,35,35,0,0,1,5.44,3.22c.75.52,1.48,1.06,2.21,1.59,1,.75,2,1.49,3.1,2.19a24.57,24.57,0,0,0,14.83,4.42c8.66,0,13.05-3,17.56-6.34l.37-.27c3.72-2.72,7.54-5.52,13.53-6.75a33.42,33.42,0,0,1,6.77-.64,28.47,28.47,0,0,1,17.4,5.32c1,.67,1.95,1.37,2.9,2.07,4.64,3.4,9,6.61,17.93,6.61s13.29-3.21,17.93-6.61c5-3.63,10.09-7.39,20.3-7.39s15.34,3.76,20.29,7.39c3.46,2.53,6.78,5,11.92,6a30,30,0,0,0,6,.57c8.9,0,13.28-3.21,17.93-6.61,5-3.63,10.08-7.39,20.29-7.39A28.42,28.42,0,0,1,512.64,664a45.07,45.07,0,0,1,4.72,3.06l1.25.91c4.18,3.06,8.16,6,15.42,6.52.8.06,1.63.09,2.51.09a28.7,28.7,0,0,0,6.38-.66A2,2,0,0,1,545.39,675.86Z"/><rect class="cls-39" x="850.83" y="290.6" width="5.36" height="200.1" rx="2.68" transform="translate(-85.04 404.9) rotate(-25.46)"/><path class="cls-27" d="M774,634.51v.43a2.58,2.58,0,0,1-2.58,2.58h-.1c-.74-.54-1.49-1.06-2.27-1.55a24.38,24.38,0,0,0-14.34-4.11c-8.9,0-13.29,3.22-17.93,6.62-5,3.63-10.09,7.38-20.3,7.38a31.54,31.54,0,0,1-9.19-1.25c-4.65-1.4-7.92-3.79-11.11-6.13-4.64-3.4-9-6.62-17.93-6.62a29.61,29.61,0,0,0-5.24.43c-5.6,1-9.07,3.53-12.7,6.19-4.81,3.52-9.78,7.16-19.41,7.37h-.88c-10.22,0-15.34-3.75-20.3-7.38-4.63-3.39-9-6.61-17.89-6.62h0c-8.9,0-13.29,3.22-17.94,6.62a48.38,48.38,0,0,1-6.73,4.36,28.56,28.56,0,0,1-13.56,3,28.2,28.2,0,0,1-16.21-4.54c-.67-.42-1.32-.86-2-1.31s-1.43-1-2.13-1.53c-.88-.64-1.75-1.28-2.65-1.89a24.68,24.68,0,0,0-15.28-4.73,29,29,0,0,0-6.07.59,2,2,0,0,1-.84-3.92,33.11,33.11,0,0,1,6.91-.67,28.35,28.35,0,0,1,16.92,5c1.17.78,2.27,1.58,3.37,2.39s2.47,1.8,3.77,2.63c.56.35,1.13.7,1.73,1a27.65,27.65,0,0,0,24.53.18,45.56,45.56,0,0,0,5.84-3.83c5-3.63,10.09-7.39,20.3-7.39.54,0,1.06,0,1.57,0,9.18.37,14,3.92,18.72,7.36,4.22,3.08,8.21,6,15.57,6.53.75.05,1.54.08,2.37.08,8.9,0,13.29-3.21,17.93-6.61,3.53-2.58,7.15-5.23,12.62-6.54a32.3,32.3,0,0,1,7.68-.85c10.21,0,15.34,3.76,20.29,7.39,3.8,2.78,7.42,5.43,13.48,6.3a30.51,30.51,0,0,0,4.46.31c8.9,0,13.29-3.21,17.93-6.61,5-3.63,10.09-7.39,20.3-7.39A28.2,28.2,0,0,1,771,632.41c1.06.66,2.06,1.36,3,2.07Z"/><circle class="cls-35" cx="170.6" cy="128.76" r="43.55"/><circle class="cls-35" cx="128.18" cy="146.85" r="25.45"/><circle class="cls-35" cx="97.6" cy="155.71" r="16.6"/><circle class="cls-35" cx="214.15" cy="148.1" r="24.21"/><circle class="cls-35" cx="870.23" cy="217.94" r="43.55"/><circle class="cls-35" cx="827.81" cy="236.03" r="25.45"/><circle class="cls-35" cx="797.23" cy="244.89" r="16.6"/><circle class="cls-35" cx="913.78" cy="237.27" r="24.21"/><circle class="cls-35" cx="547.25" cy="43.55" r="43.55"/><circle class="cls-35" cx="504.83" cy="61.65" r="25.45"/><circle class="cls-35" cx="474.25" cy="70.5" r="16.6"/><circle class="cls-35" cx="590.8" cy="62.89" r="24.21"/><path class="cls-39" d="M813,319.47s-1.43-7.62-10.7-8.37-11.63-4.45-11.63-4.45S792.81,330,813,319.47Z"/><path class="cls-39" d="M813.12,319.86s-14.27,3.11-15.61,22.71C797.51,342.57,817.83,341.18,813.12,319.86Z"/><path class="cls-39" d="M821.39,317.89s5.68-39,49.29-45.56,61.68,43.22,93.68,30.32c0,0-26.58,51.36-74.07,31.48S821.39,317.89,821.39,317.89Z"/><path class="cls-55" d="M827.8,317.58a9.41,9.41,0,0,1-7.76,9.27,9,9,0,0,1-1.65.15,9.42,9.42,0,0,1-2.62-.37,9.53,9.53,0,0,1-6.4-6.32,9.42,9.42,0,0,1,9-12.15,7.64,7.64,0,0,1,1.08.07,9.41,9.41,0,0,1,8.27,8.3A9,9,0,0,1,827.8,317.58Z"/><path class="cls-56" d="M811.56,324.05a9.24,9.24,0,0,1-2.19-3.74,9.42,9.42,0,0,1,9-12.15,7.64,7.64,0,0,1,1.08.07C815.68,311.46,810.76,317.09,811.56,324.05Z"/><path class="cls-57" d="M816.32,308.39c-3,2.78-6.36,6.91-7,11.92a9.44,9.44,0,0,1,7-11.92Z"/><path class="cls-58" d="M827.8,317.58a9.41,9.41,0,0,1-7.76,9.27,9,9,0,0,1-1.65.15,9.42,9.42,0,0,1-2.62-.37,17.89,17.89,0,0,0,10-14.95,9.4,9.4,0,0,1,2,4.85A9,9,0,0,1,827.8,317.58Z"/><path class="cls-59" d="M827.8,317.58a9.41,9.41,0,0,1-7.76,9.27,17.24,17.24,0,0,0,7.7-10.32A9,9,0,0,1,827.8,317.58Z"/><path class="cls-4" d="M861.43,306.19l-12.1-3.47,1.74-6.05,16.15-13.06,8,2.31L870.64,302l2.87.82-1.82,6.35-2.87-.83-1.29,4.48-7.39-2.12Zm2.38-6.18,2.24-7.8-7.39,6.32Z"/><path class="cls-4" d="M892.21,289.74c7.84,2.25,9.22,8.87,6.9,16.93s-7,13-14.85,10.76-9.18-8.81-6.84-17S884.38,287.49,892.21,289.74Zm-2,6.9c-3.25-.93-4.52,2.1-5.6,5.87s-1.63,7.09,1.61,8,4.51-2.06,5.63-5.94S893.48,297.58,890.23,296.64Z"/><path class="cls-4" d="M911.75,320.64l-12.09-3.47,1.73-6.05,16.15-13.06,8,2.31L921,316.42l2.88.82L922,323.59l-2.87-.83-1.29,4.48-7.39-2.12Zm2.38-6.19,2.24-7.8L909,313Z"/><circle class="cls-60" cx="213.39" cy="453.06" r="6.19"/><circle class="cls-60" cx="178.15" cy="502" r="5.04"/><circle class="cls-60" cx="188.99" cy="558.92" r="5.04"/><circle class="cls-60" cx="221.74" cy="600.08" r="4.3"/><path class="cls-23" d="M874.15,416l-2.1,5.43a12.6,12.6,0,0,0-5,.49,11.12,11.12,0,0,0-1.4.51,8.84,8.84,0,0,0-3.81,3,3.48,3.48,0,0,0-.22.36c-2,.06-2.49-.07-5-1.39a6.51,6.51,0,0,1-1.81-1.37,11.69,11.69,0,0,1,1.36-2,14.63,14.63,0,0,1,4.37-3.53,17.89,17.89,0,0,1,2.24-1,16,16,0,0,1,2.74-.76A18.54,18.54,0,0,1,874.15,416Z"/><path class="cls-21" d="M127.11,329.26c-4.08,12.51-10.45,35.26-11.7,58.11-.6,1.17-1.17,2.34-1.72,3.53l-2.21,4.84c-.39.87-.86,1.73-1.28,2.6s-.86,1.73-1.35,2.58a89.49,89.49,0,0,1-6.3,10,69.23,69.23,0,0,1-17.41,16.83,56.94,56.94,0,0,1-68.33-4.14A49,49,0,0,1,2.76,404,42,42,0,0,1,1,379.86a51.58,51.58,0,0,1,10.26-20.71A73.2,73.2,0,0,1,18.85,351a45.74,45.74,0,0,1,9.34-6.74,27.32,27.32,0,0,1,11.75-3.38A21.57,21.57,0,0,1,52,344a25,25,0,0,1,8.37,8.5A23.44,23.44,0,0,1,62.81,358a14.4,14.4,0,0,1,.51,6.5,7.49,7.49,0,0,1-1.78,3.74,6.42,6.42,0,0,1-3.92,2,9.47,9.47,0,0,1-3.52-.28,16.68,16.68,0,0,1-2.84-1,41,41,0,0,1-8.95-6.17,2,2,0,0,1,2.45-3.16l0,0a37,37,0,0,0,8.37,4.76,7,7,0,0,0,3.62.54c.38-.11.46-.23.53-.36a2.39,2.39,0,0,0,.22-.92,8.74,8.74,0,0,0-.72-3.6,17.45,17.45,0,0,0-2.1-3.73,17.68,17.68,0,0,0-6.44-5.46,13.22,13.22,0,0,0-7.68-1.25,18.4,18.4,0,0,0-7.58,3c-4.84,3.2-9,8.12-12.54,13.39a39.33,39.33,0,0,0-6.71,16.31,28.11,28.11,0,0,0,2.38,16.15,33.77,33.77,0,0,0,10.7,12.66,40.17,40.17,0,0,0,15.42,6.84,38.62,38.62,0,0,0,16.48-.08,37,37,0,0,0,14.54-7,47.94,47.94,0,0,0,11-12.52,65.28,65.28,0,0,0,4.09-7.73c.33-.65.59-1.36.88-2s.59-1.36.84-2.08l1.72-4.64a138.89,138.89,0,0,1,22.56-38.95A150.36,150.36,0,0,1,127.11,329.26Z"/><path class="cls-24" d="M87.79,425.85c-.86.64-1.75,1.26-2.65,1.86a56.94,56.94,0,0,1-68.33-4.14A49,49,0,0,1,2.76,404,42,42,0,0,1,1,379.86a51.58,51.58,0,0,1,10.26-20.71A73.2,73.2,0,0,1,18.85,351a45.74,45.74,0,0,1,9.34-6.74,27.32,27.32,0,0,1,11.75-3.38A21.57,21.57,0,0,1,52,344a25,25,0,0,1,8.37,8.5A23.44,23.44,0,0,1,62.81,358a14.4,14.4,0,0,1,.51,6.5,7.49,7.49,0,0,1-1.78,3.74,6.42,6.42,0,0,1-3.92,2,9.47,9.47,0,0,1-3.52-.28,16.68,16.68,0,0,1-2.84-1,41,41,0,0,1-8.95-6.17,2,2,0,0,1,2.45-3.16l0,0a37,37,0,0,0,8.37,4.76,7,7,0,0,0,3.62.54c.38-.11.46-.23.53-.36a2.39,2.39,0,0,0,.22-.92,8.74,8.74,0,0,0-.72-3.6,17.45,17.45,0,0,0-2.1-3.73,17.68,17.68,0,0,0-6.44-5.46,13.22,13.22,0,0,0-7.68-1.25,18.4,18.4,0,0,0-7.58,3c-4.84,3.2-9,8.12-12.54,13.39a39.33,39.33,0,0,0-6.71,16.31,28.11,28.11,0,0,0,2.38,16.15,33.77,33.77,0,0,0,10.7,12.66,40.17,40.17,0,0,0,15.42,6.84,38.62,38.62,0,0,0,16.48-.08,37,37,0,0,0,14.54-7A45.78,45.78,0,0,0,81.82,402,72.48,72.48,0,0,0,87.79,425.85Z"/><path class="cls-25" d="M44.79,359.56a41.12,41.12,0,0,0,7,4.21c-.28,1.65-.53,3.31-.77,5a41,41,0,0,1-8.74-6.06,2,2,0,0,1,2.45-3.16Z"/><path class="cls-25" d="M62.38,436.56l-.25,0a57.29,57.29,0,0,1-45.32-13A49,49,0,0,1,2.76,404,42,42,0,0,1,1,379.86a51.58,51.58,0,0,1,10.26-20.71A73.2,73.2,0,0,1,18.85,351a45.74,45.74,0,0,1,9.34-6.74,27.32,27.32,0,0,1,11.75-3.38A21.57,21.57,0,0,1,52,344a23.87,23.87,0,0,1,3.33,2.46c-.64,2.66-1.27,5.43-1.85,8.29a17.07,17.07,0,0,0-5.23-4,13.22,13.22,0,0,0-7.68-1.25,18.4,18.4,0,0,0-7.58,3c-4.84,3.2-9,8.12-12.54,13.39a39.33,39.33,0,0,0-6.71,16.31,28.11,28.11,0,0,0,2.38,16.15,33.77,33.77,0,0,0,10.7,12.66,40.17,40.17,0,0,0,15.42,6.84,39.56,39.56,0,0,0,10.77.76,52.18,52.18,0,0,0,8.06,16.07C61.56,435.37,62,436,62.38,436.56Z"/><path class="cls-61" d="M157.73,554.33a136.05,136.05,0,0,1-7.86-28.5A118.51,118.51,0,0,1,148.48,501a100.46,100.46,0,0,1,4.57-25.47,87.44,87.44,0,0,1,12.07-24.2,86.09,86.09,0,0,1,19.37-19.53c.93-.67,1.86-1.33,2.81-2s1.92-1.28,2.77-1.79l1.44-.89C178.36,444.4,149.31,490.62,157.73,554.33Z"/><path class="cls-17" d="M669.56,206.76a38.78,38.78,0,0,1-5.21,10.75,33,33,0,0,1-8.66,8.57,24.7,24.7,0,0,1-5.83,2.86,19.94,19.94,0,0,1-5.78,1c-.32,0-.63,0-1,0a19.37,19.37,0,0,1-6.7-1.29,22.61,22.61,0,0,1-5.62-3.17,32.77,32.77,0,0,1-7.67-8.72,39.45,39.45,0,0,1-2.65-4.88,29.38,29.38,0,0,1-2-5.51,18.17,18.17,0,0,1-.43-6.44,12.91,12.91,0,0,1,1.78-5.12,11,11,0,0,1,1-1.42,13.31,13.31,0,0,1,2.59-2.35,15.38,15.38,0,0,1,2.91-1.54,18.75,18.75,0,0,1,6-1.25,21.52,21.52,0,0,1,5.83.53,17,17,0,0,1,5.57,2.34,11.29,11.29,0,0,1,2.48,2.24,8.25,8.25,0,0,1,1.64,3.28,7.89,7.89,0,0,1,0,3.65,10.58,10.58,0,0,1-1.24,3,18.62,18.62,0,0,1-3.73,4.28,36.82,36.82,0,0,1-4.25,3.13,2,2,0,0,1-2.33-3.25l0,0c2.46-1.93,4.82-4.17,6-6.5a3.72,3.72,0,0,0,.36-2.89,4.05,4.05,0,0,0-2-2,13.24,13.24,0,0,0-7.73-1.1c-2.65.37-5.05,1.59-6,3.13a4.77,4.77,0,0,0-.74,2.6,8.91,8.91,0,0,0,.31,2.36,10.43,10.43,0,0,0,.3,1,27.8,27.8,0,0,0,4.17,7.33,23.14,23.14,0,0,0,5.53,5.52l.28.19a10,10,0,0,0,6.17,1.76,11,11,0,0,0,5.9-2.54,20.85,20.85,0,0,0,4.9-5.78c2.64-4.54,3.89-10.1,3.1-14.64a12.25,12.25,0,0,0-2.47-5.74,11.68,11.68,0,0,0-2.14-2.07,15.67,15.67,0,0,0-2.78-1.61,24.92,24.92,0,0,0-7.13-1.82,46.16,46.16,0,0,0-8.34-.11,74.76,74.76,0,0,0-19.55,3.85A53.8,53.8,0,0,0,601.37,195a41.09,41.09,0,0,0-9,8.46,32.18,32.18,0,0,0-1.94,2.73,35.1,35.1,0,0,0-5.19,14.07,44.25,44.25,0,0,0,.51,14.92c-6.63-8.86-14.21-17.76-21.45-25.78a57.64,57.64,0,0,1,8.4-15.77,56.39,56.39,0,0,1,5.57-6.34,62.88,62.88,0,0,1,12.3-9.43,70.63,70.63,0,0,1,10-4.81,79.48,79.48,0,0,1,11.24-3.46,94.69,94.69,0,0,1,21.79-2.29A63,63,0,0,1,645,168.4a41.2,41.2,0,0,1,11.72,4.16,31.74,31.74,0,0,1,5.47,3.89,26.59,26.59,0,0,1,8.76,18A33.2,33.2,0,0,1,669.56,206.76Z"/><path class="cls-18" d="M669.56,206.76a38.78,38.78,0,0,1-5.21,10.75,33,33,0,0,1-8.66,8.57,24.7,24.7,0,0,1-5.83,2.86,19.94,19.94,0,0,1-5.78,1c-.32,0-.63,0-1,0a19.37,19.37,0,0,1-6.7-1.29,22.61,22.61,0,0,1-5.62-3.17,32.77,32.77,0,0,1-7.67-8.72,39.45,39.45,0,0,1-2.65-4.88,29.38,29.38,0,0,1-2-5.51,18.17,18.17,0,0,1-.43-6.44,12.91,12.91,0,0,1,1.78-5.12,11,11,0,0,1,1-1.42,13.31,13.31,0,0,1,2.59-2.35,15.38,15.38,0,0,1,2.91-1.54,18.75,18.75,0,0,1,6-1.25,21.52,21.52,0,0,1,5.83.53,17,17,0,0,1,5.57,2.34,11.29,11.29,0,0,1,2.48,2.24,8.25,8.25,0,0,1,1.64,3.28,7.89,7.89,0,0,1,0,3.65,10.58,10.58,0,0,1-1.24,3,18.62,18.62,0,0,1-3.73,4.28,36.82,36.82,0,0,1-4.25,3.13,2,2,0,0,1-2.33-3.25l0,0c2.46-1.93,4.82-4.17,6-6.5a3.72,3.72,0,0,0,.36-2.89,4.05,4.05,0,0,0-2-2,13.24,13.24,0,0,0-7.73-1.1c-2.65.37-5.05,1.59-6,3.13a4.77,4.77,0,0,0-.74,2.6,8.91,8.91,0,0,0,.31,2.36,10.43,10.43,0,0,0,.3,1,27.8,27.8,0,0,0,4.17,7.33,23.14,23.14,0,0,0,5.53,5.52l.28.19a10,10,0,0,0,6.17,1.76,11,11,0,0,0,5.9-2.54,20.85,20.85,0,0,0,4.9-5.78c2.64-4.54,3.89-10.1,3.1-14.64a12.25,12.25,0,0,0-2.47-5.74,11.68,11.68,0,0,0-2.14-2.07,15.67,15.67,0,0,0-2.78-1.61,24.92,24.92,0,0,0-7.13-1.82,46.16,46.16,0,0,0-8.34-.11,74.76,74.76,0,0,0-19.55,3.85A53.8,53.8,0,0,0,601.37,195a41.09,41.09,0,0,0-9,8.46c-4.65-5.62-9.46-11.09-14.1-16.17a62.88,62.88,0,0,1,12.3-9.43,70.63,70.63,0,0,1,10-4.81,79.48,79.48,0,0,1,11.24-3.46,94.69,94.69,0,0,1,21.79-2.29A63,63,0,0,1,645,168.4a41.2,41.2,0,0,1,11.72,4.16,31.74,31.74,0,0,1,5.47,3.89,26.59,26.59,0,0,1,8.76,18A33.2,33.2,0,0,1,669.56,206.76Z"/><path class="cls-19" d="M635.9,210.17a2,2,0,0,1,.43-2.66l0,0c2.46-1.93,4.82-4.17,6-6.5a3.72,3.72,0,0,0,.36-2.89,4.05,4.05,0,0,0-2-2,13.24,13.24,0,0,0-7.73-1.1c-2.65.37-5.05,1.59-6,3.13a4.77,4.77,0,0,0-.74,2.6,8.91,8.91,0,0,0,.31,2.36c-2.15-2.77-4.38-5.54-6.63-8.26a11,11,0,0,1,1-1.42,13.31,13.31,0,0,1,2.59-2.35,15.38,15.38,0,0,1,2.91-1.54,18.75,18.75,0,0,1,6-1.25,21.52,21.52,0,0,1,5.83.53,17,17,0,0,1,5.57,2.34,11.29,11.29,0,0,1,2.48,2.24,8.25,8.25,0,0,1,1.64,3.28,7.89,7.89,0,0,1,0,3.65,10.58,10.58,0,0,1-1.24,3,18.62,18.62,0,0,1-3.73,4.28,36.82,36.82,0,0,1-4.25,3.13A2,2,0,0,1,635.9,210.17Z"/><path class="cls-19" d="M669.56,206.76a38.78,38.78,0,0,1-5.21,10.75,33,33,0,0,1-8.66,8.57,24.7,24.7,0,0,1-5.83,2.86,19.94,19.94,0,0,1-5.78,1,116.44,116.44,0,0,0-7.56-13l.28.19a10,10,0,0,0,6.17,1.76,11,11,0,0,0,5.9-2.54,20.85,20.85,0,0,0,4.9-5.78c2.64-4.54,3.89-10.1,3.1-14.64a12.25,12.25,0,0,0-2.47-5.74,11.68,11.68,0,0,0-2.14-2.07,15.67,15.67,0,0,0-2.78-1.61,24.92,24.92,0,0,0-7.13-1.82,46.16,46.16,0,0,0-8.34-.11,74.76,74.76,0,0,0-19.55,3.85c-4.74-5.47-9.5-10.69-13.93-15.41a79.48,79.48,0,0,1,11.24-3.46,94.69,94.69,0,0,1,21.79-2.29A63,63,0,0,1,645,168.4a41.2,41.2,0,0,1,11.72,4.16,31.74,31.74,0,0,1,5.47,3.89,26.59,26.59,0,0,1,8.76,18A33.2,33.2,0,0,1,669.56,206.76Z"/><path class="cls-17" d="M434.35,195.11a28.78,28.78,0,0,1-5.77,8.44,50,50,0,0,1-7.57,6.23,2,2,0,0,1-2.43-3.16l.08-.07a45.92,45.92,0,0,0,6.35-6.18,24,24,0,0,0,4.15-7.25,14,14,0,0,0,.45-7.6,14.85,14.85,0,0,0-3.59-6.66c-3.54-4-8.74-6.57-14.14-8.22a57.57,57.57,0,0,0-17-2.25,84.13,84.13,0,0,0-33.72,8A113.35,113.35,0,0,0,332.22,196a143.37,143.37,0,0,0-12.14,12.74,170.37,170.37,0,0,0-10.62,14.1A211.76,211.76,0,0,0,294.23,250c-1.38-24,8.12-44.54,20.29-60.77q3.44-3,7.07-5.87A128,128,0,0,1,356.08,164a95.75,95.75,0,0,1,39.12-5.88,67.21,67.21,0,0,1,19.58,4.31,48.11,48.11,0,0,1,9.07,4.74,32.12,32.12,0,0,1,7.7,7.18,21.59,21.59,0,0,1,4.31,10A20,20,0,0,1,434.35,195.11Z"/><path class="cls-18" d="M434.35,195.11a28.78,28.78,0,0,1-5.77,8.44,50,50,0,0,1-7.57,6.23,2,2,0,0,1-2.43-3.16l.08-.07a45.92,45.92,0,0,0,6.35-6.18,24,24,0,0,0,4.15-7.25,14,14,0,0,0,.45-7.6,14.85,14.85,0,0,0-3.59-6.66c-3.54-4-8.74-6.57-14.14-8.22a57.57,57.57,0,0,0-17-2.25,81.28,81.28,0,0,0-27,5.22c-2.29.84-4.55,1.77-6.76,2.79a110.57,110.57,0,0,0-25.84,16.87,131.58,131.58,0,0,1,22.52-29.85,100.24,100.24,0,0,1,22.17-5,86.05,86.05,0,0,1,15.23-.3,67.21,67.21,0,0,1,19.58,4.31,48.11,48.11,0,0,1,9.07,4.74,32.12,32.12,0,0,1,7.7,7.18,21.59,21.59,0,0,1,4.31,10A20,20,0,0,1,434.35,195.11Z"/><path class="cls-19" d="M434.35,195.11a28.78,28.78,0,0,1-5.77,8.44,50,50,0,0,1-7.57,6.23,2,2,0,0,1-2.43-3.16l.08-.07a45.92,45.92,0,0,0,6.35-6.18,24,24,0,0,0,4.15-7.25,14,14,0,0,0,.45-7.6,14.85,14.85,0,0,0-3.59-6.66c-3.54-4-8.74-6.57-14.14-8.22a57.57,57.57,0,0,0-17-2.25,81.28,81.28,0,0,0-27,5.22A135,135,0,0,1,380,158.44a86.05,86.05,0,0,1,15.23-.3,67.21,67.21,0,0,1,19.58,4.31,48.11,48.11,0,0,1,9.07,4.74,32.12,32.12,0,0,1,7.7,7.18,21.59,21.59,0,0,1,4.31,10A20,20,0,0,1,434.35,195.11Z"/><circle class="cls-31" cx="710.29" cy="490.55" r="5.32"/><circle class="cls-31" cx="741.98" cy="519.71" r="5.32"/><circle class="cls-31" cx="797.72" cy="572.5" r="5.32"/><circle class="cls-31" cx="765.39" cy="546.3" r="5.32"/><circle class="cls-23" cx="725.42" cy="406.16" r="6.77"/><circle class="cls-23" cx="756.58" cy="379.84" r="6.77"/><circle class="cls-23" cx="795.06" cy="356.34" r="6.77"/><circle class="cls-19" cx="670.42" cy="399.39" r="6.58"/><circle class="cls-19" cx="654.34" cy="360.35" r="6.58"/><circle class="cls-19" cx="631.52" cy="327" r="6.58"/><circle class="cls-19" cx="603.61" cy="297.75" r="4.81"/><circle class="cls-25" cx="270.12" cy="385.94" r="7.23"/><circle class="cls-25" cx="256.96" cy="351.1" r="7.23"/><circle class="cls-25" cx="227.26" cy="322.03" r="7.23"/><circle class="cls-25" cx="182.1" cy="320.03" r="4.94"/><circle class="cls-25" cx="139.26" cy="342.23" r="4.94"/><circle class="cls-19" cx="277.34" cy="272.23" r="4.88"/><circle class="cls-19" cx="267.77" cy="306.1" r="4.88"/><circle class="cls-19" cx="294.1" cy="236.29" r="4.88"/><circle class="cls-19" cx="308.52" cy="216.17" r="2.78"/></g></g></svg>