<svg xmlns="http://www.w3.org/2000/svg" viewBox="0 0 499.58 461.94"><defs><style>.cls-1{fill:#ebebeb;}.cls-2{fill:#5dba3e;}.cls-3{fill:#4c9b2f;}.cls-4{fill:#fff;}.cls-5{fill:#22393d;}.cls-6{fill:#c7c7c7;}.cls-7{fill:#f05a28;}.cls-8{fill:#daf3f7;}.cls-9{fill:#4eb751;}.cls-10{fill:#c0d4d8;}.cls-11{fill:#e6e6e6;}.cls-12{fill:#eda162;}.cls-13{fill:#c6773c;}.cls-14{opacity:0.3;}.cls-15{fill:#99582b;}.cls-16{fill:#e0a4ab;}.cls-17{fill:#121e21;}.cls-18{fill:#bbbebf;}.cls-19{fill:#fbb040;}.cls-20{fill:#00997f;}.cls-21{fill:#cce0ff;}.cls-22{fill:#12b89f;}.cls-23{fill:#007f6a;}.cls-24{fill:#ffcdc2;}.cls-25{opacity:0.2;}.cls-26{fill:#414042;}.cls-27{fill:#e29334;}.cls-28{fill:#e08477;}</style></defs><g id="Layer_2" data-name="Layer 2"><g id="Layer_1-2" data-name="Layer 1"><polygon class="cls-1" points="360.71 282.44 351.03 276.32 351.03 243.69 335.58 233.24 335.58 224.96 311.39 200.77 301.08 200.77 301.08 296.3 296.09 296.3 296.09 326.89 280.79 326.89 280.79 203.58 235.53 203.58 235.53 264.45 216.48 264.45 216.48 236.05 194.63 236.05 194.63 244.94 181.36 244.94 172.78 236.36 172.78 194.53 146.55 180.48 125.48 188.2 125.48 246.43 110.65 246.66 110.65 208.57 100.97 208.57 100.97 198.58 78.81 198.58 68.19 209.2 68.19 215.75 57.27 226.68 57.27 330.64 49.46 330.64 49.46 262.89 40.72 262.89 40.72 253.53 14.5 253.53 14.5 262.58 3.26 262.58 3.26 330.64 3.26 384.36 360.71 384.36 360.71 282.44"/><path class="cls-2" d="M432.59,348c-18.37-6.07-36.83-37.1-30.69-43.55,9.92-10.43,18,11.93,24.58,7.89,7.17-4.38-23.16-32.72-8.19-49.92,4-4.55,13.84-3.49,15.79,3.54,2,7.3,1.62,17.42,6.93,16.64,9.3-1.36-1.37-49.27,19.08-45.28,11.58,2.26,11.92,13.49,8.45,25.31-2.4,8.16-9.77,21.29-6.57,23.63,4.93,3.6,25.22-23.9,29.82-8.75C497.47,296.18,453,310,455,319.06c1.25,5.62,32.45-10.11,32.87.27C488.4,333,451.69,354.28,432.59,348Z"/><path class="cls-3" d="M465.07,329.45c-3.11.72-6.21,1.48-9.3,2.26s-6.17,1.58-9.24,2.45c-2.59.71-5.18,1.43-7.76,2.18q2.33-6,4.48-12.14c1.47-4.05,2.79-8.15,4.15-12.24.16-.48.3-1,.46-1.44,3.06-1.64,6-3.4,9-5.16s6-3.72,8.94-5.71,5.8-4,8.55-6.28a42.94,42.94,0,0,0,7.54-7.46,56.71,56.71,0,0,1-8.25,6.5c-1.45,1-2.91,1.95-4.4,2.88s-3,1.87-4.46,2.78q-4.5,2.73-9.06,5.35c-2.27,1.34-4.57,2.62-6.86,3.9q1.18-3.85,2.33-7.72c.61-2.06,1.18-4.14,1.73-6.22s1.16-4.16,1.66-6.26l1.52-6.28c.5-2.1.92-4.22,1.37-6.33a160.48,160.48,0,0,0,3.45-25.62c-1.3,8.52-3.2,16.88-5.22,25.22l-1.58,6.24-1.67,6.21c-.55,2.08-1.15,4.14-1.72,6.21S449.57,296.9,449,299q-1.23,4.33-2.54,8.66l-.3-.31c-.55-.58-1.09-1.19-1.62-1.8-1.07-1.23-2.12-2.49-3.15-3.75q-3.09-3.83-5.95-7.82c-1.88-2.68-3.72-5.39-5.33-8.24a42.59,42.59,0,0,1-2.19-4.38,15.17,15.17,0,0,1-1.28-4.72,14,14,0,0,0,.71,4.92,35.18,35.18,0,0,0,1.8,4.67,75.6,75.6,0,0,0,4.84,8.72c1.78,2.81,3.7,5.53,5.71,8.17,1,1.32,2,2.63,3.13,3.9.54.63,1.09,1.26,1.67,1.89.29.31.58.62.9.93l.32.29c-1.36,4.52-2.75,9-4.14,13.55l-3.95,12.68c-1.51-1.29-3-2.58-4.56-3.85-1.8-1.5-3.61-3-5.44-4.44s-3.66-2.92-5.52-4.35-3.72-2.84-5.64-4.21c1.63,1.7,3.29,3.35,5,5s3.37,3.25,5.09,4.84,3.42,3.19,5.17,4.75,3.45,3.11,5.2,4.63l-3,9.6c1.34-3.06,2.6-6.15,3.84-9.26l.24-.07c3.08-.83,6.14-1.72,9.2-2.61s6.11-1.83,9.16-2.75,6.08-1.93,9.1-2.94,6.05-2.06,9-3.2C471.29,328,468.18,328.74,465.07,329.45Z"/><rect class="cls-4" x="247.09" y="111.61" width="176.22" height="340.02" rx="24.26"/><path class="cls-5" d="M399.05,456.44H271.35a29.11,29.11,0,0,1-29.08-29.08V135.87a29.11,29.11,0,0,1,29.08-29.08h127.7a29.11,29.11,0,0,1,29.08,29.08V427.36A29.11,29.11,0,0,1,399.05,456.44Zm-127.7-340a19.46,19.46,0,0,0-19.44,19.44V427.36a19.46,19.46,0,0,0,19.44,19.44h127.7a19.46,19.46,0,0,0,19.44-19.44V135.87a19.46,19.46,0,0,0-19.44-19.44Z"/><path class="cls-5" d="M298.25,110.72h73.9a0,0,0,0,1,0,0v10.67a12,12,0,0,1-12,12h-50a12,12,0,0,1-12-12V110.72A0,0,0,0,1,298.25,110.72Z"/><rect class="cls-6" y="456.44" width="497.81" height="5.49"/><rect class="cls-7" x="263.37" y="408.82" width="143.65" height="22.81" rx="11.4"/><path class="cls-4" d="M324,416.91a3.44,3.44,0,0,1,3.36,2.18h-1.42A2,2,0,0,0,324,418a2.67,2.67,0,0,0,0,5.33,2,2,0,0,0,1.94-1.14h1.42a3.43,3.43,0,0,1-3.36,2.17,3.7,3.7,0,0,1,0-7.4Z"/><path class="cls-4" d="M332,424.32a3.71,3.71,0,1,1,3.7-3.71A3.63,3.63,0,0,1,332,424.32Zm0-1a2.68,2.68,0,1,0-2.48-2.68A2.45,2.45,0,0,0,332,423.29Z"/><path class="cls-4" d="M342.82,417v7.26h-1.19l-3.58-5.41v5.41h-1.18V417h1.18l3.58,5.4V417Z"/><path class="cls-4" d="M344.38,417h4.26v1h-3.07v2.14H348v1h-2.4v3.17h-1.19Z"/><path class="cls-4" d="M349.75,417h1.18v7.25h-1.18Z"/><path class="cls-4" d="M355,417c1.72,0,2.56,1,2.56,2.17a2.07,2.07,0,0,1-1.68,2.08l1.8,3h-1.42l-1.67-2.9h-.91v2.9H352.5V417Zm0,1h-1.32v2.43H355c.93,0,1.34-.51,1.34-1.23S355.93,418,355,418Z"/><path class="cls-4" d="M359.08,417h1.28l2.55,5.69,2.53-5.69h1.27v7.25h-1.19v-5l-2.21,5h-.82l-2.22-5v5h-1.19Z"/><path class="cls-4" d="M308.88,426.18a6,6,0,1,1,6-6A6,6,0,0,1,308.88,426.18Zm0-11.05a5.08,5.08,0,1,0,5.08,5.08A5.09,5.09,0,0,0,308.88,415.13Z"/><path class="cls-4" d="M307.84,422.49h0a.46.46,0,0,1-.32-.15l-1.44-1.68a.44.44,0,0,1,.67-.57l1.14,1.32,3.18-3a.44.44,0,0,1,.63,0,.45.45,0,0,1,0,.63l-3.52,3.35A.42.42,0,0,1,307.84,422.49Z"/><rect class="cls-8" x="263.48" y="204.61" width="143.45" height="191.08" rx="8.35"/><circle class="cls-9" cx="287.39" cy="165.51" r="14.88"/><path class="cls-10" d="M392.73,163.06H309.56a.89.89,0,1,1,0-1.77h83.17a.89.89,0,1,1,0,1.77Z"/><path class="cls-10" d="M382.66,170.09H309.3a.89.89,0,1,1,0-1.77h73.36a.89.89,0,1,1,0,1.77Z"/><path class="cls-4" d="M278.93,171.82a.89.89,0,0,1-.44-1.66l10.57-6.06a3.55,3.55,0,0,1,4,.27l3.37,2.6a.89.89,0,1,1-1.09,1.41l-3.36-2.6a1.8,1.8,0,0,0-2-.14l-10.57,6.06A.88.88,0,0,1,278.93,171.82Z"/><path class="cls-4" d="M282.74,164.86a2.84,2.84,0,1,1,2.83-2.83A2.83,2.83,0,0,1,282.74,164.86Zm0-3.89A1.06,1.06,0,1,0,283.8,162,1.06,1.06,0,0,0,282.74,161Z"/><path d="M318.58,152.58h.84l.7,3.06.8-3.06h.88l.76,3,.7-3h.86L323,156.52h-.93l-.74-2.81-.77,2.81h-.93Z"/><path d="M324.55,152.56a.47.47,0,0,1,.48-.47.47.47,0,0,1,.49.47.47.47,0,0,1-.49.46A.46.46,0,0,1,324.55,152.56Zm.08.83h.79v3.13h-.79Z"/><path d="M326.33,154H326v-.65h.38v-.77h.8v.77h.7V154h-.7v1.52c0,.21.08.3.33.3h.37v.66h-.5c-.6,0-1-.25-1-1Z"/><path d="M328.4,152.34h.79v1.44a1.2,1.2,0,0,1,1-.43,1.19,1.19,0,0,1,1.22,1.34v1.83h-.79v-1.73a.7.7,0,1,0-1.4,0v1.73h-.79Z"/><path d="M336.94,154.56a1.9,1.9,0,0,1-2.08,2h-1.38v-3.94h1.38A1.91,1.91,0,0,1,336.94,154.56Zm-2.11,1.29a1.18,1.18,0,0,0,1.3-1.29,1.19,1.19,0,0,0-1.3-1.31h-.56v2.6Z"/><path d="M338.9,156.57a1.62,1.62,0,0,1,0-3.23,1.47,1.47,0,0,1,1.55,1.55,1.71,1.71,0,0,1,0,.31h-2.29a.74.74,0,0,0,.76.72.64.64,0,0,0,.62-.38h.86A1.45,1.45,0,0,1,338.9,156.57Zm-.76-1.91h1.49a.7.7,0,0,0-.75-.67A.72.72,0,0,0,338.14,154.66Z"/><path d="M341,152.34h.79v4.18H341Z"/><path d="M342.51,152.56a.49.49,0,0,1,1,0,.49.49,0,0,1-1,0Zm.09.83h.79v3.13h-.79Z"/><path d="M344.68,153.39l.79,2.4.79-2.4h.85L346,156.52h-1l-1.16-3.13Z"/><path d="M348.92,156.57a1.62,1.62,0,0,1,0-3.23,1.47,1.47,0,0,1,1.54,1.55,1.67,1.67,0,0,1,0,.31h-2.29a.73.73,0,0,0,.75.72.65.65,0,0,0,.63-.38h.86A1.45,1.45,0,0,1,348.92,156.57Zm-.76-1.91h1.48a.69.69,0,0,0-.74-.67A.72.72,0,0,0,348.16,154.66Z"/><path d="M351.83,156.52H351v-3.13h.79v.49a1.1,1.1,0,0,1,1-.53v.83h-.21c-.46,0-.75.18-.75.78Z"/><path d="M355.48,153.39h.84L354.38,158h-.84l.68-1.56L353,153.39h.88l.81,2.19Z"/><path d="M359.9,152.53a1.87,1.87,0,0,1,1.86,1.27h-.91a1,1,0,0,0-1-.56,1.31,1.31,0,0,0,0,2.61,1,1,0,0,0,1-.57h.91a1.87,1.87,0,0,1-1.86,1.28,2,2,0,0,1,0-4Z"/><path d="M363.83,156.57a1.53,1.53,0,0,1-1.59-1.61,1.61,1.61,0,1,1,1.59,1.61Zm0-.69a.83.83,0,0,0,.82-.92.81.81,0,1,0-1.61,0C363,155.58,363.4,155.88,363.83,155.88Z"/><path d="M369,156.52h-.8v-.39a1.17,1.17,0,0,1-.93.43,1.21,1.21,0,0,1-1.26-1.33v-1.84h.8v1.73c0,.5.27.77.69.77a.67.67,0,0,0,.7-.77v-1.73h.8Z"/><path d="M370.57,156.52h-.79v-3.13h.79v.49a1.1,1.1,0,0,1,1-.53v.83h-.21c-.47,0-.75.18-.75.78Z"/><path d="M372,152.56a.49.49,0,0,1,1,0,.49.49,0,0,1-1,0Zm.08.83h.8v3.13h-.8Z"/><path d="M375,156.57a1.62,1.62,0,0,1,0-3.23,1.47,1.47,0,0,1,1.55,1.55,1.71,1.71,0,0,1,0,.31h-2.29a.74.74,0,0,0,.76.72.63.63,0,0,0,.62-.38h.86A1.45,1.45,0,0,1,375,156.57Zm-.76-1.91h1.49A.7.7,0,0,0,375,154,.72.72,0,0,0,374.24,154.66Z"/><path d="M377.92,156.52h-.8v-3.13h.8v.49a1.07,1.07,0,0,1,1-.53v.83h-.21c-.47,0-.75.18-.75.78Z"/><path d="M309.54,174.73h3.1v.68h-1.13V179h-.85v-3.56h-1.12Z"/><path d="M314.75,179a1.64,1.64,0,0,1-1.7-1.73,1.73,1.73,0,1,1,3.46,0A1.68,1.68,0,0,1,314.75,179Zm0-.74a.89.89,0,0,0,.88-1,.87.87,0,1,0-1.72,0C313.91,178,314.3,178.28,314.75,178.28Z"/><path d="M317.26,176.3h-.4v-.7h.4v-.83h.86v.83h.75v.7h-.75v1.63c0,.22.09.32.36.32h.39V179h-.53a.94.94,0,0,1-1.08-1.05Z"/><path d="M320.8,175.55a1.32,1.32,0,0,1,1.11.53v-.48h.86V179h-.86v-.49a1.32,1.32,0,0,1-1.12.54,1.6,1.6,0,0,1-1.53-1.75A1.57,1.57,0,0,1,320.8,175.55Zm.22.75a.89.89,0,0,0-.89,1,.92.92,0,0,0,.89,1,1,1,0,0,0,0-2Z"/><path d="M323.6,174.47h.85V179h-.85Z"/><path d="M328,179c-.79-.07-1.34-.49-1.36-1.22h.91a.54.54,0,0,0,.45.53v-1.16c-.63-.16-1.36-.33-1.36-1.23a1.3,1.3,0,0,1,1.36-1.25v-.49h.39v.49a1.27,1.27,0,0,1,1.32,1.19h-.92a.57.57,0,0,0-.4-.49v1.15c.63.16,1.37.33,1.37,1.23a1.32,1.32,0,0,1-1.37,1.25v.5H328Zm0-2.6v-1.05a.52.52,0,0,0-.48.53C327.51,176.16,327.71,176.31,328,176.4Zm.39.86v1.06a.53.53,0,0,0,.49-.54C328.87,177.5,328.66,177.36,328.38,177.26Z"/><path d="M332.52,175.32h-.58v-.78h1.46V179h-.88Z"/><path d="M336.32,178.1H334.2v-.66l2-2.85h1v2.77h.54v.74h-.54V179h-.85Zm.06-.74v-1.85l-1.25,1.85Z"/><path d="M339.88,174.46c1.25,0,1.64.95,1.64,2.24s-.39,2.25-1.64,2.25-1.64-1-1.64-2.25S338.63,174.46,339.88,174.46Zm0,.78c-.71,0-.8.7-.8,1.46s.09,1.47.8,1.47.8-.68.8-1.47S340.6,175.24,339.88,175.24Z"/><path d="M343.8,174.46c1.25,0,1.64.95,1.64,2.24s-.39,2.25-1.64,2.25-1.64-1-1.64-2.25S342.55,174.46,343.8,174.46Zm0,.78c-.72,0-.8.7-.8,1.46s.08,1.47.8,1.47.8-.68.8-1.47S344.52,175.24,343.8,175.24Z"/><path class="cls-9" d="M311.29,156.65a.7.7,0,0,1-.45-.17l-1.73-1.59a.67.67,0,1,1,.9-1l1.25,1.15,2.47-2.54a.66.66,0,1,1,.95.93l-2.91,3A.69.69,0,0,1,311.29,156.65Z"/><path class="cls-10" d="M401.11,191.18H269a5.82,5.82,0,0,1-5.81-5.81V148a5.82,5.82,0,0,1,5.81-5.82H401.11a5.82,5.82,0,0,1,5.81,5.82v37.36A5.82,5.82,0,0,1,401.11,191.18ZM269,143.08a4.93,4.93,0,0,0-4.92,4.93v37.36a4.93,4.93,0,0,0,4.92,4.92H401.11a4.93,4.93,0,0,0,4.92-4.92V148a4.93,4.93,0,0,0-4.92-4.93Z"/><polygon class="cls-4" points="374.35 377.08 346.13 365.63 346.13 348.85 321.78 348.85 321.78 294 290.93 297.41 290.93 199.92 294.93 199.92 294.93 292.94 325.78 289.53 325.78 344.85 350.13 344.85 350.13 362.94 375.85 373.37 374.35 377.08"/><path class="cls-7" d="M381.27,354.07h0a8.74,8.74,0,0,0-12.34,0h0a8.72,8.72,0,0,0-.92,11.25l7.09,9.9,7.09-9.9A8.74,8.74,0,0,0,381.27,354.07Zm-6.17,9.3a3.45,3.45,0,1,1,3.45-3.45A3.44,3.44,0,0,1,375.1,363.37Z"/><rect class="cls-4" x="261.16" y="241.22" width="153" height="4" transform="translate(-7.66 11.01) rotate(-1.85)"/><rect class="cls-4" x="357.2" y="199.9" width="4" height="128.61" transform="translate(-6.14 8.55) rotate(-1.35)"/><rect class="cls-4" x="255.72" y="306.7" width="152.51" height="4" transform="matrix(0.98, -0.18, 0.18, 0.98, -49.45, 63.72)"/><polygon class="cls-4" points="281 342.94 281 303.8 285 303.8 285 338.15 360.36 324.5 361.07 328.43 281 342.94"/><rect class="cls-4" x="253.82" y="375.7" width="72.49" height="4" transform="translate(-54.16 48.6) rotate(-8.76)"/><rect class="cls-4" x="390.31" y="197.09" width="4" height="200.92"/><path class="cls-11" d="M299.39,36.44H179s1.7-17.58,16.18-13.52S207.77-2.62,228.79,7.36c16.39,7.79,28.56-21.4,40.9,1.78C280.85,30.1,291.9,12.33,299.39,36.44Z"/><path class="cls-11" d="M122.85,125.8H18S19.46,110.5,32.07,114s11-22.25,29.29-13.55C75.64,107.26,86.23,81.84,97,102,106.7,120.28,116.33,104.8,122.85,125.8Z"/><path class="cls-11" d="M477.17,84.76H391.22s1.21-12.55,11.55-9.65,9-18.24,24-11.11c11.7,5.56,20.39-15.28,29.19,1.27C463.94,80.23,471.83,67.54,477.17,84.76Z"/><rect class="cls-12" x="411.03" y="405.37" width="64.18" height="50.82"/><rect class="cls-13" x="475.21" y="405.37" width="20.37" height="50.82" transform="translate(970.79 861.57) rotate(180)"/><rect class="cls-12" x="407.03" y="393.95" width="70.26" height="11.42"/><rect class="cls-13" x="477.29" y="393.95" width="22.3" height="11.42" transform="translate(976.87 799.33) rotate(180)"/><rect class="cls-13" x="430.74" y="414.35" width="24.84" height="9.82"/><g class="cls-14"><rect class="cls-15" x="411.03" y="405.37" width="84.55" height="13.88"/></g><rect class="cls-12" x="417.51" y="351.9" width="54.34" height="43.03"/><rect class="cls-13" x="471.85" y="351.9" width="17.24" height="43.03"/><rect class="cls-12" x="414.12" y="342.23" width="59.49" height="9.67"/><rect class="cls-13" x="473.61" y="342.23" width="18.88" height="9.67" transform="translate(966.1 694.13) rotate(180)"/><rect class="cls-13" x="434.2" y="359.5" width="21.03" height="8.31"/><g class="cls-14"><rect class="cls-15" x="417.51" y="351.9" width="71.58" height="11.76"/></g><rect class="cls-16" x="151.25" y="270.32" width="15.42" height="7.42" transform="translate(-57.04 42.29) rotate(-12.87)"/><rect class="cls-17" x="126.87" y="361.46" width="19.6" height="29.57"/><rect class="cls-18" x="200.62" y="361.34" width="5.59" height="37.02" transform="translate(128.25 -44.43) rotate(18.12)"/><rect class="cls-18" x="235.12" y="362.5" width="5.59" height="37.02" transform="translate(130.32 -55.1) rotate(18.12)"/><path class="cls-19" d="M249.57,413.13s3.18-3.26,10.51-3.26V428s-11.13,1.92-10.51-5.2S249.57,413.13,249.57,413.13Z"/><path class="cls-20" d="M124.73,409.79s1.55-42.18,41.73-42.18c33,0,53.22.16,76.81,40.26,0,0-66.41,27.06-84.72,27.37S118.75,426.2,124.73,409.79Z"/><circle class="cls-17" cx="208.47" cy="425.72" r="30.72"/><circle class="cls-21" cx="208.47" cy="425.72" r="19.24"/><circle class="cls-17" cx="53.38" cy="425.72" r="6.89"/><circle class="cls-17" cx="53.38" cy="425.72" r="30.72"/><circle class="cls-21" cx="53.38" cy="425.72" r="19.24"/><path class="cls-22" d="M168.74,427.5S174.84,391,214.9,391s45.18,41.77,45.18,41.77l-89.39,2.44Z"/><path class="cls-20" d="M80,331.91l-30,60.42c27.34,1.6,37.87,9.1,39,53.15l91.23-1.86s1.63-18.61-10.47-20.48-64.54,5-72.14-2.57S80.92,391.75,86,369.1s8.42-37.81,8.42-37.81Z"/><path class="cls-23" d="M167.76,426.56H105.87a2.66,2.66,0,0,1,0-5.32h61.89a2.66,2.66,0,0,1,0,5.32Z"/><path class="cls-17" d="M116.93,413.93s-13.44,5.54-13.57,7.19.25,3.7,8.73,3.57c6.69-.1,16,0,19.62,0a1.58,1.58,0,0,0,1.59-1.53c.11-3.18.18-10.25-1.34-11.77C130,409.4,116.93,413.93,116.93,413.93Z"/><path class="cls-24" d="M139.64,251.26s2.56,7.45,1.4,10.36-.58,3.49,1.51,4.42,2.31,10.34,8.14,8.52,12.77-3.78,12.77-3.78,3.41-19.63-5.9-23.12S139.64,251.26,139.64,251.26Z"/><ellipse class="cls-23" cx="165.01" cy="370.66" rx="25.14" ry="9.19" transform="translate(-27.93 13.74) rotate(-4.4)"/><path class="cls-5" d="M147.44,342.15s-8.21,2.69-17.8,5.93c-9.15,3.09-15.42,3.9-15.77,9.95s3.44,53.86,3.44,53.86,5.06,4.26,15.54.07c0,0-.92-36.35.5-42.13,1.05-4.28,46.56-1.27,48.65-3.71s4.31-7.57,2.45-17A158.22,158.22,0,0,1,182,331.91Z"/><path class="cls-20" d="M91.93,289.39s-7.6,7.76-6.2,28.71h2.14S86,299.79,93.16,291.26Z"/><g class="cls-25"><path class="cls-26" d="M134.08,249.37s-.34,17,4.2,21.91c2.68,2.91,9.18,6.53,19.77,1.29s11.44-35.39-1.84-34.8S134.08,249.37,134.08,249.37Z"/></g><path class="cls-22" d="M75.73,317.15H98.37s2,9.42.34,15.63a1.44,1.44,0,0,1-1.39,1.07H75.26s4.33-1.64,3.92-9.86C78.9,318.52,75.73,317.15,75.73,317.15Z"/><path class="cls-19" d="M105.42,312.47s17.58-6.4,21.89-8,19.31-14.43,24.55-21.52L171,275.59s9.43,8.61,9.2,21.87S181,326,182,331.91s1.93,9.46,1.23,10.28c0,1.72-25,1.71-40.86,1.63l2.93-30.71s-12,11.35-37.2,14.37Z"/><circle class="cls-26" cx="93.16" cy="323.24" r="4.01"/><path class="cls-24" d="M101.55,314.22a18.37,18.37,0,0,1-6.9,1.39c-3.57-.07-7-.34-7.84,4-.82,4.09,1.25,6.52,4.66,8.46s5.89.44,2.54-1.48-3-2.16-3-2.16-.54-4.41,3-4.06,2,3.53-1.12,5.56c0,0,1.26,2.23,3.12,1.13,1.21-.72,7.3-.06,9.41-3.61S101.55,314.22,101.55,314.22Z"/><path class="cls-26" d="M134.14,252.93s-2.33-21.41,21.56-23.27,26.89,29.53,18.82,38.68c0,0-8.16,2.59-18,4.72,0,0,2.45-17-4.22-22.45C152.29,250.61,135.69,254.17,134.14,252.93Z"/><path class="cls-27" d="M173.51,271.38s-21.7,4.67-27,7.23c0,0,1.21,6,4.48,6.36,0,0,18.17-5.41,22.56-5.78C173.51,279.19,173.91,272.48,173.51,271.38Z"/><path class="cls-27" d="M101.09,313.6s-.62,8.69,3.72,15.67c0,0,2.33.46,5-2,0,0-3.71-9.66-3.09-15.24A29.53,29.53,0,0,0,101.09,313.6Z"/><path class="cls-27" d="M141.9,315.57l22.17-18.11S156.65,310.35,141.9,315.57Z"/><path class="cls-16" d="M92.89,325.89s2,1,2.19,1.43Z"/><path class="cls-22" d="M101.06,293.7a8.6,8.6,0,0,1-2.55.39,8.44,8.44,0,0,1-3.43-16.15Z"/><ellipse class="cls-19" cx="75.26" cy="325.5" rx="8.36" ry="4.83" transform="translate(-253.94 382.42) rotate(-86.79)"/><rect class="cls-20" x="245.77" y="424.7" width="17.92" height="10.54"/><rect class="cls-5" x="190.15" y="289.66" width="82.7" height="61.98"/><rect class="cls-19" x="190.15" y="303.75" width="82.7" height="61.98"/><rect class="cls-27" x="249.55" y="318.48" width="23.3" height="29.02"/><path class="cls-26" d="M142.08,256.82a2.16,2.16,0,0,1,.58-1.27,2.61,2.61,0,0,1,1.23-.77,2.85,2.85,0,0,1,1.45,0,3.61,3.61,0,0,1,.65.24,4,4,0,0,1,.57.42c-.24,0-.46,0-.68.05l-.61,0a6.25,6.25,0,0,0-1.11.2A6.52,6.52,0,0,0,142.08,256.82Z"/><ellipse class="cls-26" cx="144.32" cy="258.93" rx="0.99" ry="1.42"/><path class="cls-28" d="M144.08,268.3s4.25-1.25,4.06-.36-3.36,2.38-3.36,2.38Z"/><path class="cls-20" d="M23.68,411.45a32.31,32.31,0,1,1,58,28.41"/><path class="cls-22" d="M81.71,446.4A6.54,6.54,0,0,1,75.85,437a25.78,25.78,0,0,0-46.3-22.67,6.53,6.53,0,1,1-11.74-5.74,38.84,38.84,0,1,1,69.77,34.15A6.53,6.53,0,0,1,81.71,446.4Z"/></g></g></svg>