<svg xmlns="http://www.w3.org/2000/svg" viewBox="0 0 515.73 388.41"><defs><style>.cls-1{fill:#fbfbfb;}.cls-2{fill:#efefef;}.cls-3{fill:#d8d8d8;}.cls-4{fill:#d6d6d6;}.cls-5{fill:#ededed;}.cls-6{fill:#ffb6b0;}.cls-7{fill:#ff8f80;}.cls-8{fill:#c6c6c6;}.cls-9{fill:#16242b;}.cls-10{fill:#121e21;}.cls-11{fill:#22393d;}.cls-12{fill:#e0a4ab;}.cls-13{fill:#f58a53;}.cls-14{fill:#ffcdc2;}.cls-15{fill:#e9602d;}.cls-16{fill:#ea7185;}.cls-17{fill:#35332e;}.cls-18{fill:#637ddb;}.cls-19{fill:#4164c9;}.cls-20{fill:#8398ff;}.cls-21{fill:#efb000;}.cls-22{fill:#1b2d37;}.cls-23{fill:#00ab45;}.cls-24{fill:#1e1e1e;}.cls-25{fill:#414042;}.cls-26{fill:#008e39;}.cls-27{fill:#f4f4f4;}.cls-28{fill:#00c6b3;}.cls-29{fill:#3c585b;}.cls-30{fill:#008e7d;}.cls-31{fill:#243bb2;}.cls-32{fill:#017c6a;}.cls-33{fill:#089e88;}.cls-34{fill:#314ec9;}.cls-35{fill:#bc5b35;}.cls-36{fill:#a1a1af;}.cls-37{fill:#7d7d89;}.cls-38{fill:#d8d8df;}.cls-39{fill:#4358eb;}.cls-40{fill:#6fce5b;}.cls-41{fill:#c7c7c7;}</style></defs><g id="Layer_2" data-name="Layer 2"><g id="Layer_1-2" data-name="Layer 1"><path class="cls-1" d="M101.83,125.3V91.17h7.33V125.3h-7.33m115.31,0a.25.25,0,0,1-.25-.25V83.63a.25.25,0,0,1,.25-.25H224a.25.25,0,0,1,.26.25v41.42a.25.25,0,0,1-.26.25h-6.81m-82.44,0V80.54H142V125.3H134.7m32.88,0V77.71h7.32V125.3h-7.32m33.13,0a.26.26,0,0,1-.26-.25V66.35a.26.26,0,0,1,.26-.26h6.81a.26.26,0,0,1,.26.26v58.7a.26.26,0,0,1-.26.25h-6.81m-49.57,0V64.17h7.33V125.3h-7.33m82.44,0a.26.26,0,0,1-.26-.25V64.42a.26.26,0,0,1,.26-.25h6.81a.26.26,0,0,1,.26.25v60.63a.26.26,0,0,1-.26.25h-6.81m83.3,3.28a33.79,33.79,0,0,1,0-67.58V94.79h33.79a33.79,33.79,0,0,1-33.79,33.79M118.27,125.3V56h7.33V125.3h-7.33M325.67,86V52.21A33.79,33.79,0,0,1,359.46,86H325.67m-75.91,39.3v-74h7.33v74h-7.33m-65.6,0-.15-.14V45.05l.15-.15h7l.14.15v80.11l-.14.14h-7M364.27,2.16H90.47a5.29,5.29,0,0,0-5.29,5.3V153.83a5.29,5.29,0,0,0,5.29,5.3h273.8a5.29,5.29,0,0,0,5.29-5.3v-137H85.18V8.1a5.65,5.65,0,0,1,5.66-5.66H363.9a5.66,5.66,0,0,1,5.66,5.66V7.46a5.29,5.29,0,0,0-5.29-5.3"/><path class="cls-2" d="M363.9,2.44H90.84A5.65,5.65,0,0,0,85.18,8.1v8.73H369.56V8.1h0a5.66,5.66,0,0,0-5.66-5.66"/><polyline class="cls-3" points="109.16 91.17 101.83 91.17 101.83 125.3 109.16 125.3 109.16 91.17"/><polyline class="cls-3" points="125.59 56.04 118.27 56.04 118.27 125.3 125.59 125.3 125.59 56.04"/><polyline class="cls-3" points="142.03 80.54 134.7 80.54 134.7 125.3 142.03 125.3 142.03 80.54"/><polyline class="cls-3" points="158.47 64.17 151.14 64.17 151.14 125.3 158.47 125.3 158.47 64.17"/><polyline class="cls-3" points="174.9 77.71 167.58 77.71 167.58 125.3 174.9 125.3 174.9 77.71"/><polyline class="cls-3" points="191.2 44.9 184.16 44.9 184.01 45.05 184.01 125.16 184.16 125.3 191.2 125.3 191.34 125.16 191.34 45.05 191.2 44.9"/><path class="cls-3" d="M207.52,66.09h-6.81a.26.26,0,0,0-.26.26v58.7a.26.26,0,0,0,.26.25h6.81a.26.26,0,0,0,.26-.25V66.35a.26.26,0,0,0-.26-.26"/><path class="cls-3" d="M224,83.38h-6.81a.25.25,0,0,0-.25.25v41.42a.25.25,0,0,0,.25.25H224a.25.25,0,0,0,.26-.25V83.63a.25.25,0,0,0-.26-.25"/><path class="cls-3" d="M240.39,64.17h-6.81a.26.26,0,0,0-.26.25v60.63a.26.26,0,0,0,.26.25h6.81a.26.26,0,0,0,.26-.25V64.42a.26.26,0,0,0-.26-.25"/><polyline class="cls-3" points="257.09 51.34 249.76 51.34 249.76 125.3 257.09 125.3 257.09 51.34"/><path class="cls-4" d="M316.88,61a33.79,33.79,0,1,0,33.79,33.79H316.88V61"/><path class="cls-5" d="M325.67,52.21V86h33.79a33.79,33.79,0,0,0-33.79-33.79"/><path class="cls-6" d="M442.29,20.22l-4.44-.7a21.74,21.74,0,0,0-1-2.34l2.65-3.63a3.05,3.05,0,0,0-.31-4l-4-3.95a3.05,3.05,0,0,0-3.95-.31L427.68,8a19,19,0,0,0-2.33-1l-.71-4.45a3,3,0,0,0-3-2.57h-5.58a3,3,0,0,0-3,2.57L412.33,7A19,19,0,0,0,410,8l-3.64-2.64a3.05,3.05,0,0,0-3.95.31l-4,3.95a3.05,3.05,0,0,0-.31,4l2.65,3.63a19.88,19.88,0,0,0-1,2.34l-4.44.7a3.05,3.05,0,0,0-2.58,3v5.59a3,3,0,0,0,2.58,3l4.44.7a18.56,18.56,0,0,0,1,2.34l-2.65,3.64a3.05,3.05,0,0,0,.31,4l4,3.95a3.05,3.05,0,0,0,3.95.31L410,44.07a20.77,20.77,0,0,0,2.33,1l.71,4.44a3,3,0,0,0,3,2.57h5.58a3,3,0,0,0,3-2.57l.71-4.44a20.77,20.77,0,0,0,2.33-1l3.64,2.65a3.05,3.05,0,0,0,3.95-.31l4-3.95a3.05,3.05,0,0,0,.31-4l-2.65-3.64a20.17,20.17,0,0,0,1-2.34l4.44-.7a3,3,0,0,0,2.58-3V23.23A3.05,3.05,0,0,0,442.29,20.22ZM418.84,35.68A9.65,9.65,0,1,1,428.49,26,9.65,9.65,0,0,1,418.84,35.68Z"/><path class="cls-7" d="M457.7,75.27l-2.3-.16a11.54,11.54,0,0,0-.6-1.16L456,72a1.54,1.54,0,0,0-.34-2l-2.19-1.85a1.59,1.59,0,0,0-2,0l-1.74,1.52a8.52,8.52,0,0,0-1.24-.39L447.88,67a1.56,1.56,0,0,0-1.65-1.19l-2.86.25A1.57,1.57,0,0,0,442,67.55l-.16,2.3a11.54,11.54,0,0,0-1.16.6l-2-1.19a1.55,1.55,0,0,0-2,.33l-1.85,2.2a1.59,1.59,0,0,0,0,2l1.52,1.74a8.52,8.52,0,0,0-.39,1.24l-2.24.55A1.56,1.56,0,0,0,432.53,79l.25,2.86a1.56,1.56,0,0,0,1.45,1.42l2.3.16a11.54,11.54,0,0,0,.6,1.16l-1.19,2a1.56,1.56,0,0,0,.34,2l2.19,1.84a1.57,1.57,0,0,0,2,0l1.74-1.52a8.52,8.52,0,0,0,1.24.39l.56,2.24a1.55,1.55,0,0,0,1.65,1.18l2.86-.25A1.55,1.55,0,0,0,450,91l.16-2.3a11.54,11.54,0,0,0,1.16-.6l2,1.19a1.55,1.55,0,0,0,2-.34l1.85-2.19a1.59,1.59,0,0,0,0-2L455.59,83a8.92,8.92,0,0,0,.39-1.24l2.24-.56a1.55,1.55,0,0,0,1.18-1.65l-.25-2.86A1.55,1.55,0,0,0,457.7,75.27Zm-11.3,9a5,5,0,1,1,4.5-5.37A5,5,0,0,1,446.4,84.22Z"/><path class="cls-8" d="M471.73,56.38a2,2,0,0,1-1.74-1l-1-1.69c-.25,0-.49,0-.74,0l-1.05,1.68a2,2,0,0,1-2.52.8l-2.6-1.11a2,2,0,0,1-1.18-2.37l.48-1.92c-.18-.17-.35-.34-.52-.52l-1.92.45a2,2,0,0,1-2.35-1.23l-1.06-2.61a2,2,0,0,1,.84-2.52l1.69-1c0-.25,0-.49,0-.74l-1.67-1.05a2,2,0,0,1-.8-2.52l1.1-2.6a2,2,0,0,1,2.37-1.18l1.92.48c.17-.18.35-.35.52-.52l-.44-1.92a2,2,0,0,1,1.22-2.35l2.62-1.06a2,2,0,0,1,2.51.84l1,1.7h.73l1-1.67a2,2,0,0,1,2.53-.8l2.59,1.1a2,2,0,0,1,1.18,2.37L476,35.33c.17.17.35.35.51.53l1.92-.45a2,2,0,0,1,2.36,1.22l1.05,2.62a2,2,0,0,1-.84,2.51l-1.69,1c0,.24,0,.49,0,.73L481,44.56a2,2,0,0,1,.79,2.53l-1.1,2.59a2,2,0,0,1-2.37,1.19l-1.92-.48c-.17.18-.34.35-.52.51l.44,1.93a2,2,0,0,1-1.22,2.35l-2.62,1A1.89,1.89,0,0,1,471.73,56.38Zm-2.2-3.71,1.32,2.21a1,1,0,0,0,1.28.43l2.62-1.06a1,1,0,0,0,.62-1.2l-.58-2.5.23-.2a9.85,9.85,0,0,0,.86-.85l.2-.23,2.5.63a1,1,0,0,0,1.21-.61l1.1-2.59a1,1,0,0,0-.4-1.29L478.3,44l0-.3c0-.4,0-.81,0-1.21l0-.3,2.21-1.33a1,1,0,0,0,.43-1.28L479.9,37a1,1,0,0,0-1.2-.63l-2.51.58-.19-.22a8.82,8.82,0,0,0-.86-.87l-.22-.2.62-2.5a1,1,0,0,0-.6-1.21l-2.59-1.1a1,1,0,0,0-1.29.41l-1.37,2.18-.3,0a8.17,8.17,0,0,0-1.21,0h-.3l-1.33-2.2a1,1,0,0,0-1.28-.43l-2.61,1.05a1,1,0,0,0-.63,1.2l.58,2.51-.23.2a9.83,9.83,0,0,0-.86.85l-.2.22-2.5-.62a1,1,0,0,0-1.21.6l-1.1,2.6a1,1,0,0,0,.41,1.29l2.18,1.36,0,.3a8.29,8.29,0,0,0,0,1.22v.3l-2.2,1.32a1,1,0,0,0-.43,1.28l1.05,2.62a1.05,1.05,0,0,0,1.2.62l2.51-.58.19.23a11.74,11.74,0,0,0,.86.87l.22.2-.62,2.49a1,1,0,0,0,.6,1.21l2.6,1.11a1.05,1.05,0,0,0,1.29-.41l1.36-2.18.3,0a9.8,9.8,0,0,0,1.21,0Zm-.84-4.24A5.32,5.32,0,0,1,466.6,48h0a5.37,5.37,0,1,1,2.09.43ZM467,47.08a4.39,4.39,0,0,0,5.74-2.32A4.36,4.36,0,0,0,470.41,39a4.37,4.37,0,1,0-3.42,8Z"/><path class="cls-9" d="M393.06,385.45c-8.93.25-33.6-.18-33.6-.18s-5.18-9,6.88-9.69S378,368.09,378,368.09c3.74-.26,8.45-.17,14.21-.56Z"/><path class="cls-10" d="M426.25,219.9s5.73,19.31-.35,46c-4.77,21,3.33,102.73,3.33,102.73H411.87s-19.13-119-16.91-145.94S423,207.7,426.25,219.9Z"/><path class="cls-11" d="M411.81,218.24s9.09,21.41-4.6,47c-9.07,17-14.31,104.5-14.31,104.5H377.12s-5.34-119.17,0-146.67S410,205.82,411.81,218.24Z"/><path class="cls-12" d="M432.09,190.64s-1.28,20.73-11.29,29.15S416.31,176,432.09,190.64Z"/><path class="cls-13" d="M432.28,165.63c1.82,18.17,1.47,24.55,1.47,24.55l-10.44,2.15s3.18,26.42,7.07,36c0,0-39.61,10.26-55.34-3.32,5-10.29,5.9-23,4.23-37.29,0,0-12.24-12.17-.26-25.08,0,0-.52-13.48,9.64-16.6C388.65,146.06,428.62,129.11,432.28,165.63Z"/><path class="cls-12" d="M389.91,135.7s1.91,8.19-1.24,10.65c0,0,6.32-5.18,13.62,4.67C402.29,151,409.6,127.23,389.91,135.7Z"/><path class="cls-14" d="M378.45,109.18s3.32,10.11,1.07,14.38c-2.95,5.59-.43,4.83.94,5.65s.56,11.38,8.08,9.91,13.75-8.07,13.75-8.07S385.53,104.82,378.45,109.18Z"/><path class="cls-10" d="M425.32,180.14s-37.26-4.28-32.94-49.14c1.17-12.15-9.35-13.22-13.5-19.18a10,10,0,0,1-1.75-5.48c-.36-8.8,16.63-19.58,29.32-9.49C434.3,119,403.82,148,425.32,180.14Z"/><path class="cls-14" d="M379.58,183.63v1.23s-18.66-13.13-22.36-20.31-1.42-10.41-6.76-12.1-9.23-1-14-2.4c0,0-2.74-1.41-2.21.83s3.25,1.73,7.27,3.11c0,0-1.81.84,0,3.11,0,0-2.15,1.41.2,2.81,0,0-2.39,2.06.21,3.62a1.77,1.77,0,0,0,.8,3.08s5.82-.67,11.25,7.18,19.57,31,29.82,30.76S395.17,187,395.17,187,382.55,189,379.58,183.63Z"/><path class="cls-15" d="M400.19,163.53c-.27,2-.5,3.92-.75,5.88s-.46,3.92-.69,5.88c-.44,3.92-.84,7.85-1.23,11.78l.45-.47c-1.58.19-3.2.29-4.81.33a42.79,42.79,0,0,1-4.81-.15,20.6,20.6,0,0,1-4.65-.92,7.18,7.18,0,0,1-3.73-2.49l.07.22c-.24-2.92-.4-5.86-.47-8.8,0-1.47-.05-2.94,0-4.41A29.39,29.39,0,0,1,380,166a24.81,24.81,0,0,0-.75,4.37c-.14,1.47-.24,2.95-.27,4.43s-.05,3,0,4.44.08,3,.16,4.43v.12l.07.11a6.51,6.51,0,0,0,1.88,1.82,10.79,10.79,0,0,0,2.29,1.12,20.67,20.67,0,0,0,4.89,1,37,37,0,0,0,4.94.16,48.14,48.14,0,0,0,4.92-.38l.42,0,0-.42q.49-5.9.92-11.81c.13-2,.28-3.93.38-5.91S400.11,165.5,400.19,163.53Z"/><path class="cls-15" d="M422.85,192.45a41.39,41.39,0,0,0,1.08-9.57,42.73,42.73,0,0,0-1.08,9.57Z"/><path class="cls-10" d="M385.26,117.09c-.58,0-1,0-1.41,0a4.61,4.61,0,0,0-.92.09,8.78,8.78,0,0,0-.95.24c-.19.06-.39.14-.63.2a6.69,6.69,0,0,1-.78.24,1.84,1.84,0,0,1,.13-.65,2.51,2.51,0,0,1,.42-.58,3.07,3.07,0,0,1,1.61-.8,2.75,2.75,0,0,1,1.79.24A1.29,1.29,0,0,1,385.26,117.09Z"/><ellipse class="cls-10" cx="383.23" cy="120.26" rx="0.87" ry="1.28" transform="translate(-17.09 87.59) rotate(-12.76)"/><path class="cls-10" d="M382.56,119.39a1.41,1.41,0,0,1,.62-.55,1.39,1.39,0,0,1,.82-.15,1.44,1.44,0,0,1-.62.56A1.38,1.38,0,0,1,382.56,119.39Z"/><path class="cls-16" d="M387.17,130.65c-.52.21-.92.35-1.3.47l-1.07.33c-.35.1-.71.2-1.11.33-.2.07-.41.13-.63.22a4.26,4.26,0,0,0-.71.31,2.41,2.41,0,0,0,1.36.76,3.07,3.07,0,0,0,1.56,0,3,3,0,0,0,1.36-.86A2,2,0,0,0,387.17,130.65Z"/><path class="cls-9" d="M429.23,385.45l-33.6-.18s-5.18-9,6.88-9.69,11.63-7.49,11.63-7.49c3.74-.26,8.45-.17,14.21-.56Z"/><path class="cls-10" d="M418.2,132.85s-1.73,29.26,9.68,39C428.85,171.75,399.54,170.72,418.2,132.85Z"/><path class="cls-12" d="M342.34,156.92a14.48,14.48,0,0,0,3.46.48c.58,0,1.14,0,1.71,0l1.76-.06a4.4,4.4,0,0,0-1.67-.71,8.77,8.77,0,0,0-1.76-.24,10.42,10.42,0,0,0-1.76.08A7.35,7.35,0,0,0,342.34,156.92Z"/><path class="cls-12" d="M342.14,159.72a18.09,18.09,0,0,0,3.57.59l1.76.13c.59,0,1.17.06,1.8.14a4.17,4.17,0,0,0-1.66-.91,8.72,8.72,0,0,0-1.82-.34,10.17,10.17,0,0,0-1.83,0A7.29,7.29,0,0,0,342.14,159.72Z"/><path class="cls-12" d="M342.58,163.16a13.71,13.71,0,0,0,3.22.6c.53.05,1.06.07,1.59.1l1.64,0a4,4,0,0,0-1.5-.81,7.17,7.17,0,0,0-1.65-.31,8.38,8.38,0,0,0-1.66,0A6,6,0,0,0,342.58,163.16Z"/><path class="cls-12" d="M347.67,154.36a4.3,4.3,0,0,0-1.32-.62,6.3,6.3,0,0,0-1.42-.24,6.45,6.45,0,0,0-1.45.11,3.87,3.87,0,0,0-1.36.57,10.7,10.7,0,0,0,1.41.21c.45.05.9.07,1.35.1A12.65,12.65,0,0,0,347.67,154.36Z"/><path class="cls-17" d="M153,310.64h21.91a5.08,5.08,0,0,1,5.08,5.08v1.72a0,0,0,0,1,0,0H148a0,0,0,0,1,0,0v-1.72a5.08,5.08,0,0,1,5.08-5.08Z" transform="translate(335.53 624.01) rotate(178.61)"/><ellipse cx="201.87" cy="380.19" rx="4.69" ry="4.63"/><path d="M163.49,377.14c0,2.56.89,4.63,2,4.63l2.23,0c.39-2-.18-7.92-.18-9.22h-2.05C164.38,372.51,163.49,374.58,163.49,377.14Z"/><ellipse cx="167.53" cy="377.14" rx="1.48" ry="4.63"/><rect class="cls-17" x="162.93" y="316" width="4.79" height="56.5" transform="translate(330.64 688.51) rotate(180)"/><path d="M169.91,316h-.56v43l36.35,10.26a1.22,1.22,0,0,1,.84,1l.37,2.38c.23,1.46-.37,2.76-1,2.81l-5.64.42a1.41,1.41,0,0,1-.46,0,2,2,0,0,1-1.34-1.61l-.34-1.69a1.84,1.84,0,0,0-1.26-1.06l-27.49-5.72v6.72h-4.79v-6.74l-27.62,5.74a1.84,1.84,0,0,0-1.26,1.06l-.34,1.69a2,2,0,0,1-1.34,1.61,1.41,1.41,0,0,1-.46,0l-5.64-.42c-.66-.05-1.26-1.35-1-2.81l.37-2.38a1.2,1.2,0,0,1,.83-1L164.56,359V316H164"/><ellipse cx="129.46" cy="380.19" rx="4.69" ry="4.63"/><path d="M155.65,310.64h21.91a5.08,5.08,0,0,1,5.08,5.08v1.72a0,0,0,0,1,0,0H150.57a0,0,0,0,1,0,0v-1.72A5.08,5.08,0,0,1,155.65,310.64Z" transform="translate(340.75 623.95) rotate(178.61)"/><rect x="153.31" y="280.05" width="8.89" height="16.73" transform="translate(315.51 576.82) rotate(180)"/><path class="cls-18" d="M188.34,273.47l-4.88,7.27s-40,2.26-59.77-1.41a1.92,1.92,0,0,1-1.15-.71c-2.29-3-12-17.32-7.44-43,2.81-15.69-1-16.67-2.95-21a.79.79,0,0,1,.21-.89l5.53-5.19L130.07,222l-2.94,26.33,2.81,22.29Z"/><path class="cls-19" d="M206.64,302.88s7.19.67,5.3,6.45a3.91,3.91,0,0,1-3.62,2.66l-68.08,1.52s-16.29-1.75-21.87-7c0,0-3.92-9.94,15.95-6.45Z"/><path class="cls-20" d="M149.74,308.37,202.93,307a3.22,3.22,0,0,0,2.76-1.72h0a2.53,2.53,0,0,0-.28-2.83c-7.64-9.17-20-9.75-24.49-9.63-1.8.05-3.59.05-5.39,0-7.28-.07-23.54.07-31.8,2.66l-2.16,8.17Z"/><path class="cls-18" d="M149.74,308.37s9-7.28-6-12.84c0,0-9.15.2-16.3,5.86-6.24,4.95,9,6.78,12.91,7.16l1.56.16A26.9,26.9,0,0,0,149.74,308.37Z"/><path class="cls-21" d="M199.79,252.27l2.11,1.3Z"/><path class="cls-21" d="M199.56,252.13l.07,0Z"/><path class="cls-21" d="M199.5,252.09l.06,0Z"/><path class="cls-21" d="M199.63,252.17l.16.1Z"/><path class="cls-21" d="M201.9,253.57l.37.22Z"/><path class="cls-21" d="M202.38,253.86Z"/><path class="cls-21" d="M202.27,253.79l.11.07Z"/><path class="cls-20" d="M128.86,273.85a1.15,1.15,0,0,1-.77-.49c-1.61-2.27-8.9-14.14-4.23-36.71,3.33-16.11-1.83-23.79-6-27.25a.55.55,0,0,1,.33-1l55.88-1.58s15.69,4.53,10.46,29.8c-4.31,20.82,1.56,32.53,3.76,36a.87.87,0,0,1-.61,1.32C181.3,274.9,154.17,278.31,128.86,273.85Z"/><path class="cls-14" d="M221.67,352.8l-1.4,18.7L209,371.36s-1.26-22.22-1-22.64S221.67,352.8,221.67,352.8Z"/><path class="cls-22" d="M204.42,386.05c10.18.51,24.1,1.41,38.33.63,0,0,6.13-10.13-7.61-11.23s-13.08-8.84-13.08-8.84c-4.26-.39-9.64-.4-16.2-1Z"/><path class="cls-14" d="M255.54,306.84l14.15,12.31-6.84,8.94s-18.56-12.28-18.73-12.76S255.54,306.84,255.54,306.84Z"/><path class="cls-22" d="M271.88,340.56c6.49-7.86,15.54-18.48,23.42-30.36,0,0-4.45-11-13.55-.61s-14.91,5.21-14.91,5.21c-2.85,3.18-6.08,7.48-10.48,12.39Z"/><path class="cls-12" d="M192.4,229.08s.63,4.58.69,6.65c0,0,7.73,1.82,9.47,3.66l-12.23,4.8-6.78-1.09-1.93-7Z"/><path class="cls-11" d="M189.76,261.33l11.48-4.39A18.59,18.59,0,0,1,218,263c6.95,7.47,40.84,40.6,46,45.65a1.12,1.12,0,0,1,.16,1.43c-1.67,2.63-7.23,11.15-10.85,14.48a1.15,1.15,0,0,1-1.61-.06c-3.68-3.91-20.09-21.16-23.92-22.08-4.33-1-45.73-7.62-45.73-7.62-23.27,11.11-39.09,9.24-39.21-20l46-14.8Z"/><path class="cls-10" d="M176.36,297.27s29.63-16.43,39.33-11c2.92,1.65,14,6.75,13.54,18-.91,24.61-4.19,56.89-4.19,56.89a1.1,1.1,0,0,1-1,1,68.7,68.7,0,0,1-18.73-.91,1.08,1.08,0,0,1-.85-1.07s0-24.78,0-44.24C204.42,302.91,186.53,296.82,176.36,297.27Z"/><path class="cls-23" d="M149.61,191.59S125.9,193,124.14,208.8a18.82,18.82,0,0,0,.11,2.12c0,3.38,2.42,13.93,7.93,30.21a274.52,274.52,0,0,1,10.66,33.62s21.71-5.39,46.92-13.42a238.86,238.86,0,0,1-7.4-24.66,35.51,35.51,0,0,0,13-9.67,2,2,0,0,0,.47-1.4h0a2.05,2.05,0,0,0-.56-1.33,107,107,0,0,1-11.92-15.44,10.28,10.28,0,0,0-4.24-3.79l-15.56-7.51-12.52-6Z"/><path class="cls-12" d="M171.63,190.44s-3.93,5.12-.36,10.73a5.28,5.28,0,0,1,.86,2.55c.27,3.67-.12,11.84-10.21,5.2a10.66,10.66,0,0,1-1.69-1.37,66.88,66.88,0,0,1-11.87-15.85s9.22-8.61,13.24-16.95Z"/><path class="cls-14" d="M192.65,171.06l-2.51,5.71s-1.49,3.85-3,8.29c-2.13,6.18-7.17,9.62-13.19,7.63-6.71-2.21-12.17-10.8-11.92-15.68l-3.55-1.69-1.38-8.09,7.47-2.44,1.5,3.45,5.4-8.16Z"/><path class="cls-24" d="M197.29,173.38s-.08-27.76-22-26.5a16.09,16.09,0,0,0-5.93,1.56l-.07,0s-18.28-7.13-17,23.22c.08,1.89,1.59,10,3.6,11.72,0,0,3.36-.26,6.18-6.41a8.59,8.59,0,0,1-2.91-4.61c-.2-1.27-.26-3.31,1.53-4.51,2.15-1.45,5.25,1,3.72,5.19,1.63.59,6.22-8.36,6.81-11.27,0,0,2.32,3.16,25.06,12.17A.74.74,0,0,0,197.29,173.38Z"/><ellipse class="cls-24" cx="178.36" cy="175.08" rx="1.6" ry="1.27" transform="translate(-48.97 278.95) rotate(-69.02)"/><ellipse class="cls-24" cx="187.12" cy="178.1" rx="1.25" ry="1" transform="translate(-46.15 289.07) rotate(-69.02)"/><path class="cls-25" d="M181.66,172.74a1.76,1.76,0,0,0-.13-1.48,2.16,2.16,0,0,0-1.24-1,2.81,2.81,0,0,0-1.49-.05,5,5,0,0,0-.68.25,3.29,3.29,0,0,0-.59.41,4.87,4.87,0,0,0,.69.13c.22,0,.42.08.63.09a7.67,7.67,0,0,1,1.09.24A3,3,0,0,1,181.66,172.74Z"/><path class="cls-25" d="M190.24,175.42a1.91,1.91,0,0,0-.25-1.2,2.17,2.17,0,0,0-1-.87,1.81,1.81,0,0,0-1.33-.1,1.68,1.68,0,0,0-1,.75c.43.06.77.06,1.07.13a2.67,2.67,0,0,1,.77.24A12.83,12.83,0,0,1,190.24,175.42Z"/><path class="cls-25" d="M182,188.58a10.12,10.12,0,0,0-1.14-.88,11.61,11.61,0,0,0-1-.62c-.33-.18-.65-.36-1-.54s-.73-.39-1.26-.62a2.2,2.2,0,0,0,.32,1.55,3,3,0,0,0,1.13,1.08,3.46,3.46,0,0,0,1.46.42A2.64,2.64,0,0,0,182,188.58Z"/><path class="cls-25" d="M184.15,181.36a6.05,6.05,0,0,0-.23,1.09,8.17,8.17,0,0,0-.06,1.11v.28s0,.07,0,.11a.22.22,0,0,1-.21.13,3.16,3.16,0,0,1-.51,0,1.8,1.8,0,0,1-.52-.11,1,1,0,0,0,.44.41,1.82,1.82,0,0,0,.58.14.64.64,0,0,0,.39-.06.62.62,0,0,0,.31-.29.65.65,0,0,0,.09-.41v-.26A13.64,13.64,0,0,0,184.15,181.36Z"/><path class="cls-26" d="M177.15,218.54c.21,1.58.53,3.12.89,4.66s.75,3.05,1.18,4.56.9,3,1.42,4.5a47.33,47.33,0,0,0,1.72,4.41c-.21-1.57-.52-3.12-.88-4.65s-.76-3.05-1.18-4.57-.9-3-1.42-4.49S177.81,220,177.15,218.54Z"/><path class="cls-12" d="M163.15,174.79a1.18,1.18,0,0,1-.86.21,1.29,1.29,0,0,1-.73-.48,4.63,4.63,0,0,1-.82-1.61,3.79,3.79,0,0,1-.17-1.76,2.33,2.33,0,0,1,.79-1.45,1.21,1.21,0,0,1,1.43-.18,2.23,2.23,0,0,1,.72,1.48,3.56,3.56,0,0,1-.15,1.77c-.1.27-.27.57-.53.61s-.49-.3-.64-.56a2,2,0,0,0,.21.44.58.58,0,0,0,.43.27.65.65,0,0,0,.48-.23,1.49,1.49,0,0,0,.3-.41,3.84,3.84,0,0,0,.33-1.95,4.18,4.18,0,0,0-.21-1,1.92,1.92,0,0,0-.63-.88,1.5,1.5,0,0,0-1.1-.25,2.07,2.07,0,0,0-1,.44,2.85,2.85,0,0,0-1,1.81,4.09,4.09,0,0,0,.29,2,5.17,5.17,0,0,0,1,1.67,1.55,1.55,0,0,0,.91.43A1.13,1.13,0,0,0,163.15,174.79Z"/><path class="cls-12" d="M163.65,172.55a1.43,1.43,0,0,0,0-.68.72.72,0,0,0-.19-.32.65.65,0,0,0-.36-.18,1.1,1.1,0,0,0-1.17.85,2,2,0,0,0,.25,1.4,1.49,1.49,0,0,0,1.07.81,1.84,1.84,0,0,1-.76-1,2,2,0,0,1-.15-1.15.79.79,0,0,1,.72-.64C163.39,171.65,163.58,172.13,163.65,172.55Z"/><path class="cls-27" d="M101.56,387.48H74A12.44,12.44,0,0,1,61.62,375V257.82h8.45V375a3.92,3.92,0,0,0,3.88,4h27.61a3.92,3.92,0,0,0,3.89-4V257.33h8.45V375A12.44,12.44,0,0,1,101.56,387.48Z"/><path class="cls-27" d="M331.59,387.48H304A12.44,12.44,0,0,1,291.65,375V257.82h8.44V375a3.93,3.93,0,0,0,3.89,4h27.61a3.93,3.93,0,0,0,3.89-4V257.33h8.44V375A12.44,12.44,0,0,1,331.59,387.48Z"/><rect class="cls-28" x="34.6" y="250.09" width="330.58" height="11.86"/><path class="cls-29" d="M225.19,258.13l-37.05-6.3a.33.33,0,0,1-.08-.63L205.88,243l23.78,1.82-4.39,12.29Z"/><path class="cls-14" d="M190.05,242.54S167.46,240,156,240.85a25.26,25.26,0,0,0-3.67-5.89,74,74,0,0,1-15.77,5.1l8.53,13.3s1.43,4.23,20.7.75c18.63-3.36,21.83-3.1,21.83-3.1Z"/><path class="cls-26" d="M147.8,207.82c.3,2.15.71,4.29,1.17,6.41.63,2.08,1.26,4.16,1.95,6.21s1.41,4.11,2.19,6.14c.39,1,.79,2,1.22,3q.31.77.66,1.5l.34.74.17.37a.8.8,0,0,1,.07.24.46.46,0,0,1,0,.35.35.35,0,0,1-.11.09l-.36.17-1.46.68c-1,.44-2,.86-3,1.27-2,.81-4,1.56-6,2.23s-4.11,1.25-6.19,1.76a52.85,52.85,0,0,1-6.28,1.56,40.93,40.93,0,0,0,6.53-.49,65.15,65.15,0,0,0,6.29-1.76c2.07-.68,4.11-1.44,6.13-2.26,1-.42,2-.84,3-1.29.49-.22,1-.45,1.48-.69l.37-.18a1.46,1.46,0,0,0,.51-.42,1.53,1.53,0,0,0,.26-1.2,1.82,1.82,0,0,0-.16-.53l-.17-.37-.33-.73c-.23-.49-.45-1-.65-1.48-.43-1-.82-2-1.21-3q-1.16-3-2.18-6.09c-.67-2.05-1.32-4.1-1.91-6.18Z"/><path class="cls-14" d="M190.05,242.54s2.95,1,12.09-4.12a6.47,6.47,0,0,1,3.19-.81c2.32,0,6.26.44,8.91,2.66a7.25,7.25,0,0,1,.76.58l.35.36a6,6,0,0,1,1.62,4.66,7.42,7.42,0,0,1-.8,3.07c-1,1.44-1.69-.85-1.69-.85s-.36,2.59-1.94,2.93a.76.76,0,0,1-.87-.89l.14-.88s-1.14,2.88-2.27,1.86a1.23,1.23,0,0,1-.37-1.05l.07-.62s-.59,2.83-2.07,2.34a1.44,1.44,0,0,1-.93-1.52l.1-1a1.5,1.5,0,0,0,0-.3c-.11-.73-.76-3.43-4.38-1a15.14,15.14,0,0,1-8,3.23c-4.68.34-6.33-.22-6.33-.22Z"/><path class="cls-12" d="M213,242.38a16.28,16.28,0,0,1,.9,2.8c.12.48.2,1,.3,1.44s.18,1,.31,1.47a6.46,6.46,0,0,0,.13-1.52,7.8,7.8,0,0,0-.19-1.52,6.93,6.93,0,0,0-.53-1.44A3.72,3.72,0,0,0,213,242.38Z"/><path class="cls-12" d="M210.78,244.08c.22.89.47,1.72.66,2.57.11.42.18.84.25,1.27s.09.87.12,1.33a4.33,4.33,0,0,0,.18-2.73,6.1,6.1,0,0,0-.46-1.3A4.59,4.59,0,0,0,210.78,244.08Z"/><path class="cls-12" d="M208.74,245.64c.12.68.26,1.28.35,1.9a9.24,9.24,0,0,1,.11.92c0,.32,0,.63,0,1a2.22,2.22,0,0,0,.4-.95,3.3,3.3,0,0,0,0-1,3.39,3.39,0,0,0-.31-1A2.6,2.6,0,0,0,208.74,245.64Z"/><path class="cls-12" d="M194.69,241.85A6.37,6.37,0,0,0,191,244a6.25,6.25,0,0,0-.65.88,6.84,6.84,0,0,0-.48,1,6,6,0,0,0-.39,2.12,11.85,11.85,0,0,1,.8-1.93,7.77,7.77,0,0,1,1.14-1.68,9.06,9.06,0,0,1,1.51-1.39A11.8,11.8,0,0,1,194.69,241.85Z"/><path class="cls-11" d="M260.69,211.13l-21.47-1.77a1.4,1.4,0,0,0-1.47,1l-13.23,47.31s-.13,1.63,7.4-1.26l19.37-6a1.76,1.76,0,0,0,1.2-1.25L262,212.93A1.43,1.43,0,0,0,260.69,211.13Z"/><rect class="cls-30" x="72.06" y="200.08" width="13.41" height="50.45"/><rect class="cls-31" x="58.68" y="200.08" width="13.41" height="50.45"/><polygon class="cls-32" points="101.58 217.83 91.93 200.08 84.95 200.08 84.95 250.54 101.58 250.54 101.58 217.83"/><circle class="cls-33" cx="78.56" cy="242.06" r="3.36"/><circle class="cls-34" cx="65.39" cy="242.06" r="3.36"/><path class="cls-35" d="M470.46,318.34a1.15,1.15,0,0,1-1.15-1c0-.1-1.07-10.28-4.89-15.23-4.28-5.55-8.2-11.36-9.12-21.39-1-11-3.65-18.27-8.07-22.3-5.73-5.24-4.17-11.16-4.1-11.41a1.16,1.16,0,0,1,1.42-.8,1.14,1.14,0,0,1,.81,1.41c-.06.22-1.21,4.85,3.43,9.09,4.93,4.51,7.73,12.07,8.81,23.8.87,9.41,4.59,14.92,8.65,20.19,4.22,5.47,5.32,16,5.36,16.41a1.16,1.16,0,0,1-1,1.27Z"/><path class="cls-35" d="M466,317.46c-.12-.48-2.91-11.95-1.21-19.51,1.41-6.29,4.35-19.38,2.17-24.61-2.4-5.76-.87-15.26,1.36-18.17a19.32,19.32,0,0,0,2.65-6.32l2.26.48a21.42,21.42,0,0,1-3.08,7.24c-1.68,2.19-3.19,10.74-1.05,15.88s.29,15.57-2.05,26c-1.58,7,1.17,18.34,1.2,18.45Z"/><path class="cls-35" d="M472.17,318.19c0-.14-.36-13.74-5.41-22.1-4.53-7.5-8.2-16-1.15-22.54,5.52-5.1,11.39-18,12.14-24.59.82-7.21,8.79-10.73,9.12-10.88l.92,2.13c-.07,0-7.08,3.14-7.75,9-.8,7.12-6.9,20.52-12.86,26-4.76,4.39-4.32,9.9,1.56,19.64,5.37,8.9,5.73,22.67,5.74,23.25Z"/><path class="cls-35" d="M469.3,319.34c0-.37-.25-9,5.6-15,5.55-5.7,6.29-11.37,2.38-18.37-4.62-8.29-.2-16.72,0-17.08l2,1.09c0,.08-4,7.7,0,14.86,4.43,7.94,3.56,14.64-2.74,21.11-5.15,5.29-4.95,13.24-4.95,13.32Z"/><path class="cls-35" d="M476.78,320.82l-2.22-.64c0-.15,4.41-15.76.9-22.5-4.31-8.27.52-13.51,6.29-18.58s6.53-17.15,6.54-17.27l2.31.13c0,.54-.86,13.21-7.33,18.88s-9,9.52-5.76,15.77C481.44,304.17,477,320.14,476.78,320.82Z"/><path class="cls-35" d="M477.08,319l-1.65-1.62c5.28-5.37,6.37-11.67,7.43-17.77.74-4.22,1.43-8.2,3.49-11.49,4.34-6.91,10.27-16.36,7.78-21.48-2.92-6-.13-12.05,0-12.3l2.09,1-1-.5,1,.5c0,.05-2.43,5.31,0,10.3,3.05,6.27-3.28,16.35-7.9,23.72-1.82,2.9-2.48,6.67-3.17,10.66C484.07,306.13,482.86,313.1,477.08,319Z"/><path class="cls-6" d="M479.8,382.27H465s-6.93-14.31-6.93-35.71c0-19,6.93-31.48,6.93-31.48H479.8s6.33,12.5,6.33,33.59C486.13,370.52,479.8,382.27,479.8,382.27Z"/><path class="cls-7" d="M479.8,382.27h-9.34s9.64-14.31,9.64-35.71a55.36,55.36,0,0,0-9.64-31.48h9.34s6.33,12.5,6.33,33.59C486.13,370.52,479.8,382.27,479.8,382.27Z"/><polygon class="cls-36" points="308.69 228.16 306.72 230.65 307.81 231.59 309.81 228.95 308.69 228.16"/><rect class="cls-36" x="314.27" y="235.38" width="6.46" height="3.59"/><rect class="cls-36" x="315.24" y="238.39" width="4.57" height="6.72"/><rect class="cls-37" x="318.53" y="239.17" width="1.29" height="5.94"/><path class="cls-38" d="M341.82,214.59a22.25,22.25,0,0,0-12.16-19.84l-1.24-.59-1.4,2.56a19.5,19.5,0,0,1-7.46,37.15h-.77a19.43,19.43,0,0,1-12.14-4.23c-.31-.25-.62-.51-.91-.78l-1.53,1.83a22.2,22.2,0,0,0,15.36,6.14h.78A22.25,22.25,0,0,0,341.82,214.59Z"/><circle class="cls-39" cx="318.92" cy="214.07" r="17.56"/><path class="cls-40" d="M301.42,212.61s2.29-3.71,3.72-4,.78-5.48,3.39-5.09,2.48.53,2,1.9-1,6.52-.07,6.58,3.66-7,5.74-6,1.31,3.13,1.63,3.2,2-.39,2.35,2a9,9,0,0,0,1.7,3.91s-.39-4.89.39-4.89,1.17,2.54,1.17,2.54,4.7-1.11,3.14-4.37-3.72-4.56-1.11-4.17,1.76-1.83,1.76-1.83a10.48,10.48,0,0,0,3-1.8,17.56,17.56,0,0,0-28.74,12Z"/><path class="cls-40" d="M324.71,220.06a19.49,19.49,0,0,0-2.28,2.87c-.13.52-2,.13-2.48-1.44s-2.09.59-2.09.59-3.72-1.05-3.52,3.33c0,0,4.4.45,4.58,2s1.42,2.61,4,1.11S324.71,220.06,324.71,220.06Z"/><path class="cls-40" d="M324.51,215.56a10.78,10.78,0,0,0,2.55.84c1,.13,2.35.07,2.67,2s1.7,4,.78,3.72-2.1-1.13-2.84,0c0,0,.76-3.15-1.59-4S324.51,215.56,324.51,215.56Z"/><path class="cls-36" d="M328.42,194.16l-.33.59a22.25,22.25,0,0,1-9.31,42.08h.79a22.26,22.26,0,0,0,8.85-42.68Z"/><rect class="cls-37" x="314.27" y="238.17" width="6.46" height="2"/><path class="cls-36" d="M318.74,241.36a6.34,6.34,0,0,0-.76,0h0a8.76,8.76,0,0,0-8.8,8.71v.49H326.8V250A8.76,8.76,0,0,0,318.74,241.36Z"/><path class="cls-36" d="M307.36,250.1h21.25a0,0,0,0,1,0,0v1.29a2.06,2.06,0,0,1-2.06,2.06H309.42a2.06,2.06,0,0,1-2.06-2.06V250.1A0,0,0,0,1,307.36,250.1Z"/><path class="cls-37" d="M325.24,249.8h3.37a0,0,0,0,1,0,0v2.62a1,1,0,0,1-1,1h-1.3a1,1,0,0,1-1-1V249.8A0,0,0,0,1,325.24,249.8Z"/><path class="cls-37" d="M318,241.32h0a6.45,6.45,0,0,0-.76,0,8.88,8.88,0,0,1,8.05,8.93v.47h1.57v-.47A8.86,8.86,0,0,0,318,241.32Z"/><rect class="cls-37" x="309.18" y="248.93" width="16.44" height="2"/><rect class="cls-41" y="385.56" width="515.73" height="2.85"/></g></g></svg>