<svg xmlns="http://www.w3.org/2000/svg" viewBox="0 0 466.68 494.53"><defs><style>.cls-1{fill:#e0e0e0;}.cls-2{fill:#eee;}.cls-3{fill:#d3d3d3;}.cls-4{fill:#fff;}.cls-5{fill:#ffe6a6;}.cls-6{fill:#333;}.cls-7{fill:#efb000;}.cls-8{fill:#ffb000;}.cls-9{fill:#d87600;}.cls-10{fill:#35332e;}.cls-11{fill:#737771;}.cls-12{fill:#ead19b;}.cls-13{fill:#ffcdc2;}.cls-14{fill:#1b2d37;}.cls-15{fill:#121e21;}.cls-16{fill:#22393d;}.cls-17{fill:#e0a4ab;}.cls-18{fill:#a7c3ea;}.cls-19{fill:#96b4e0;}.cls-20{fill:#688eba;}.cls-21{fill:#12b89f;}.cls-22{fill:#414042;}.cls-23{fill:#cce0ff;}.cls-24{fill:#dd6680;}.cls-25{fill:#ffc300;}.cls-26{fill:#bc5b35;}.cls-27{fill:#842f14;}.cls-28{fill:#e2e2e2;}.cls-29{fill:#d7d7d7;}.cls-30{fill:#3fd1b8;}.cls-31{fill:#1dae66;}.cls-32{fill:#6fce5b;}.cls-33{fill:#449935;}.cls-34{fill:#ef8560;}</style></defs><g id="Layer_2" data-name="Layer 2"><g id="Layer_1-2" data-name="Layer 1"><ellipse class="cls-1" cx="233.34" cy="478.31" rx="233.34" ry="16.22"/><path class="cls-2" d="M148.49,197.91V26.74h73.25V72.25h.37v2h-.37V117.1h.37v2h-.37V159h.37v2h-.37v36.95h-36v.17h-2v-.17H148.49M229.33,14.62H137.91V210h91.42V14.62m17.83,183.29V26.74h73.25V72.25h.36v2h-.36V117.1h.36v2h-.36V159h.36v2h-.36v36.95h-36v.17h-2v-.17H247.16M331,14.62H231.33V210H331V14.62M135.91,212V12.62H333V212H135.91M345.44,0h-222V224.65h222V0"/><path class="cls-3" d="M229.33,14.62V13.46h2v1.16H331V210H231.33v.76h-2V210H137.91V14.62h91.42m103.66-2H135.91V212H333V12.62"/><path class="cls-4" d="M221.74,161h-36v36.95h36V161m0-41.86h-36V159h36V119.1m0-44.85h-36V117.1h36V74.25m0-47.51H148.49V197.91h35.25V161H148.52v-2h35.22V119.1H148.52v-2h35.22V74.25H148.52v-2h35.22V26.91h2V72.25h36V26.74"/><path class="cls-3" d="M185.74,161h-2v37.12h2V161m0-41.86h-2V159h2V119.1m0-44.85h-2V117.1h2V74.25m0-47.34h-2V72.25h2V26.91"/><polyline class="cls-3" points="222.11 72.25 221.74 72.25 185.74 72.25 183.74 72.25 148.52 72.25 148.52 74.25 183.74 74.25 185.74 74.25 221.74 74.25 222.11 74.25 222.11 72.25"/><polyline class="cls-3" points="222.11 117.1 221.74 117.1 185.74 117.1 183.74 117.1 148.52 117.1 148.52 119.1 183.74 119.1 185.74 119.1 221.74 119.1 222.11 119.1 222.11 117.1"/><polyline class="cls-3" points="222.11 158.96 221.74 158.96 185.74 158.96 183.74 158.96 148.52 158.96 148.52 160.96 183.74 160.96 185.74 160.96 221.74 160.96 222.11 160.96 222.11 158.96"/><path class="cls-4" d="M320.41,161h-36v36.95h36V161m0-41.86h-36V159h36V119.1m0-44.85h-36V117.1h36V74.25m0-47.51H247.16V197.91H282.4V161H247.19v-2H282.4V119.1H247.19v-2H282.4V74.25H247.19v-2H282.4V26.91h2V72.25h36V26.74"/><path class="cls-3" d="M284.4,161h-2v37.12h2V161m0-41.86h-2V159h2V119.1m0-44.85h-2V117.1h2V74.25m0-47.34h-2V72.25h2V26.91"/><polyline class="cls-3" points="320.77 72.25 320.41 72.25 284.4 72.25 282.4 72.25 247.19 72.25 247.19 74.25 282.4 74.25 284.4 74.25 320.41 74.25 320.77 74.25 320.77 72.25"/><polyline class="cls-3" points="320.77 117.1 320.41 117.1 284.4 117.1 282.4 117.1 247.19 117.1 247.19 119.1 282.4 119.1 284.4 119.1 320.41 119.1 320.77 119.1 320.77 117.1"/><polyline class="cls-3" points="320.77 158.96 320.41 158.96 284.4 158.96 282.4 158.96 247.19 158.96 247.19 160.96 282.4 160.96 284.4 160.96 320.41 160.96 320.77 160.96 320.77 158.96"/><polyline class="cls-3" points="231.33 13.46 229.33 13.46 229.33 14.62 229.33 210.03 229.33 210.78 231.33 210.78 231.33 210.03 231.33 14.62 231.33 13.46"/><path class="cls-5" d="M233.34,393.9s2.93,29.8,14.92,25.52,41.83-21.77,41.83-21.77l-6.75-11.76s-31.07,27-36.41,12.26S233.34,393.9,233.34,393.9Z"/><polygon class="cls-6" points="150.19 292.11 132.29 292.11 107.7 480.96 117.09 480.96 150.19 292.11"/><path class="cls-5" d="M258.39,308.85h0l-19.64,3.83a21.65,21.65,0,0,0-12.75,6.5,15.82,15.82,0,0,0-2.95,17.92l16.23,34h10.33L237,334.88a10.16,10.16,0,0,1,2.22-10.46c2.28-2.32,4.74-2.56,14.55.67a13.16,13.16,0,0,1,1.37.56h0C242.72,317.06,258.39,308.85,258.39,308.85Z"/><path class="cls-5" d="M358.43,252.09l-4.16-6.38a9.87,9.87,0,0,0-8.1-4.45l-22.69-.34s-48.77,108.5-48.41,112.84a85.38,85.38,0,0,0-5-10.24A176.29,176.29,0,0,1,281,369.05h58.48L332.93,331l11.43-14.34Z"/><path class="cls-5" d="M323.48,240.92h0l-17.6-.16c-3.56.4-7.49,1.84-9,5.13-9.08,20.29-13.72,38.41-19.82,51.49-2.16,4.64-5.16,8.83-10.24,9.82l-8.47,1.65s-15.67,8.21-3.23,16.8h0c5.5,2.63,10.69,10,15,17.87a85.38,85.38,0,0,1,5,10.24C274.71,349.42,323.48,240.92,323.48,240.92Z"/><path class="cls-7" d="M352.57,402.87,349,405Z"/><path class="cls-7" d="M353,402.63l-.12.07Z"/><path class="cls-7" d="M353,402.58l-.09.05Z"/><path class="cls-7" d="M352.83,402.7l-.26.17Z"/><path class="cls-7" d="M349,405l-.61.38Z"/><path class="cls-7" d="M348.43,405.41l-.19.12Z"/><path class="cls-8" d="M339.46,403.24H208.52A18.48,18.48,0,0,1,190,384.75V373.84a4.79,4.79,0,0,1,4.78-4.79H339.46Z"/><path class="cls-9" d="M339.46,403.24H273.23a18.49,18.49,0,0,1-18.49-18.49v-8.6a7.1,7.1,0,0,1,7.1-7.1h77.62Z"/><path class="cls-10" d="M275,412.94H264.31a4.82,4.82,0,0,1-4.82-4.82v-4.88h20.37v4.88A4.82,4.82,0,0,1,275,412.94Z"/><path d="M213.56,474.5a8.26,8.26,0,1,1-8.25-8.16A8.21,8.21,0,0,1,213.56,474.5Z"/><path class="cls-11" d="M211.09,474.5a8.26,8.26,0,1,1-8.26-8.16A8.21,8.21,0,0,1,211.09,474.5Z"/><path d="M272.89,469.13c0,4.5-1.56,8.16-3.49,8.16-.95,0-3.94-.08-3.94-.08-.68-3.56.33-13.95.33-16.24h3.61C271.33,461,272.89,464.62,272.89,469.13Z"/><path class="cls-11" d="M268.4,469.13c0,4.5-1.17,8.16-2.61,8.16s-2.61-3.66-2.61-8.16,1.17-8.16,2.61-8.16S268.4,464.62,268.4,469.13Z"/><rect class="cls-10" x="265.46" y="412.94" width="8.43" height="48.03"/><path d="M337.37,461.27l-.65-4.19a2.17,2.17,0,0,0-1.48-1.82L271,437.14v-24.2h1a5,5,0,0,0,5-4.92v-4.78H256.61V408a5,5,0,0,0,5,4.92h1V437.2l-64,18.06a2.16,2.16,0,0,0-1.47,1.82l-.65,4.19c-.42,2.57.63,4.86,1.81,4.94l9.93.75a2.68,2.68,0,0,0,.8-.07,3.47,3.47,0,0,0,2.36-2.84l.6-3a3.24,3.24,0,0,1,2.22-1.87l48.41-10.07V461H271V449.1l48.63,10.11a3.24,3.24,0,0,1,2.22,1.87l.6,3a3.48,3.48,0,0,0,2.37,2.84,2.65,2.65,0,0,0,.8.07l9.93-.75C336.73,466.13,337.79,463.84,337.37,461.27Z"/><path d="M341.07,474.5a8.26,8.26,0,1,1-8.26-8.16A8.21,8.21,0,0,1,341.07,474.5Z"/><path class="cls-11" d="M338.6,474.5a8.26,8.26,0,1,1-8.26-8.16A8.22,8.22,0,0,1,338.6,474.5Z"/><path class="cls-5" d="M308.31,339s-25.53-9.68-19.57,18l9,41.57a11.21,11.21,0,0,0,14.85,8.07l25.85-9.49a11.56,11.56,0,0,0,7.45-12.72C343.78,371.84,336.12,350.14,308.31,339Z"/><path class="cls-9" d="M304.51,403.24H321.9s17.84-5.6,20.05-8.13V373.47a4.45,4.45,0,0,0-4.47-4.42H291.33l6.53,30.21s1.09,3.69,2.07,4A23.55,23.55,0,0,0,304.51,403.24Z"/><path class="cls-12" d="M255.16,325.65c6.42,4.44,11.52,11.8,15,17.87C265.85,335.61,260.66,328.28,255.16,325.65Z"/><path class="cls-13" d="M170.23,426.4,172.67,454l16.63-.42s1.42-32.87,1-33.49S170.23,426.4,170.23,426.4Z"/><path class="cls-14" d="M194,477.5c-16.19.47-36.11,1.2-56.47,1.59,0,0-9-15,11.35-16.51s19.43-12.95,19.43-12.95c6.29-.53,14.25-.5,24-1.31Z"/><path class="cls-13" d="M149.71,421.74l-14.11,26,15.05,9.43s20.64-28.42,20.64-29.21S149.71,421.74,149.71,421.74Z"/><path class="cls-14" d="M143.57,478.83C128.71,470,110.34,459.26,91.76,448c0,0,.52-18.66,19.68-8.39s24.92-.55,24.92-.55c6,3.12,13.13,7.69,22.34,12.51Z"/><polygon class="cls-15" points="147.43 287.65 150.3 288.15 125.47 235.6 111.33 231.47 111.72 232.35 135.34 285.55 147.43 287.65"/><rect class="cls-16" x="135.33" y="285.55" width="63.47" height="5.21"/><path class="cls-17" d="M230.22,271.67s-4.06,4.39-13.93,4.5-28.06.76-32.45-.88,14.48,8.55,25.66,9.21,23.24,2.8,21.7-3.55S230.22,271.67,230.22,271.67Z"/><path class="cls-13" d="M228.79,279.23s-23.07,1-32.86-2.35-14.65-6.38-17.51-5.68a18.43,18.43,0,0,0-9.69,5.27c-2.13,2.32-3.09,6.36-1.07,6.95,0,.86,1.07,1.09,1.73.69.28.91,1.94.89,2.43,0,1.26.53,1.82-2,3.79-3.24,5-3.25,6.34,1.8,9.8,4s11.1,2.54,16.93,4.44,20,7.64,24.75,7.4Z"/><path class="cls-15" d="M249.28,330.65s-48-2-62.89,1.13c-13.11,2.75-17.44,5-20,31.81-2.37,24.81-4.57,52.79-2.78,69.89,0,0,15.46,4,31.25-2.2l1.51-63.47Z"/><path class="cls-16" d="M255.81,313.91S248.86,328.2,243.68,330c-23.37,8.27-46.79,7.39-60.51,18.47s-22.48,54.61-42.89,79.27c0,0,14.93,15,28.1,16.86,0,0,27.12-64.19,33.37-64.92s96.86,6.58,109-25.66C320.54,328.15,255.81,313.91,255.81,313.91Z"/><path class="cls-18" d="M284.35,219.48s16.51,7,18.55,8.72c3.18,2.63,13,67.29,12,85.38s1.93,42.38-9.25,48.63c0,0-8.84-36.29-56.36-38.1,0,0,6.59-11,3.14-27.58s24.3-45.69,23.57-53.64S284.35,219.48,284.35,219.48Z"/><path class="cls-19" d="M253.9,260.27s-4.28,8.44-16.28,10.85L237.5,281s20.87-9.14,19.69-14.1S253.9,260.27,253.9,260.27Z"/><polygon class="cls-20" points="228.57 275.62 229.23 268.93 238.11 268.93 238.11 280 228.57 280 228.57 275.62"/><path class="cls-19" d="M266.44,224.4l-9.86,8.16,3.4,6s8.84-6.83,10-6.58Z"/><path class="cls-17" d="M260,220.8s6.75,7.44,6.42,15.17c0,0,14.87-7,16.28-17.34L265.9,192.85S244,198,249.79,209,260,220.8,260,220.8Z"/><path class="cls-13" d="M224.08,193.07s11.74,17.39,10,23.31-.87,6.51,3,6c0,0,4.5,9.75,10.75,9.1s14-6.91,15.89-12.94a96.28,96.28,0,0,0,2.64-10.3s5.2-2,3.23-9.15-9.37-23.85-22.64-21-22.58,1.31-23.79,6.8S224.08,193.07,224.08,193.07Z"/><path class="cls-21" d="M288.37,217.13s15.78.68,23.73,21.41c11,28.66,7.17,115.87-4.3,122.18,0,0-9.68-37.6-57.2-39.41,0,0,4.94-11.22,1.49-27.82s26-46.1,25.21-54.05S288.37,217.13,288.37,217.13Z"/><path class="cls-21" d="M257.23,309.76l-4-8.07s-4.37-53.38,7.17-63.58,15.12-19.86,26.54-20.93c11.64-1.1,20.19,18.37,20.19,18.37Z"/><path class="cls-22" d="M269.46,205s5.05,4.16,4.17,7.78c0,0,10.34-7.45,8.91-23.5-1.18-13.43-7.7-21.67-18.78-21.89,0,0-17.54-10.74-32.56.88s-15.56,33.11,0,36.07c0,0-6-10.52-5.48-15.46,0,0,.55,16.34,19.3,13.6,0,0-9.54-7.9-10.2-11.95,0,0,4.14,6.24,14.14,6,4.94-.11,13.82,4.71,11.73,9.75,0,0,2.53-5.26,1.54-8.88S272.53,194.71,269.46,205Z"/><path class="cls-18" d="M272.81,233.79s20.61-15.24,29.76,3.46c7.47,15.27-7,37.48-11.12,43.29a1,1,0,0,1-1.71-.2l-7.56-18.75Z"/><path class="cls-23" d="M233.34,276.55s15.62-4.93,24.34-16.77,18.42-34.7,34.7-29.77-3.79,34.54-3.79,34.54S266.72,292.83,258,297.43s-26.81,1.32-26.81,1.32Z"/><path class="cls-18" d="M227.37,274.74s-1.21,23.22-2.85,25.15c0,0,8,1.82,10.85.5,0,0,3.18-21.92,2-26.2Z"/><polygon class="cls-16" points="137.97 285.55 114.35 232.35 111.33 231.47 135.34 285.55 150.3 288.15 150.06 287.65 137.97 285.55"/><path class="cls-22" d="M233.67,206.29a2.66,2.66,0,0,1,1.1-1.86,3.4,3.4,0,0,1,2.2-.66,3.81,3.81,0,0,1,2.08.79,5.23,5.23,0,0,1,.73.76,4.58,4.58,0,0,1,.47,1,5.79,5.79,0,0,1-1-.15l-.88-.17c-.55-.1-1-.17-1.49-.21A8.61,8.61,0,0,0,233.67,206.29Z"/><path class="cls-22" d="M238.34,210.63c.33,1,.19,2-.33,2.14s-1.21-.51-1.55-1.52-.19-2,.33-2.15S238,209.61,238.34,210.63Z"/><path class="cls-24" d="M239.6,224.23a14.1,14.1,0,0,1,1.68-1l1-.54c.25-.14.52-.24.93-.47s.9-.56,1.66-.94a2.72,2.72,0,0,1,.33,2.21,3,3,0,0,1-1.54,1.86,3.13,3.13,0,0,1-2.32.23A3,3,0,0,1,239.6,224.23Z"/><path class="cls-23" d="M281.35,213.45l-18,14.76,3.86,6.8s17-15.75,18.17-16.45Z"/><path class="cls-17" d="M167.57,282.89a8.42,8.42,0,0,1,.74-3.58,7.76,7.76,0,0,1,2.28-3,15.2,15.2,0,0,1,3.16-1.85,13.14,13.14,0,0,1,3.48-1,41.17,41.17,0,0,0-6,3.66A11.71,11.71,0,0,0,167.57,282.89Z"/><path class="cls-17" d="M169.39,283.57a7.44,7.44,0,0,1,.57-3.14,7.19,7.19,0,0,1,1.9-2.68,12.93,12.93,0,0,1,2.72-1.71,9.54,9.54,0,0,1,3-.91c-.93.51-1.8,1-2.66,1.59a27.09,27.09,0,0,0-2.45,1.79,8.68,8.68,0,0,0-1.85,2.26A16.59,16.59,0,0,0,169.39,283.57Z"/><path class="cls-17" d="M172,283.64a5.24,5.24,0,0,1,.3-2.38,5.6,5.6,0,0,1,1.28-2.09,7.46,7.46,0,0,1,2-1.37,4.6,4.6,0,0,1,2.32-.58,11.39,11.39,0,0,0-1.91,1.24,18.55,18.55,0,0,0-1.69,1.41A11.71,11.71,0,0,0,172,283.64Z"/><path class="cls-17" d="M264.27,205.15a1.53,1.53,0,0,0,1.12.23,1.71,1.71,0,0,0,.9-.62,7.21,7.21,0,0,0,1-2.09,3.63,3.63,0,0,0-.79-4,1.42,1.42,0,0,0-1.68-.24,2.77,2.77,0,0,0-.89,1.82,4.64,4.64,0,0,0,.15,2.25c.11.35.31.72.61.78s.63-.35.83-.69c-.13.36-.27.87-.83,1a1.34,1.34,0,0,1-1.06-.83,4.82,4.82,0,0,1-.48-2.56,4.94,4.94,0,0,1,.27-1.3,2.43,2.43,0,0,1,.86-1.2,2.08,2.08,0,0,1,1.5-.36,2.82,2.82,0,0,1,1.35.6,3.73,3.73,0,0,1,1.29,2.43,5.34,5.34,0,0,1-.39,2.61,6.45,6.45,0,0,1-1.39,2.16,2.06,2.06,0,0,1-1.21.54A1.48,1.48,0,0,1,264.27,205.15Z"/><path class="cls-17" d="M263.63,202.25a1.91,1.91,0,0,1,0-.89.9.9,0,0,1,.75-.7,1.48,1.48,0,0,1,1.61,1.15,2.43,2.43,0,0,1-.35,1.86,1.86,1.86,0,0,1-1.45,1,2.56,2.56,0,0,0,.91-1.28,2.65,2.65,0,0,0,.17-1.42,1,1,0,0,0-.83-.78C264,201.12,263.75,201.7,263.63,202.25Z"/><polygon class="cls-6" points="79.6 293.8 61.71 293.8 37.12 482.66 46.5 482.66 79.6 293.8"/><polygon class="cls-6" points="367.79 293.8 385.68 293.8 410.27 482.66 400.88 482.66 367.79 293.8"/><path class="cls-25" d="M362.59,272.14s5.29-19.26.46-26.13c-3.33-4.75-16.07-4.84-16.85-4.75,0,0,11.12.78,7.94,14.5-2.5,10.77-6.23,35.67-10.43,49.78-5.5,18.47-16.27,16.95-16.27,16.95l-29.24,1.08c-26.38.66-22.65,19.56-22.65,19.56l14.66,70.09c2.54,12.8,11.62,12.64,15,11l.5-.21,44.26-18.73c10.16-4.24,6.81-21.57,4.58-29.46C349,356.47,343.34,337.4,345,333.13,353,312.89,362.59,272.14,362.59,272.14ZM345.85,384.46a11.56,11.56,0,0,1-7.45,12.72l-25.85,9.49a11.21,11.21,0,0,1-14.85-8.07l-9-41.57c-6-27.71,19.57-18,19.57-18C336.12,350.14,343.78,371.84,345.85,384.46Z"/><polygon class="cls-6" points="297.13 293.8 315.03 293.8 339.62 482.66 330.23 482.66 297.13 293.8"/><rect class="cls-26" x="13.46" y="290.19" width="420.46" height="14.55"/><rect class="cls-27" x="335.16" y="290.19" width="98.77" height="14.55"/><circle class="cls-28" cx="400.27" cy="109.6" r="36.87"/><circle class="cls-4" cx="400.27" cy="109.6" r="29.9"/><circle class="cls-29" cx="400.27" cy="109.6" r="3.42"/><path class="cls-29" d="M400.27,112.1H383a2.5,2.5,0,0,1,0-5h16.28l14.54-14.55a2.5,2.5,0,0,1,3.54,3.54L402,111.37A2.55,2.55,0,0,1,400.27,112.1Z"/><rect class="cls-30" x="28.19" y="56.47" width="157.88" height="48.5" rx="7"/><path class="cls-4" d="M172.8,70.47h-100a1.5,1.5,0,0,1,0-3h100a1.5,1.5,0,0,1,0,3Z"/><path class="cls-4" d="M172.8,81.47h-100a1.5,1.5,0,0,1,0-3h100a1.5,1.5,0,0,1,0,3Z"/><path class="cls-4" d="M152.56,92.47H72.81a1.5,1.5,0,0,1,0-3h79.75a1.5,1.5,0,0,1,0,3Z"/><circle class="cls-4" cx="50.75" cy="80.72" r="12.94"/><path class="cls-31" d="M49.35,86.78a1.49,1.49,0,0,1-1-.38l-3.9-3.54a1.5,1.5,0,1,1,2-2.23l2.78,2.53,6.14-6.92a1.5,1.5,0,0,1,2.24,2l-7.14,8a1.5,1.5,0,0,1-1,.5Z"/><rect class="cls-30" x="28.19" y="117.41" width="157.88" height="48.5" rx="7"/><path class="cls-4" d="M172.8,131.41h-100a1.5,1.5,0,0,1,0-3h100a1.5,1.5,0,0,1,0,3Z"/><path class="cls-4" d="M172.8,142.41h-100a1.5,1.5,0,0,1,0-3h100a1.5,1.5,0,0,1,0,3Z"/><path class="cls-4" d="M152.56,153.41H72.81a1.5,1.5,0,0,1,0-3h79.75a1.5,1.5,0,0,1,0,3Z"/><circle class="cls-4" cx="50.75" cy="141.66" r="12.94"/><path class="cls-31" d="M49.35,147.72a1.5,1.5,0,0,1-1-.39l-3.9-3.54a1.5,1.5,0,1,1,2-2.22l2.78,2.52,6.14-6.92a1.5,1.5,0,0,1,2.24,2l-7.14,8a1.55,1.55,0,0,1-1,.51Z"/><path class="cls-32" d="M73.36,258.3l.8,2.84-.27,1.55S63.7,260,60.34,256.39a.3.3,0,0,1,.32-.48C63.33,256.84,70.93,259.33,73.36,258.3Z"/><path class="cls-33" d="M45.94,251.09c4,2.68,15.26,9.83,20.7,9.49l-4.83,2.93s-8.51-2-16.27-12A.3.3,0,0,1,45.94,251.09Z"/><path class="cls-32" d="M68.45,264.89l5.71-.06v-3.29c-2.61-3.43-8.35-1.26-8.35-1.26-12.12,5.24-14.59,14.4-15.1,18a.39.39,0,0,0,.7.28,64.31,64.31,0,0,1,7.94-9.29S64.94,263.3,68.45,264.89Z"/><path class="cls-33" d="M103.29,253.65l.11,0a.25.25,0,0,0,.21-.44c-2.09-1.79-9.26-6.44-21.13.79a5.68,5.68,0,0,0-2.25,2.55l-2.7,6.12,2.08.82.68-.88A24,24,0,0,1,103.29,253.65Z"/><path class="cls-32" d="M76.82,256c-.09-1.39-.19-6.14,2.83-7.92a.4.4,0,0,1,.59.42c-.28,1.38-.74,4.28.06,5.8a2.38,2.38,0,0,1,0,2.05l-3.53,8,.06-7.33A8.86,8.86,0,0,0,76.82,256Z"/><path class="cls-33" d="M51.07,248.17a.29.29,0,0,1,.11-.57c5.59.21,22.59,1.48,25.61,9.21,0,0,2.21,3.74,1.29,6.44H73.43a11.17,11.17,0,0,0-1.58-5.8C70.48,255.51,56,250,51.07,248.17Z"/><path class="cls-32" d="M80.32,265l3-1.23a12.36,12.36,0,0,1,5.39-1.53c2.47.09,7,6.18,7,6.18s2.77,4.05,5.29,5.73a13,13,0,0,0,3.79,1.81.29.29,0,0,0,.36-.37c-1-3-6.92-18.75-21.27-16.82a4.49,4.49,0,0,0-3.55,6.12Z"/><path class="cls-26" d="M86.48,262.39v17.49a10.39,10.39,0,0,1-9.09,10.3,11.2,11.2,0,0,0,1.3.08,10.38,10.38,0,0,0,10.38-10.38V262.39Z"/><path class="cls-34" d="M86.48,279.88V262.39H68.31v17.49a10.38,10.38,0,0,0,9.08,10.3A10.39,10.39,0,0,0,86.48,279.88Z"/></g></g></svg>