<svg xmlns="http://www.w3.org/2000/svg" viewBox="0 0 868.22 706.37"><defs><style>.cls-1{fill:#5248d1;}.cls-2{fill:#e5e9fe;}.cls-3{fill:#29244a;}.cls-4{fill:#f24646;}.cls-5{fill:#f9bd48;}.cls-6{fill:#4eb751;}.cls-7{fill:#6457fe;}.cls-8{fill:#fff;}.cls-9{fill:#d8d8d8;}.cls-10{fill:#ffa792;}.cls-11{fill:#f1f2f2;}.cls-12{fill:#171721;}.cls-13{fill:#808285;}.cls-14{fill:#ffbdab;}.cls-15{fill:#2d292a;}.cls-16{fill:#af1e1e;}.cls-17{fill:#e02424;}.cls-18{fill:none;stroke:#fff;stroke-linecap:round;stroke-miterlimit:10;}.cls-19{fill:#ea9078;}.cls-20{fill:#f7941d;}</style></defs><g id="Layer_2" data-name="Layer 2"><g id="Layer_1-2" data-name="Layer 1"><path class="cls-1" d="M190.44,532.4l-17.1-2.7a76.34,76.34,0,0,0-3.72-9l10.18-14a11.73,11.73,0,0,0-1.19-15.2l-15.2-15.2a11.73,11.73,0,0,0-15.2-1.19l-14,10.18a76.39,76.39,0,0,0-9-3.73l-2.7-17.1a11.73,11.73,0,0,0-11.59-9.9H89.43a11.73,11.73,0,0,0-11.59,9.9l-2.7,17.1a78.23,78.23,0,0,0-9,3.72l-14-10.17a11.73,11.73,0,0,0-15.2,1.19l-15.2,15.2a11.73,11.73,0,0,0-1.19,15.2l10.18,14a74.68,74.68,0,0,0-3.72,9L9.9,532.4A11.74,11.74,0,0,0,0,544v21.5a11.74,11.74,0,0,0,9.9,11.59L27,579.78a74.68,74.68,0,0,0,3.72,9l-10.18,14A11.73,11.73,0,0,0,21.74,618l15.2,15.2a11.75,11.75,0,0,0,15.2,1.19l14-10.18a77.35,77.35,0,0,0,9,3.72l2.7,17.1a11.74,11.74,0,0,0,11.59,9.91h21.49A11.74,11.74,0,0,0,122.51,645l2.7-17.1a78.08,78.08,0,0,0,9-3.72l14,10.18a11.75,11.75,0,0,0,15.2-1.19l15.2-15.2a11.73,11.73,0,0,0,1.19-15.2l-10.18-14a76.34,76.34,0,0,0,3.72-9l17.1-2.7a11.74,11.74,0,0,0,9.91-11.59V544A11.74,11.74,0,0,0,190.44,532.4Zm-90.27,59.49a37.15,37.15,0,1,1,37.15-37.15A37.14,37.14,0,0,1,100.17,591.89Z"/><path class="cls-1" d="M290.1,624.91l-7.16-5.06a37,37,0,0,0,.33-4.92l7.76-4.07a5.93,5.93,0,0,0,2.87-7.16l-3.49-10.31a6,6,0,0,0-6.63-3.95l-8.63,1.48a39.11,39.11,0,0,0-3.25-3.7l2.61-8.37a5.93,5.93,0,0,0-3-7.09l-9.75-4.82a5.94,5.94,0,0,0-7.48,1.89L249.18,576a37,37,0,0,0-4.92-.33l-4.07-7.76A5.93,5.93,0,0,0,233,565l-10.31,3.49a5.94,5.94,0,0,0-3.95,6.63l1.48,8.63a39.11,39.11,0,0,0-3.7,3.25l-8.37-2.61a5.93,5.93,0,0,0-7.09,3l-4.82,9.75a5.93,5.93,0,0,0,1.89,7.48l7.16,5.06a38.74,38.74,0,0,0-.34,4.92l-7.75,4.07a5.93,5.93,0,0,0-2.87,7.16l3.49,10.31a6,6,0,0,0,6.63,3.95l8.63-1.48a39.11,39.11,0,0,0,3.25,3.7l-2.61,8.37a5.93,5.93,0,0,0,3,7.09l9.75,4.82a5.93,5.93,0,0,0,7.48-1.89l5.06-7.16A38.74,38.74,0,0,0,244,654l4.07,7.75a5.93,5.93,0,0,0,7.16,2.87l10.31-3.49a6,6,0,0,0,3.95-6.63L268,645.82a39.11,39.11,0,0,0,3.7-3.25l8.37,2.61a5.93,5.93,0,0,0,7.09-3l4.82-9.75A5.94,5.94,0,0,0,290.1,624.91Zm-54.3,6.74A18.8,18.8,0,1,1,261,623.13,18.8,18.8,0,0,1,235.8,631.65Z"/><path class="cls-1" d="M677.78,160.47l17.1,2.7a78.08,78.08,0,0,0,3.72,9l-10.18,14a11.73,11.73,0,0,0,1.2,15.2l15.2,15.2a11.73,11.73,0,0,0,15.2,1.19l14-10.18a74.68,74.68,0,0,0,9,3.72l2.7,17.11a11.74,11.74,0,0,0,11.59,9.9h21.5a11.74,11.74,0,0,0,11.59-9.9l2.7-17.11a74.68,74.68,0,0,0,9-3.72l14,10.18a11.72,11.72,0,0,0,15.19-1.19l15.2-15.2a11.73,11.73,0,0,0,1.2-15.2l-10.18-14a78.08,78.08,0,0,0,3.72-9l17.1-2.7a11.74,11.74,0,0,0,9.9-11.59v-21.5a11.74,11.74,0,0,0-9.9-11.59l-17.1-2.7a78.08,78.08,0,0,0-3.72-9l10.18-14a11.74,11.74,0,0,0-1.2-15.2l-15.2-15.2a11.73,11.73,0,0,0-15.19-1.19l-14,10.18a78.08,78.08,0,0,0-9-3.72l-2.7-17.1A11.74,11.74,0,0,0,778.8,38H757.3a11.74,11.74,0,0,0-11.59,9.91L743,65a78.08,78.08,0,0,0-9,3.72L720,58.5a11.75,11.75,0,0,0-15.2,1.19l-15.2,15.2a11.74,11.74,0,0,0-1.2,15.2l10.18,14a78.08,78.08,0,0,0-3.72,9l-17.1,2.7a11.74,11.74,0,0,0-9.9,11.59v21.5A11.74,11.74,0,0,0,677.78,160.47ZM768.05,101a37.15,37.15,0,1,1-37.15,37.15A37.15,37.15,0,0,1,768.05,101Z"/><path class="cls-1" d="M578.13,68,585.28,73a38.72,38.72,0,0,0-.33,4.92L577.19,82a5.94,5.94,0,0,0-2.87,7.16l3.49,10.31a6,6,0,0,0,6.63,4l8.64-1.48a39,39,0,0,0,3.24,3.7L593.71,114a5.93,5.93,0,0,0,3,7.09l9.76,4.82A5.94,5.94,0,0,0,614,124l5.06-7.16a36.93,36.93,0,0,0,4.91.33L628,125a5.94,5.94,0,0,0,7.17,2.87l10.3-3.49a5.93,5.93,0,0,0,4-6.63L648,109.09a38,38,0,0,0,3.71-3.25l8.36,2.61a6,6,0,0,0,7.1-3L672,95.66a5.94,5.94,0,0,0-1.9-7.48l-7.15-5.06a38.72,38.72,0,0,0,.33-4.92L671,74.13A5.94,5.94,0,0,0,673.87,67l-3.49-10.31a5.94,5.94,0,0,0-6.63-3.95l-8.63,1.48a40.58,40.58,0,0,0-3.25-3.7l2.61-8.37a5.93,5.93,0,0,0-3-7.09l-9.75-4.82a5.92,5.92,0,0,0-7.48,1.89l-5.07,7.15a40.63,40.63,0,0,0-4.91-.33l-4.07-7.75A5.94,5.94,0,0,0,613,28.3l-10.3,3.49a5.93,5.93,0,0,0-4,6.63l1.48,8.63a39.22,39.22,0,0,0-3.71,3.25l-8.36-2.61a6,6,0,0,0-7.1,3l-4.82,9.75A5.94,5.94,0,0,0,578.13,68Zm54.3-6.75a18.8,18.8,0,1,1-25.19,8.53A18.81,18.81,0,0,1,632.43,61.21Z"/><rect class="cls-2" x="84.67" y="123.12" width="699.56" height="448.81" rx="29.03"/><path class="cls-3" d="M111.08,124.09H757.82a26.41,26.41,0,0,1,26.41,26.41v24.75a0,0,0,0,1,0,0H84.67a0,0,0,0,1,0,0V150.5A26.41,26.41,0,0,1,111.08,124.09Z"/><circle class="cls-4" cx="126.5" cy="151.14" r="8.53"/><circle class="cls-5" cx="150.31" cy="151.14" r="8.53"/><circle class="cls-6" cx="174.13" cy="151.14" r="8.53"/><path class="cls-3" d="M324.56,332.52h-16V301.43a27.93,27.93,0,0,0-55.85,0v31.09h-16V301.43a43.89,43.89,0,0,1,87.77,0Z"/><rect class="cls-7" x="216.59" y="323.96" width="130.6" height="130.6" rx="4.46"/><path class="cls-8" d="M294.21,377.79a12.33,12.33,0,1,0-17.64,11.08v14.89a5.32,5.32,0,0,0,10.64,0V388.87A12.29,12.29,0,0,0,294.21,377.79Z"/><rect class="cls-8" x="379.52" y="328.64" width="300.08" height="7.44" rx="3.72"/><rect class="cls-1" x="435.58" y="272.58" width="7.44" height="119.57" rx="1.72" transform="translate(771.67 -106.94) rotate(90)"/><rect class="cls-8" x="379.52" y="358.26" width="300.08" height="7.44" rx="3.72"/><rect class="cls-1" x="480.17" y="257.61" width="7.44" height="208.75" rx="1.72" transform="translate(845.88 -121.91) rotate(90)"/><rect class="cls-8" x="379.52" y="387.88" width="300.08" height="7.44" rx="3.72"/><rect class="cls-1" x="460.09" y="307.31" width="7.44" height="168.59" rx="1.72" transform="translate(855.42 -72.21) rotate(90)"/><rect class="cls-8" x="379.52" y="417.5" width="300.08" height="7.44" rx="3.72"/><rect class="cls-1" x="500.6" y="296.42" width="7.44" height="249.62" rx="1.72" transform="translate(925.55 -83.1) rotate(90)"/><rect class="cls-8" x="379.52" y="447.12" width="300.08" height="7.44" rx="3.72"/><rect class="cls-1" x="417.94" y="408.7" width="7.44" height="84.3" rx="1.45" transform="translate(872.51 29.18) rotate(90)"/><path class="cls-9" d="M631.34,115h57.82a1,1,0,0,1,1,1v6.84H630.09v-6.58A1.25,1.25,0,0,1,631.34,115Z"/><rect class="cls-10" x="640.73" y="99.27" width="36.77" height="33.87"/><path d="M673.32,331.84a30.58,30.58,0,0,0,.91-3.6,29.41,29.41,0,1,0-57.84-10.65,29.07,29.07,0,0,0-.44,3.68l-18.7,158.58.18,0a18.82,18.82,0,0,0,36.69,6.75l.18,0Z"/><path class="cls-3" d="M558.33,682.84s-1.8,7.58-1.26,9,32.74,24.54,51.87,9.37l5-6.75Z"/><path d="M609.07,636.72q-3.5,10.41-7.62,21.55l-24.24-.76s4.56-9,5.15-23.54c0-.08,0-.16,0-.24.08-2.17.07-4.48,0-6.89a81.1,81.1,0,0,0-4.11-21.54c-10.07-30.24-16.13-66.2,19-125.45l37,6.83s9.11,45-23,143.38C610.56,632.26,609.83,634.48,609.07,636.72Z"/><path class="cls-11" d="M609.07,636.72q-3.5,10.41-7.62,21.55l-24.24-.76s4.61-9.15,5.17-23.78C582.38,633.73,600.43,633.57,609.07,636.72Z"/><path class="cls-12" d="M613.93,694.49s-21.08,8.93-55.6-11.65c0,0,9.51-24.34,20-29,0,0,3,.81,7.08,1.45a42.33,42.33,0,0,0,12.66.38,12.58,12.58,0,0,0,4-1.27C609.29,650.48,616.78,677.78,613.93,694.49Z"/><path class="cls-13" d="M604.11,673.6a6,6,0,0,1-.57.79c-1.41,1.75-5.6,5.59-13.84,3.56-8-2-10.94-6.4-11.9-8.39a6.68,6.68,0,0,1-.41-1l.76-1.23,2-3.25,1.32-2.19,1.26-2,1.34-2.2,1.42-2.35a42.33,42.33,0,0,0,12.66.38l1.52,4.53.87,2.62.92,2.77.88,2.62,1.26,3.83Z"/><path class="cls-14" d="M609.07,636.72S595,633.2,582.36,634c0-.08,0-.16,0-.24.08-2.17.07-4.48,0-6.89,6.45.46,20.28,1.6,28.95,3.22C610.56,632.26,609.83,634.48,609.07,636.72Z"/><path class="cls-3" d="M600.51,662.8a67.78,67.78,0,0,0-17.81-3l1.34-2.2a68,68,0,0,1,15.6,2.56Z"/><path class="cls-3" d="M602.31,668.19a94.84,94.84,0,0,0-22.19-4.13l1.32-2.19a96.67,96.67,0,0,1,20,3.7Z"/><path class="cls-3" d="M604.11,673.6a6,6,0,0,1-.57.79,94.88,94.88,0,0,0-25.74-4.83,6.68,6.68,0,0,1-.41-1l.76-1.23A95.61,95.61,0,0,1,603.57,672Z"/><path d="M651.9,331.58a32.1,32.1,0,0,1-.9-3.6,29.41,29.41,0,0,1,57.84-10.65,29.07,29.07,0,0,1,.44,3.68L728,479.59l-.19,0a18.81,18.81,0,0,1-36.68,6.75l-.18,0Z"/><path class="cls-3" d="M766.9,682.58s1.8,7.58,1.25,9-32.73,24.54-51.86,9.37l-5-6.74Z"/><path d="M716.15,636.46q3.5,10.41,7.63,21.55l24.24-.76s-4.56-9-5.16-23.53a2,2,0,0,0,0-.25c-.09-2.17-.08-4.48,0-6.89A81.4,81.4,0,0,1,747,605.05c10.06-30.25,16.13-66.21-19-125.46l-37.05,6.83s-9.11,45,23,143.38Q715,633.1,716.15,636.46Z"/><path class="cls-11" d="M716.15,636.46q3.5,10.41,7.63,21.55l24.24-.76s-4.61-9.15-5.17-23.78C742.85,633.47,724.8,633.31,716.15,636.46Z"/><path class="cls-12" d="M711.3,694.23s21.07,8.93,55.6-11.65c0,0-9.51-24.34-20.06-29,0,0-3,.82-7.07,1.46a42.67,42.67,0,0,1-12.66.37,13,13,0,0,1-4-1.26C715.93,650.22,708.45,677.52,711.3,694.23Z"/><path class="cls-13" d="M721.12,673.35a6.92,6.92,0,0,0,.57.79c1.41,1.74,5.6,5.58,13.84,3.55,8-2,10.94-6.4,11.9-8.39a6.88,6.88,0,0,0,.41-1l-.76-1.24-2-3.25-1.33-2.18-1.25-2.06-1.34-2.2L739.77,655a42.67,42.67,0,0,1-12.66.37l-1.52,4.53-.87,2.62-.92,2.77-.88,2.63-1.27,3.82Z"/><path class="cls-14" d="M716.15,636.46s14.11-3.52,26.71-2.74a2,2,0,0,0,0-.25c-.09-2.17-.08-4.48,0-6.89-6.45.46-20.27,1.6-28.94,3.22Q715,633.1,716.15,636.46Z"/><path class="cls-3" d="M724.72,662.54a67.78,67.78,0,0,1,17.81-3l-1.34-2.2a69.13,69.13,0,0,0-15.6,2.56Z"/><path class="cls-3" d="M722.92,667.94a95.45,95.45,0,0,1,22.19-4.14l-1.33-2.18a95.94,95.94,0,0,0-20,3.69Z"/><path class="cls-3" d="M721.12,673.35a6.92,6.92,0,0,0,.57.79,94.57,94.57,0,0,1,25.74-4.84,6.88,6.88,0,0,0,.41-1l-.76-1.24a95.74,95.74,0,0,0-25.43,4.71Z"/><rect class="cls-14" x="616.72" y="59.79" width="86.25" height="22.84" rx="11.42"/><path class="cls-14" d="M628.92,39.1h60.39a0,0,0,0,1,0,0V86a19.06,19.06,0,0,1-19.06,19.06H648A19.06,19.06,0,0,1,628.92,86V39.1A0,0,0,0,1,628.92,39.1Z"/><rect class="cls-3" x="685.35" y="57.33" width="3.29" height="3.29"/><rect class="cls-3" x="629.6" y="57.33" width="3.29" height="3.29"/><path d="M628.92,83.22S618.28,65.61,620.6,45.1c0,0-7,1.16-6.58-6s3.87-6.59,3.87-6.59-4.84-3.67-1.74-8.32a6.5,6.5,0,0,1,10.45-1s9.1-21.67,36.19-23,39.1,4.26,31.94,23.42c0,0,13.74-.77,10.45,12.19s-11,12.59-11,12.59,2.71,14.51-4.84,31.35c0,0,1.74-31.16-13.74-32.71s-24,1.74-31.55-3.68C644,43.35,629.5,44.9,628.92,83.22Z"/><path d="M748.93,153.35s-38,146.17-40.09,164c0,0-59.27-16.62-92.82,1.7,0,0-32.51-110.71-34.32-124.13s6.19-44.06,20.9-59A171,171,0,0,1,631,127.82c1.57-.32,3.2-.63,4.87-.92l1.15-.19,1.17-.19c1.07-.18,2.16-.35,3.26-.5l3.36-.46h0c1.7-.21,3.44-.41,5.21-.58l2.27-.2,6.79,11.28,7.38-11.9q3.62,0,7.32.16c1.59.07,3.2.17,4.82.29l2.19.19.55,0,1.6.17.84.09,2.14.26,1.53.2,1,.15C709,128.74,730.32,136.68,748.93,153.35Z"/><path class="cls-15" d="M687.49,136.45l15.18,58.45L668,235.09S679.67,142.06,687.49,136.45Z"/><path class="cls-15" d="M704.8,151.93,679.49,170.6s-3-35.86,6.47-45.23l1.53.2,1,.15Z"/><path d="M602.6,135.87s-47.22.58-58.45,44.71.75,88.21,56.5,85.33Z"/><path class="cls-15" d="M636,140.77l-18.52,51.58,36.88,43.49S640.67,144.46,636,140.77Z"/><path class="cls-15" d="M641.77,170.6l-25.93-13.83,15-29.18c1.55-.42,3.16-.83,4.81-1.22l2.29-.53Z"/><path class="cls-8" d="M687.49,125.57l-25.8,145.2C648,227.2,636.11,130.94,635.9,126.9l1.15-.19,1.17-.19c1.07-.18,2.16-.35,3.26-.5l3.36-.46h0c1.7-.22,3.44-.41,5.21-.58l2.26-.22v0l6.79,11.28,7.38-11.9h0c.75,0,1.5,0,2.25,0q.84,0,1.68,0l1.68,0,1.7.07c1.59.06,3.2.16,4.82.29l2.19.19.55,0,1.6.17.84.09,2.14.26Z"/><path class="cls-14" d="M602.6,203.84s-13.16-18.49-19.87-19.39-16.26,4.77-16.13,6.19.26,5.16,1.42,5.55c0,0-6.84,1.4-7.74,4.77s1.29,8.26,3.35,8.39c0,0-4.9,1.29-3,6.26s6.06,5.49,10.19,3.42,9.25-3.93,11.53.3C582.39,219.33,602.6,214.2,602.6,203.84Z"/><polygon class="cls-16" points="676.54 245.48 655.07 245.48 645.86 233.02 655.49 141.48 662.64 141.48 676.54 245.48"/><path class="cls-17" d="M656.4,144.45l-10.54-15.58h26.51l-10.54,15.58A3.28,3.28,0,0,1,656.4,144.45Z"/><path class="cls-11" d="M631.21,115.13l23.93,3.59-4,27.21-21.09-18.38V116.1A1,1,0,0,1,631.21,115.13Z"/><path class="cls-11" d="M664.34,119l3.16,26.25L690.16,126V115.89a.8.8,0,0,0-.92-.78Z"/><path d="M748.93,153.35s80.42,114-38.18,134.88C710.75,288.23,743.9,161.34,748.93,153.35Z"/><path d="M577.44,227.29S599.5,174,681.18,215.61l.78,13.55s-28.07,6.58-45.1,24.39S572.79,276.9,577.44,227.29Z"/><path class="cls-14" d="M681.18,215.61s25.44,3.12,28.21,21L682,229.16Z"/><path d="M631.76,257.46s13.68,27.38,79,30.77c0,0,25-32.17,11.34-42.75S695.25,227,682,229.16C682,229.16,658.53,231.49,631.76,257.46Z"/><path class="cls-18" d="M632.08,258s14.46,26.6,72.72,30.24"/><path class="cls-18" d="M602.6,266.32a44.71,44.71,0,0,0,35.28-13.81C653.7,236.19,682,229.16,682,229.16"/><path class="cls-18" d="M709.38,236.57s8.07,4.78,12.71,8.91"/><path class="cls-18" d="M584.19,217.15s26-38.31,97-1.54"/><path class="cls-19" d="M568,196.19S586,185,591.7,204.51C591.7,204.51,585.89,189.74,568,196.19Z"/><path class="cls-19" d="M563.3,209.29s12.46-5.81,17.75-4.78,6.78,6.71,6.78,6.71-2.91-5.16-8-5.22S563.3,209.29,563.3,209.29Z"/><rect class="cls-15" x="704.8" y="184.35" width="27.09" height="7.26"/><circle class="cls-20" cx="642.86" cy="231.16" r="3.23"/><circle class="cls-20" cx="652.54" cy="229.16" r="3.23"/><circle class="cls-20" cx="645" cy="255.29" r="3.23"/><circle class="cls-20" cx="661.69" cy="226.97" r="3.23"/><path class="cls-3" d="M632.89,55.33h24.27a0,0,0,0,1,0,0V65.55a7.39,7.39,0,0,1-7.39,7.39h-9.49a7.39,7.39,0,0,1-7.39-7.39V55.33a0,0,0,0,1,0,0Z"/><path d="M655.15,57.32v8.23A5.39,5.39,0,0,1,653,69.83a5.52,5.52,0,0,1-3.27,1.11h-9.48a5.39,5.39,0,0,1-5.39-5.39V57.32Z"/><polygon class="cls-8" points="649.08 70.94 643.3 70.94 636.87 57.32 642.65 57.32 649.08 70.94"/><path class="cls-8" d="M653,69.83a5.17,5.17,0,0,1-2,.94l-6.36-13.45h2.41Z"/><path class="cls-3" d="M661.08,55.33h24.27a0,0,0,0,1,0,0V65.55A7.39,7.39,0,0,1,678,72.94h-9.49a7.39,7.39,0,0,1-7.39-7.39V55.33A0,0,0,0,1,661.08,55.33Z"/><path d="M683.35,57.32v8.23a5.39,5.39,0,0,1-2.12,4.28A5.52,5.52,0,0,1,678,70.94h-9.48a5.39,5.39,0,0,1-5.39-5.39V57.32Z"/><polygon class="cls-8" points="677.27 70.94 671.5 70.94 665.07 57.32 670.85 57.32 677.27 70.94"/><path class="cls-8" d="M681.23,69.83a5.17,5.17,0,0,1-2,.94l-6.36-13.45h2.41Z"/><path class="cls-3" d="M661.89,60.55l-.73-.19a8.06,8.06,0,0,0-4.08,0l-.74.19V57.79h5.55Z"/></g></g></svg>