<svg xmlns="http://www.w3.org/2000/svg" viewBox="0 0 469.62 506.56"><defs><style>.cls-1{fill:#f5f5f5;}.cls-2{fill:#121e21;}.cls-3{fill:#ffcdc2;}.cls-4{fill:#8c858c;}.cls-5{fill:#22393d;}.cls-6{fill:#f84d8a;}.cls-7{fill:#e0a4ab;}.cls-8{fill:#414042;}.cls-9{fill:#f75291;}.cls-10{fill:#ef5ea0;}.cls-11{fill:#c98f98;}.cls-12{fill:#df307e;}.cls-13{fill:#aa9d9f;}.cls-14{fill:#fba6c4;}.cls-15{fill:#e96ea4;}.cls-16{fill:#c6c6c6;}.cls-17{fill:#d35937;}.cls-18{fill:#e2cc9a;}.cls-19{fill:#ee8460;}.cls-20{fill:#7289f7;}.cls-21{fill:#4358eb;}.cls-22{fill:#243bb2;}.cls-23{fill:#6fce5b;}.cls-24{fill:#449935;}.cls-25{fill:#347227;}.cls-26{fill:#fb96ba;}.cls-27{fill:#e7669f;}.cls-28{fill:#ff92bf;}.cls-29{fill:#f3afcd;}.cls-30{fill:#fdcadc;}.cls-31{fill:#f7b9d7;}.cls-32{fill:#fdc0d6;}.cls-33{fill:#fcbed4;}.cls-34{opacity:0.78;}.cls-35{fill:#ececec;}.cls-36{opacity:0.8;}.cls-37{fill:#dadada;}.cls-38{fill:#cdcdcd;}.cls-39{fill:#fff;}</style></defs><g id="Layer_2" data-name="Layer 2"><g id="Layer_1-2" data-name="Layer 1"><path class="cls-1" d="M237.58,416c-128.15,0-232,20.27-232,45.27s103.89,45.28,232,45.28,232-20.27,232-45.28S365.74,416,237.58,416"/><polygon class="cls-2" points="149.28 261.43 152.96 282.9 173.85 283.87 198.61 281.16 200.93 273.62 198.8 260.85 175.78 263.75 154.12 262.01 149.28 261.43"/><polygon class="cls-3" points="187.48 478.85 201.22 480.33 200.44 471.4 187.19 471.79 187.48 478.85"/><path class="cls-4" d="M197.79,481.22c7.08-.35,25.87.81,38.13,3.62,10.71,2.46,19.85-6,21.64-11.67,6.41-20.21-15.88-10.31-27.49-12.33-7.18-1.26-8.77-.8-8.77-.8l-20.86,8.65Z"/><path class="cls-5" d="M130.52,397.71s-8.31,2.08-32.57,7c-4.37.88-8.75,1.81-11.93,4.93-4.65,4.58-7.62,12.75,3.87,25.9,0,0,5.23,10,58.23,30.11,0,0,26.82,14.58,38.94,14.7l1.94-5.67,2.58,4.9,81.5-38.17s21.51-11.3,8.49-30.31A16.76,16.76,0,0,0,271,404.17c-5.78-1.16-16.16-2.14-34.63-6.46Z"/><path class="cls-6" d="M136.89,288.49s-9.78,2.81-11.61,10.06c-.45,2.48-11.85,36.21-14.68,72.23-.06.73,0,1.46-.07,2.18-.07,1.88,1,9,18.25,19.91l110,1.06a44.85,44.85,0,0,0,10-10.16,33.53,33.53,0,0,0,5.52-25.6s-12.85-64.15-23-68.5-15.38-4.06-15.38-4.06Z"/><path class="cls-7" d="M136.18,288.6s13.1-4.25,27.67-8.8c0,0-1.48-2.83-3.61-7.35l32.11-.38s-1.93,3.41-1.22,6.64c0,0,9.6,3.8,26.56,7.09,0,0-6.12,12.57-28.63,16.83-18.64,3.53-35.87-2.07-41.23-4.09a15.91,15.91,0,0,1-3.18-1.63C142.29,295.32,139.07,292,136.18,288.6Z"/><path class="cls-3" d="M154.49,266.91a31,31,0,0,0,20.83,14.25,12.94,12.94,0,0,0,9.3-1.76c4.38-2.75,11.14-7.93,15-15.59,6.06-12-5.42-26.69-5.42-26.69L176.15,229l-12.63,5.55-6.84,8-3.22,15.86Z"/><ellipse class="cls-8" cx="184.57" cy="253.07" rx="1.64" ry="2.04" transform="translate(-47.77 43) rotate(-11.78)"/><ellipse class="cls-8" cx="165.31" cy="255.71" rx="1.78" ry="2.22" transform="translate(-26.08 18.89) rotate(-6.06)"/><path class="cls-8" d="M184.15,251.32a3.13,3.13,0,0,1,1.25-.39,4.5,4.5,0,0,1,1.28.07,1.4,1.4,0,0,1-1.19.83A1.54,1.54,0,0,1,184.15,251.32Z"/><path class="cls-8" d="M165.09,253.64a1.63,1.63,0,0,1-1.15,1,1.5,1.5,0,0,1-1.47-.33,4.76,4.76,0,0,1,1.25-.54A3.5,3.5,0,0,1,165.09,253.64Z"/><path class="cls-8" d="M139,234.54s3.49-30.95,29.66-24.89a21.7,21.7,0,0,1,22.64-1.22c12.47,6.57,17.73,15.28,21,33.46l1.49,22.69a65.8,65.8,0,0,1-3.06,25c-2.84,8.57-7.93,17.82-17.07,22.05a.25.25,0,0,1-.32-.34c1.27-2.42,5.19-12.21,4.57-39.69,0-1.32,0-2.65,0-4,.18-4.93.4-18.17-2.15-23.67a3.45,3.45,0,0,0-2.13-1.82c-3.84-1.17-15.62-5.18-19.59-11.25,0,0,.11,5.44-14.51,11.89a4.31,4.31,0,0,0-2.18,2.07c-1.24,2.53-3.06,8.62-2.27,21.91a59.59,59.59,0,0,0,.75,6.53c1.39,8.29,5.7,31,12.19,39.17a.36.36,0,0,1-.22.58c-2.81.5-15,1.3-23.36-19.79a66.13,66.13,0,0,1-4.16-16.51C138.92,266.07,136.59,243.47,139,234.54Z"/><path class="cls-8" d="M160.46,250.31a2.74,2.74,0,0,1,.35-2.24,3.34,3.34,0,0,1,4.31-1.2,3.08,3.08,0,0,1,.9.69,3.2,3.2,0,0,1,.58,1,6.85,6.85,0,0,1-1.06.23c-.32.09-.6.09-.85.16-.51.08-.87.21-1.23.29s-.73.19-1.2.37S161.22,250,160.46,250.31Z"/><path class="cls-8" d="M181.18,245.64a2.85,2.85,0,0,1,.84-2.11,3.72,3.72,0,0,1,4.34-.68,3.05,3.05,0,0,1,1.49,1.68,6.81,6.81,0,0,1-1.08.23c-.32.09-.6.08-.87.16-.53.06-1,.18-1.4.22l-1.39.21Z"/><path class="cls-9" d="M172.39,271.86s6.2,1.19,10.07-2.19"/><path class="cls-10" d="M172.39,271.86a13.29,13.29,0,0,1,2.64-1.21,16.94,16.94,0,0,1,2.33-.59,16.67,16.67,0,0,1,2.29-.28c.81,0,1.64-.12,2.81-.11a4.42,4.42,0,0,1-1.68,2.7A6.39,6.39,0,0,1,178,273.6a6.87,6.87,0,0,1-3-.13A5.21,5.21,0,0,1,172.39,271.86Z"/><path class="cls-7" d="M174,258.38a9.55,9.55,0,0,1,.42,1.79c.08.55.13,1.08.18,1.58a8.69,8.69,0,0,0,.22,1.31,1.91,1.91,0,0,0,.92,1.16,1.56,1.56,0,0,1-1,.21,1.49,1.49,0,0,1-.56-.19,1.52,1.52,0,0,1-.48-.35,3.29,3.29,0,0,1-.86-2,4.82,4.82,0,0,1,.21-1.9A4,4,0,0,1,174,258.38Z"/><path class="cls-11" d="M165,288.44c-.07-1.68,0-3.08-.1-4.45a12.65,12.65,0,0,0-.31-2,19,19,0,0,0-.69-2.17,4,4,0,0,1,2,1.59,5.17,5.17,0,0,1,.81,2.46,6.17,6.17,0,0,1-.34,2.5A5,5,0,0,1,165,288.44Z"/><path class="cls-11" d="M193.54,286.2a4.63,4.63,0,0,1-1.67-1.39,6.32,6.32,0,0,1-1-1.88,5.07,5.07,0,0,1,.3-4.23c.35.69.54,1.3.79,1.9s.42,1.17.62,1.76.38,1.18.55,1.81A13.68,13.68,0,0,1,193.54,286.2Z"/><path class="cls-3" d="M178.2,453s-13.52,7.4-17.87,8.56c0,0-1.25,7.85,4.94,17.53l22.38-7.25Z"/><path class="cls-4" d="M143.08,466a91.5,91.5,0,0,0,26.59-9.2s4.68,13.58,8.55,18.48c0,0-17.57,8.3-31.84,13.23-13.78,4.76-24.12,7.16-37.79-2.58-11.41-8.13,0-18.63,4.69-20.93C121.78,460.81,131.27,468.06,143.08,466Z"/><path class="cls-6" d="M196.16,245.13l4.65-5a1.53,1.53,0,0,0,0-2.09l-1.26-1.41a1.54,1.54,0,0,0-2.31,0l-4.61,5.19S195.51,242.64,196.16,245.13Z"/><path class="cls-6" d="M159.17,242.89l-6.31-3.09a1.26,1.26,0,0,0-1.74.7l-.77,2.06a1.26,1.26,0,0,0,.63,1.57l5.52,2.72S157.28,244,159.17,242.89Z"/><path class="cls-2" d="M119.65,413.53c1,1,53.95,27,53.95,27l76.71-25.37Z"/><path class="cls-12" d="M221.74,325s-.56,5.91,2.64,16c3.48,11-10.52,26.48-10.52,26.48l22.72-1.86c1.72-1.06-11.67-42.62-11.81-54.33Z"/><path class="cls-12" d="M144.39,325s1.06,5.41-2.14,15.52c-3.48,11,7.93,26.42,7.93,26.42l-20.63-1.3c-1.72-1.06,11.66-42.62,11.8-54.33Z"/><path class="cls-13" d="M236.56,418.74l-104.43,1.84a2.83,2.83,0,0,1-2.88-2.72l-2.1-53.73a2.84,2.84,0,0,1,2.78-2.94l105-1.83a2.82,2.82,0,0,1,2.88,2.74l1.58,53.73A2.83,2.83,0,0,1,236.56,418.74Z"/><path class="cls-14" d="M46.35,91.64h-.3a10,10,0,0,1,.29-20.07h.3a10,10,0,0,1-.29,20.08m-2.21-37.2A3.19,3.19,0,0,0,41,57l-.86,4.6a20.11,20.11,0,0,0-2.46.93L34,59.7a3.19,3.19,0,0,0-4.12.2l-4.23,4a3.18,3.18,0,0,0-.44,4.1l2.64,3.86a20,20,0,0,0-1.08,2.4l-4.64.59a3.18,3.18,0,0,0-2.77,3.06l-.17,5.81a3.19,3.19,0,0,0,2.59,3.21l4.6.86a20.75,20.75,0,0,0,.93,2.46l-2.86,3.7a3.17,3.17,0,0,0,.2,4.12l4,4.22a3.16,3.16,0,0,0,4.09.45l3.87-2.64a19.9,19.9,0,0,0,2.4,1.07l.59,4.65a3.17,3.17,0,0,0,3,2.76l5.81.17h.1a3.17,3.17,0,0,0,3.11-2.59l.87-4.6a21.43,21.43,0,0,0,2.46-.93l3.7,2.86a3.17,3.17,0,0,0,4.11-.2l4.23-4a3.17,3.17,0,0,0,.44-4.1l-2.64-3.86a20,20,0,0,0,1.08-2.4l4.64-.59a3.18,3.18,0,0,0,2.77-3.06l.17-5.8a3.15,3.15,0,0,0-2.58-3.21l-4.6-.87A19.19,19.19,0,0,0,65.37,73l2.87-3.7A3.18,3.18,0,0,0,68,65.13l-4-4.22a3.18,3.18,0,0,0-4.1-.45L56.09,63.1A20.63,20.63,0,0,0,53.69,62l-.6-4.65A3.17,3.17,0,0,0,50,54.62l-5.81-.17h-.09"/><path class="cls-15" d="M73,140.23a5.15,5.15,0,0,1-.3-10.3H73a5.15,5.15,0,0,1,.29,10.3H73m.78-19.13h-.09l-3,.17a1.63,1.63,0,0,0-1.53,1.46l-.24,2.39a12.31,12.31,0,0,0-1.21.59l-2-1.3a1.66,1.66,0,0,0-.88-.25,1.61,1.61,0,0,0-1.22.54l-2,2.23a1.62,1.62,0,0,0-.05,2.12l1.53,1.85a9.72,9.72,0,0,0-.45,1.28l-2.35.51A1.64,1.64,0,0,0,59,134.39l.18,3a1.62,1.62,0,0,0,1.46,1.52l2.39.24a12.48,12.48,0,0,0,.59,1.22l-1.3,2a1.64,1.64,0,0,0,.29,2.1l2.23,2a1.66,1.66,0,0,0,1.08.41,1.64,1.64,0,0,0,1-.37L68.84,145a11.36,11.36,0,0,0,1.28.44l.51,2.35A1.63,1.63,0,0,0,72.22,149h.1l3-.17a1.63,1.63,0,0,0,1.52-1.47l.24-2.39a10.55,10.55,0,0,0,1.22-.59l2,1.3a1.64,1.64,0,0,0,.88.26,1.6,1.6,0,0,0,1.21-.55l2-2.23a1.62,1.62,0,0,0,0-2.11l-1.52-1.86a10.72,10.72,0,0,0,.44-1.28l2.35-.51A1.62,1.62,0,0,0,87,135.76l-.17-3a1.64,1.64,0,0,0-1.47-1.53L82.94,131a10.41,10.41,0,0,0-.59-1.21l1.3-2a1.63,1.63,0,0,0-.29-2.1l-2.23-2a1.58,1.58,0,0,0-1.08-.42,1.65,1.65,0,0,0-1,.37l-1.86,1.53a9.23,9.23,0,0,0-1.28-.45l-.51-2.35a1.63,1.63,0,0,0-1.59-1.28"/><path class="cls-16" d="M117,107.83l.28-.42-2-1.31-.27.41.49.06a10.65,10.65,0,0,0,.06-1.12v-.28l-.5,0,.24.43,2.06-1.15a2.11,2.11,0,0,0,1.08-1.84,2.08,2.08,0,0,0-.13-.73l-1-2.75a2.1,2.1,0,0,0-2-1.37,2,2,0,0,0-.42,0l-2.31.47.1.49.38-.32a11.36,11.36,0,0,0-.94-1l-.35.36.48.14.64-2.28a1.87,1.87,0,0,0,.08-.57,2.1,2.1,0,0,0-1.22-1.91L109.13,92a2.08,2.08,0,0,0-2.63.74l-1.31,2,.42.28,0-.5a10.51,10.51,0,0,0-1.12-.06h-.27v.5l.44-.24-1.16-2.06a2.1,2.1,0,0,0-1.83-1.08,2.06,2.06,0,0,0-.73.14l-2.76,1a2.12,2.12,0,0,0-1.37,2,3,3,0,0,0,0,.42l.47,2.32.49-.1-.32-.39a10.15,10.15,0,0,0-1,1l.36.34.14-.48-2.28-.64a2.24,2.24,0,0,0-.57-.08,2.1,2.1,0,0,0-1.91,1.23l-1.22,2.66a2.08,2.08,0,0,0-.19.88,2.1,2.1,0,0,0,.93,1.75l2,1.31.28-.42-.5,0a10.65,10.65,0,0,0-.06,1.12,2.72,2.72,0,0,0,0,.28l.5,0-.25-.43-2.06,1.15a2.12,2.12,0,0,0-.94,2.57l1,2.75a2.09,2.09,0,0,0,2,1.37,1.9,1.9,0,0,0,.41,0l2.32-.47-.1-.49-.39.32a11.47,11.47,0,0,0,1,1l.35-.36-.49-.14-.64,2.28a2.24,2.24,0,0,0-.08.57,2.11,2.11,0,0,0,1.23,1.91l2.67,1.22a2.07,2.07,0,0,0,2.62-.74l1.31-2-.41-.28,0,.5a10.37,10.37,0,0,0,1.12.06h.27V116l-.44.24,1.16,2.06a2.1,2.1,0,0,0,2.56.94l2.75-1a2.09,2.09,0,0,0,1.37-2,2,2,0,0,0,0-.41l-.46-2.32-.49.1.31.39a10.15,10.15,0,0,0,1-1l-.36-.34-.13.48,2.27.64a2.24,2.24,0,0,0,.57.08,2.1,2.1,0,0,0,1.91-1.23L118,110a2.15,2.15,0,0,0,.19-.88,2.1,2.1,0,0,0-.94-1.75l-.28.42-.27.41a1.12,1.12,0,0,1,.49.92,1.09,1.09,0,0,1-.1.46l-1.23,2.67a1.11,1.11,0,0,1-1,.64,1.54,1.54,0,0,1-.3,0l-2.56-.73-.21.22a8.39,8.39,0,0,1-.93.86l-.23.2.52,2.61,0,.21a1.1,1.1,0,0,1-.72,1l-2.75,1a1.21,1.21,0,0,1-.38.06,1.09,1.09,0,0,1-1-.56l-1.31-2.32h-.54c-.34,0-.68,0-1-.05l-.3,0-1.48,2.21a1.1,1.1,0,0,1-.92.5,1.27,1.27,0,0,1-.46-.1l-2.66-1.23a1.1,1.1,0,0,1-.65-1,1,1,0,0,1,0-.3l.72-2.57-.22-.2a10.64,10.64,0,0,1-.86-.93l-.19-.24L94,112.1l-.22,0a1.1,1.1,0,0,1-1-.72l-1-2.75a1.06,1.06,0,0,1-.07-.38,1.1,1.1,0,0,1,.56-1L94.5,106v-.55a8.72,8.72,0,0,1,.06-1l0-.3-2.22-1.47a1.11,1.11,0,0,1-.39-1.38l1.22-2.67a1.11,1.11,0,0,1,1-.64,1,1,0,0,1,.3,0l2.57.72.21-.21a9.28,9.28,0,0,1,.92-.86l.24-.19-.53-2.62,0-.22a1.1,1.1,0,0,1,.72-1l2.75-1a1.34,1.34,0,0,1,.39-.07,1.1,1.1,0,0,1,1,.57L104,95.4h.55c.34,0,.68,0,1,0l.3,0,1.47-2.22a1.12,1.12,0,0,1,.92-.49,1.23,1.23,0,0,1,.46.1l2.67,1.23a1.1,1.1,0,0,1,.64,1,1,1,0,0,1,0,.3L111.26,98l.22.21c.3.3.59.61.86.93l.19.24,2.61-.53.22,0a1.1,1.1,0,0,1,1,.72l1,2.75a1.06,1.06,0,0,1,.07.38,1.1,1.1,0,0,1-.57,1l-2.32,1.31v.55c0,.33,0,.67,0,1l0,.3,2.22,1.48Zm-14.58,2.23.2-.46a4.57,4.57,0,0,1-2.66-4.15,4.49,4.49,0,0,1,.42-1.91,4.56,4.56,0,0,1,4.16-2.66,4.48,4.48,0,0,1,1.9.42,4.58,4.58,0,0,1,2.67,4.15,4.64,4.64,0,0,1-.42,1.91,4.58,4.58,0,0,1-4.16,2.66,4.49,4.49,0,0,1-1.91-.42l-.2.46-.21.45a5.46,5.46,0,0,0,2.32.51,5.58,5.58,0,0,0,5.07-3.24,5.7,5.7,0,0,0,.51-2.33,5.57,5.57,0,0,0-3.25-5.06,5.5,5.5,0,0,0-2.32-.51,5.58,5.58,0,0,0-5.07,3.24,5.57,5.57,0,0,0,2.74,7.39Z"/><path class="cls-17" d="M298.24,465.51l17,9.19-.7-9.71.83-1.47-7.35-1.73-8.62-7.15s-3.33,5.15-2.24,9.52A2.14,2.14,0,0,0,298.24,465.51Z"/><path class="cls-18" d="M345.62,468.82s-3.45-2.88,1.15-5.18l-28.62-.12-3.45,2.3.19,5.81,5.17,1.41,24.66-3.14Z"/><path class="cls-19" d="M315.59,463.2s-7.24,4.09-1.36,10.67a4.25,4.25,0,0,0,2.8,1.28c5.15,0,19.42-.4,28.42-2.89a1.9,1.9,0,0,0,.87-.52c.61-.65,1.42-1.95-.7-2.92l-26.23,3.06a3.5,3.5,0,0,1-2.59-.72c-1.49-1.17-3-3.59,1.35-7.64Z"/><polygon class="cls-20" points="349.28 453.71 339.79 444.99 325.03 442.21 301.71 444.52 311.04 453.23 331.91 453.47 349.28 453.71"/><path class="cls-18" d="M348.25,455.33s-2.86,3.17-1,5.95l-13.61,1.41H311.76L310.38,457l3.64-2.62,13.61-.92Z"/><path class="cls-21" d="M298.69,455l11,8.72,2.14-10.74-9.45-8.23a.69.69,0,0,0-1,0,10.66,10.66,0,0,0-3.63,8.63A2.43,2.43,0,0,0,298.69,455Z"/><path class="cls-22" d="M349.28,453.71c-21.24-3.24-33.86-1.83-38.13-1.12a2.51,2.51,0,0,0-2,1.9c-2.23,9.4,1.23,9.35,1.23,9.35l36.35.51,2.34,0a.44.44,0,0,0,.38-.69L348,461.63c-.55-.8-1.62-.71-2.58-.61-5.51.62-23.9.9-32.64.88a1.39,1.39,0,0,1-1.23-1.06c-.48-1.53-1-4.57,2.21-5.69,4.29-1.53,20.75-1.39,34.08.3a.52.52,0,0,0,.4-.12l1.19-1.11A.29.29,0,0,0,349.28,453.71Z"/><path class="cls-18" d="M353.86,447.86c-4.41-5.43.06-9.13.06-9.13l-30.34,1.59-3.33,4.54,2.18,4.41Z"/><path class="cls-23" d="M303.26,433.3a6.74,6.74,0,0,1,5.56-1.15c3.58.64,24.08-.9,24.08-.9l20.88,4.54-33.4,4.73Z"/><path class="cls-24" d="M321.41,451.41,303,444.54a1.81,1.81,0,0,1-1.18-1.51c-.24-2.16-.5-6.93,1.43-9.73l18.14,6.29-.16,1.23-.91,6.08,2.35,4.13,2.06,1-1.76-.19A6.43,6.43,0,0,1,321.41,451.41Z"/><path class="cls-25" d="M323.64,438.3a5.36,5.36,0,0,0-2.7,1.29c-2.21,2-5.69,6.5,1,11.56a4.34,4.34,0,0,0,2.27.86c2.87.22,11.2.46,28.74-1.72,0,0,1.45-.35,1.7-1.44a1.43,1.43,0,0,0-1.54-1.68L325.77,449a4,4,0,0,1-2.75-.83,4.14,4.14,0,0,1-1.59-3.34,3.62,3.62,0,0,1,.91-2.38,5,5,0,0,1,2.9-1.88c1.63-.14,22.64-1.12,28.71-1.45a1.63,1.63,0,0,0,1.55-1.72h0a1.63,1.63,0,0,0-1.72-1.56C348.55,436,332.12,436.94,323.64,438.3Z"/><path class="cls-19" d="M326.24,442.47a.29.29,0,0,1-.29-.28.28.28,0,0,1,.27-.3l25.9-1.28a.28.28,0,0,1,.3.28.29.29,0,0,1-.27.3l-25.9,1.28Z"/><path class="cls-19" d="M327.1,441.12a.29.29,0,0,1-.29-.27.28.28,0,0,1,.28-.3L353,439.27a.28.28,0,0,1,.31.27.31.31,0,0,1-.28.31l-25.9,1.27Z"/><path class="cls-19" d="M325.82,443.94a.3.3,0,0,1-.29-.28.28.28,0,0,1,.27-.3l25.9-1.28a.28.28,0,0,1,.3.27.29.29,0,0,1-.27.31l-25.9,1.27Z"/><path class="cls-19" d="M325.82,445.44a.29.29,0,0,1-.29-.28.28.28,0,0,1,.27-.3l25.9-1.28a.29.29,0,0,1,.3.28.28.28,0,0,1-.27.3l-25.9,1.28Z"/><path class="cls-19" d="M326.1,446.91a.29.29,0,0,1,0-.58l25.9-1.28c.15,0,.29.12.3.28a.3.3,0,0,1-.27.3l-25.9,1.28Z"/><path class="cls-19" d="M326.81,448.28a.29.29,0,0,1,0-.58l25.9-1.28a.29.29,0,0,1,.3.28.28.28,0,0,1-.27.3l-25.9,1.28Z"/><path class="cls-19" d="M316,457a.28.28,0,0,1-.27-.21.28.28,0,0,1,.19-.36c5.83-1.82,30.26-.13,31.3-.06a.29.29,0,0,1,0,.58c-.26,0-25.37-1.75-31.09,0Z"/><path class="cls-19" d="M315.4,458.69a.3.3,0,0,1-.28-.2.3.3,0,0,1,.19-.36c5.83-1.82,30.27-.13,31.3-.06a.29.29,0,0,1,.27.31.28.28,0,0,1-.31.26c-.25,0-25.36-1.74-31.09,0Z"/><path class="cls-19" d="M315.4,460.23a.29.29,0,0,1-.09-.57c5.83-1.81,30.27-.13,31.3-.06a.29.29,0,1,1,0,.58c-.25,0-25.36-1.75-31.09,0Z"/><path class="cls-19" d="M319.84,465.94a.29.29,0,0,1-.29-.23.3.3,0,0,1,.24-.34c3.62-.67,23.76-.37,24.62-.35a.29.29,0,0,1,0,.57c-.21,0-20.94-.31-24.51.35Z"/><path class="cls-19" d="M319.71,468.08a.27.27,0,0,1-.28-.23.29.29,0,0,1,.23-.34c3.62-.67,23.59-1,24.44-1a.28.28,0,0,1,.29.28.29.29,0,0,1-.28.29c-.21,0-20.77.36-24.35,1Z"/><path class="cls-19" d="M320.45,470.19a.29.29,0,0,1-.29-.23.29.29,0,0,1,.23-.34c3.62-.67,23.28-1.69,24.11-1.73a.28.28,0,0,1,.3.28.29.29,0,0,1-.27.3c-.2,0-20.45,1.06-24,1.72Z"/><path class="cls-26" d="M446.31,115.53h-2V326.68a12.19,12.19,0,0,1-12.19,12.19H272.34a12.19,12.19,0,0,1-12.19-12.19V115.53h-2V326.68a14.19,14.19,0,0,0,14.19,14.19H432.12a14.19,14.19,0,0,0,14.19-14.19V115.53M432.12,92.92H272.34l-.65,0H432.77l-.65,0"/><path class="cls-27" d="M276.4,109a3.61,3.61,0,1,1,3.6-3.61,3.6,3.6,0,0,1-3.6,3.61m10.06,0a3.61,3.61,0,1,1,3.6-3.61,3.6,3.6,0,0,1-3.6,3.61m10.06,0a3.61,3.61,0,1,1,3.61-3.61,3.6,3.6,0,0,1-3.61,3.61m136.69-16H271.27A13.29,13.29,0,0,0,258,106.23v9.3H446.51v-9.3a13.3,13.3,0,0,0-13.3-13.29"/><path class="cls-28" d="M276.4,101.74a3.61,3.61,0,1,0,3.6,3.6,3.6,3.6,0,0,0-3.6-3.6"/><path class="cls-28" d="M286.46,101.74a3.61,3.61,0,1,0,3.6,3.6,3.6,3.6,0,0,0-3.6-3.6"/><path class="cls-28" d="M296.52,101.74a3.61,3.61,0,1,0,3.61,3.6,3.6,3.6,0,0,0-3.61-3.6"/><path class="cls-29" d="M429.07,147H331.83a1.65,1.65,0,1,0,0,3.29h97.24a1.65,1.65,0,1,0,0-3.29"/><path class="cls-29" d="M429.07,135.41H331.83a1.65,1.65,0,1,0,0,3.29h97.24a1.65,1.65,0,1,0,0-3.29"/><path class="cls-29" d="M429.07,158.64H331.83a1.65,1.65,0,1,0,0,3.3h97.24a1.65,1.65,0,1,0,0-3.3"/><path class="cls-29" d="M429.07,170.26H343.66a1.65,1.65,0,1,0,0,3.29h85.41a1.65,1.65,0,1,0,0-3.29"/><path class="cls-29" d="M425.66,289.71H353.88a1.65,1.65,0,1,0,0,3.29h71.78a1.65,1.65,0,0,0,0-3.29"/><path class="cls-29" d="M425.66,278.09H353.88a1.65,1.65,0,1,0,0,3.29h71.78a1.65,1.65,0,0,0,0-3.29"/><path class="cls-29" d="M425.66,301.33H353.88a1.65,1.65,0,1,0,0,3.29h71.78a1.65,1.65,0,0,0,0-3.29"/><path class="cls-29" d="M425.66,312.94h-60a1.65,1.65,0,1,0,0,3.3h60a1.65,1.65,0,0,0,0-3.3"/><path class="cls-29" d="M371.69,218.43H274.45a1.65,1.65,0,1,0,0,3.3h97.24a1.65,1.65,0,0,0,0-3.3"/><path class="cls-29" d="M371.69,206.82H274.45a1.65,1.65,0,1,0,0,3.29h97.24a1.65,1.65,0,1,0,0-3.29"/><path class="cls-29" d="M371.69,230.05H274.45a1.65,1.65,0,1,0,0,3.3h97.24a1.65,1.65,0,1,0,0-3.3"/><path class="cls-29" d="M359.86,241.67H274.45a1.65,1.65,0,1,0,0,3.29h85.41a1.65,1.65,0,1,0,0-3.29"/><path class="cls-30" d="M288.27,143a3.26,3.26,0,1,0,3.26,3.26,3.26,3.26,0,0,0-3.26-3.26M281.2,168.2a1.12,1.12,0,0,1-.54-2.1l18.46-10.16a8,8,0,0,1,8.54.46l4.83,3.37a1.12,1.12,0,0,1,.28,1.56,1.11,1.11,0,0,1-.92.48,1.08,1.08,0,0,1-.64-.2l-4.83-3.37a5.78,5.78,0,0,0-6.18-.33l-18.46,10.15a1.17,1.17,0,0,1-.54.14m7.07-16.41a5.5,5.5,0,1,1,5.5-5.5,5.51,5.51,0,0,1-5.5,5.5m27.16-18.1H277.62a2.24,2.24,0,0,0-2.25,2.24v37.81a2.25,2.25,0,0,0,2.25,2.25h37.81a2.24,2.24,0,0,0,2.24-2.25V135.93a2.24,2.24,0,0,0-2.24-2.24"/><path class="cls-28" d="M303,154.93a8.16,8.16,0,0,0-3.91,1L280.66,166.1a1.12,1.12,0,0,0,.54,2.1,1.17,1.17,0,0,0,.54-.14l18.46-10.15a5.78,5.78,0,0,1,6.18.33l4.83,3.37a1.08,1.08,0,0,0,.64.2,1.11,1.11,0,0,0,.92-.48,1.12,1.12,0,0,0-.28-1.56l-4.83-3.37a8.12,8.12,0,0,0-4.63-1.47"/><path class="cls-28" d="M288.27,149.55a3.26,3.26,0,1,1,3.26-3.26,3.26,3.26,0,0,1-3.26,3.26m0-8.76a5.5,5.5,0,1,0,5.5,5.5,5.51,5.51,0,0,0-5.5-5.5"/><path class="cls-31" d="M403.69,207.27a18.85,18.85,0,1,0,18.85,18.85H403.69V207.27"/><path class="cls-32" d="M408.6,202.37v18.84h18.84a18.85,18.85,0,0,0-18.84-18.84"/><polyline class="cls-33" points="289.23 305.95 278.79 305.95 278.79 320.74 289.23 320.74 289.23 305.95"/><polyline class="cls-33" points="305.51 297.16 295.07 297.16 295.07 320.74 305.51 320.74 305.51 297.16"/><polyline class="cls-33" points="321.8 288.16 311.36 288.16 311.36 320.74 321.8 320.74 321.8 288.16"/><polyline class="cls-33" points="338.09 273.59 327.65 273.59 327.65 320.74 338.09 320.74 338.09 273.59"/><g class="cls-34"><path class="cls-16" d="M140.24,28.51a11.12,11.12,0,0,0-16.69,14.63l-9.85,9.72a1.32,1.32,0,0,0,.93,2.26,1.27,1.27,0,0,0,.92-.38L125.41,45a11.11,11.11,0,0,0,14.83-16.5Zm-2,13.84a8.48,8.48,0,1,1,.07-12A8.5,8.5,0,0,1,138.29,42.35Z"/></g><circle class="cls-35" cx="182.86" cy="385.79" r="5.98"/><circle class="cls-35" cx="176.99" cy="121.07" r="12.57"/><path class="cls-16" d="M184.64,95.6V92.25a7.64,7.64,0,0,0-5.88-7.43V4.45h-3.54V84.82a7.64,7.64,0,0,0-5.87,7.43V95.6a30.89,30.89,0,0,0-23.25,29.94h61.79A30.9,30.9,0,0,0,184.64,95.6Z"/><g class="cls-36"><path class="cls-37" d="M242.23,61.25h0a6,6,0,0,0-8.52,0h0a6,6,0,0,0-.64,7.78l4.9,6.84,4.9-6.84A6,6,0,0,0,242.23,61.25ZM238,67.68a2.39,2.39,0,1,1,2.39-2.39A2.39,2.39,0,0,1,238,67.68Z"/></g><path class="cls-35" d="M455.26,40.16A19.14,19.14,0,0,0,420,29.85a13,13,0,0,0-20.65,8.42,11.1,11.1,0,1,0-5,21h42.94v0A19.14,19.14,0,0,0,455.26,40.16Z"/><path class="cls-35" d="M260.55,16.23a16.22,16.22,0,0,1,29.89-8.75A11,11,0,0,1,308,14.62a9.41,9.41,0,1,1,4.19,17.83h-36.4v0A16.23,16.23,0,0,1,260.55,16.23Z"/><path class="cls-38" d="M53.6,256.39H0v-53.6H53.6ZM.92,255.46H52.67V203.72H.92Z"/><rect class="cls-38" x="14.32" y="210.3" width="31.94" height="0.92"/><rect class="cls-38" x="6.43" y="217.69" width="39.83" height="0.92"/><rect class="cls-38" x="6.43" y="225.08" width="39.83" height="0.92"/><rect class="cls-38" x="6.43" y="232.48" width="39.83" height="0.92"/><rect class="cls-38" x="6.43" y="239.87" width="39.83" height="0.92"/><rect class="cls-38" x="6.43" y="247.26" width="39.83" height="0.92"/><path class="cls-38" d="M124.35,226.54H70.75V173h53.6Zm-52.67-.92h51.74V173.87H71.68Z"/><rect class="cls-38" x="85.08" y="180.46" width="10.63" height="0.92"/><rect class="cls-38" x="77.19" y="187.85" width="18.52" height="0.92"/><rect class="cls-38" x="77.19" y="195.24" width="18.52" height="0.92"/><rect class="cls-38" x="77.19" y="202.63" width="39.83" height="0.92"/><rect class="cls-38" x="77.19" y="210.03" width="39.83" height="0.92"/><rect class="cls-38" x="77.19" y="217.42" width="39.83" height="0.92"/><path class="cls-38" d="M117.48,196.16H101.77v-15.7h15.71Zm-14.79-.92h13.86V181.38H102.69Z"/><rect class="cls-35" x="29.97" y="278.04" width="52.67" height="52.67"/><rect class="cls-39" x="43.83" y="285.09" width="31.94" height="0.92"/><rect class="cls-39" x="35.94" y="292.48" width="39.83" height="0.92"/><rect class="cls-39" x="35.94" y="299.87" width="39.83" height="0.92"/><rect class="cls-39" x="35.94" y="307.27" width="39.83" height="0.92"/><rect class="cls-39" x="35.94" y="314.66" width="39.83" height="0.92"/><rect class="cls-39" x="35.94" y="322.05" width="39.83" height="0.92"/><rect class="cls-37" x="24.51" y="276.06" width="17.85" height="7.28" transform="translate(-187.98 105.56) rotate(-45)"/></g></g></svg>